<svg width="32" height="32" viewBox="0 0 32 32" fill="none" xmlns="http://www.w3.org/2000/svg">
<path d="M22 12.5319L10 5.6119M4.36 9.27857L16 16.0119L27.64 9.27857M16 29.4386V15.9986M28 21.3319V10.6652C27.9995 10.1976 27.8761 9.73831 27.6421 9.33345C27.408 8.92859 27.0717 8.59238 26.6667 8.35857L17.3333 3.02523C16.9279 2.79119 16.4681 2.66797 16 2.66797C15.5319 2.66797 15.0721 2.79119 14.6667 3.02523L5.33333 8.35857C4.92835 8.59238 4.59197 8.92859 4.35795 9.33345C4.12392 9.73831 4.00048 10.1976 4 10.6652V21.3319C4.00048 21.7995 4.12392 22.2588 4.35795 22.6637C4.59197 23.0685 4.92835 23.4048 5.33333 23.6386L14.6667 28.9719C15.0721 29.206 15.5319 29.3292 16 29.3292C16.4681 29.3292 16.9279 29.206 17.3333 28.9719L26.6667 23.6386C27.0717 23.4048 27.408 23.0685 27.6421 22.6637C27.8761 22.2588 27.9995 21.7995 28 21.3319Z" stroke="white" stroke-width="4" stroke-linecap="round" stroke-linejoin="round"/>
</svg>
