<svg width="32" height="32" viewBox="0 0 32 32" fill="none" xmlns="http://www.w3.org/2000/svg">
<path d="M20.4091 28.0909V25.6364C20.4091 24.3344 19.8919 23.0857 18.9713 22.1651C18.0506 21.2445 16.802 20.7273 15.5 20.7273H6.90909C5.60712 20.7273 4.35847 21.2445 3.43784 22.1651C2.51721 23.0857 2 24.3344 2 25.6364V28.0909M21.6364 15.8182L24.0909 18.2727L29 13.3636M16.1136 10.9091C16.1136 13.6203 13.9158 15.8182 11.2045 15.8182C8.49333 15.8182 6.29545 13.6203 6.29545 10.9091C6.29545 8.19787 8.49333 6 11.2045 6C13.9158 6 16.1136 8.19787 16.1136 10.9091Z" stroke="white" stroke-width="3.68182" stroke-linecap="round" stroke-linejoin="round"/>
</svg>
