<svg width="32" height="32" viewBox="0 0 32 32" fill="none" xmlns="http://www.w3.org/2000/svg">
<path d="M22.968 23.0155V20.9187C22.968 19.8065 22.5262 18.7399 21.7398 17.9534C20.9533 17.167 19.8867 16.7252 18.7745 16.7252H10.3874C9.2752 16.7252 8.20855 17.167 7.42211 17.9534C6.63567 18.7399 6.19385 19.8065 6.19385 20.9187V23.0155M18.7745 8.33808C18.7745 10.6541 16.897 12.5316 14.5809 12.5316C12.2649 12.5316 10.3874 10.6541 10.3874 8.33808C10.3874 6.02205 12.2649 4.14453 14.5809 4.14453C16.897 4.14453 18.7745 6.02205 18.7745 8.33808Z" stroke="white" stroke-width="3.75" stroke-linecap="round" stroke-linejoin="round"/>
<g clip-path="url(#clip0_7508_1796)">
<path d="M23.2902 25.9228C24.2256 25.9228 24.9838 25.1645 24.9838 24.2292C24.9838 23.2939 24.2256 22.5357 23.2902 22.5357C22.3549 22.5357 21.5967 23.2939 21.5967 24.2292C21.5967 25.1645 22.3549 25.9228 23.2902 25.9228Z" stroke="white" stroke-width="2.03125" stroke-linecap="round" stroke-linejoin="round"/>
<path d="M27.4677 25.9228C27.3925 26.093 27.3701 26.2819 27.4033 26.465C27.4365 26.6482 27.5238 26.8171 27.654 26.9502L27.6878 26.984C27.7928 27.0889 27.8761 27.2134 27.9329 27.3505C27.9897 27.4875 28.019 27.6345 28.019 27.7828C28.019 27.9312 27.9897 28.0781 27.9329 28.2152C27.8761 28.3523 27.7928 28.4768 27.6878 28.5816C27.583 28.6866 27.4584 28.7699 27.3214 28.8267C27.1843 28.8835 27.0374 28.9128 26.889 28.9128C26.7407 28.9128 26.5937 28.8835 26.4567 28.8267C26.3196 28.7699 26.1951 28.6866 26.0902 28.5816L26.0564 28.5478C25.9233 28.4176 25.7543 28.3303 25.5712 28.2971C25.3881 28.2639 25.1992 28.2863 25.029 28.3615C24.862 28.433 24.7196 28.5518 24.6193 28.7033C24.519 28.8548 24.4652 29.0322 24.4644 29.2139V29.3099C24.4644 29.6093 24.3455 29.8965 24.1338 30.1082C23.922 30.3199 23.6348 30.4389 23.3354 30.4389C23.036 30.4389 22.7488 30.3199 22.5371 30.1082C22.3253 29.8965 22.2064 29.6093 22.2064 29.3099V29.259C22.202 29.0722 22.1415 28.891 22.0328 28.739C21.9241 28.5869 21.7721 28.4711 21.5967 28.4066C21.4264 28.3315 21.2376 28.3091 21.0544 28.3423C20.8713 28.3755 20.7023 28.4628 20.5693 28.5929L20.5354 28.6268C20.4305 28.7318 20.306 28.815 20.169 28.8719C20.0319 28.9287 19.885 28.9579 19.7366 28.9579C19.5882 28.9579 19.4413 28.9287 19.3043 28.8719C19.1672 28.815 19.0427 28.7318 18.9378 28.6268C18.8329 28.5219 18.7496 28.3974 18.6928 28.2604C18.6359 28.1233 18.6067 27.9764 18.6067 27.828C18.6067 27.6796 18.6359 27.5327 18.6928 27.3956C18.7496 27.2586 18.8329 27.1341 18.9378 27.0292L18.9717 26.9953C19.1018 26.8623 19.1891 26.6933 19.2223 26.5102C19.2555 26.3271 19.2331 26.1382 19.158 25.9679C19.0864 25.801 18.9676 25.6586 18.8162 25.5583C18.6647 25.458 18.4872 25.4041 18.3056 25.4034H18.2096C17.9102 25.4034 17.623 25.2845 17.4113 25.0727C17.1995 24.861 17.0806 24.5738 17.0806 24.2744C17.0806 23.9749 17.1995 23.6878 17.4113 23.476C17.623 23.2643 17.9102 23.1453 18.2096 23.1453H18.2604C18.4473 23.141 18.6285 23.0805 18.7805 22.9718C18.9325 22.863 19.0483 22.7111 19.1128 22.5357C19.188 22.3654 19.2104 22.1765 19.1772 21.9934C19.144 21.8103 19.0567 21.6413 18.9265 21.5082L18.8927 21.4744C18.7877 21.3695 18.7044 21.245 18.6476 21.1079C18.5908 20.9709 18.5615 20.824 18.5615 20.6756C18.5615 20.5272 18.5908 20.3803 18.6476 20.2432C18.7044 20.1062 18.7877 19.9816 18.8927 19.8768C18.9975 19.7718 19.122 19.6885 19.2591 19.6317C19.3962 19.5749 19.5431 19.5457 19.6915 19.5457C19.8398 19.5457 19.9867 19.5749 20.1238 19.6317C20.2609 19.6885 20.3854 19.7718 20.4902 19.8768L20.5241 19.9107C20.6572 20.0408 20.8261 20.1281 21.0093 20.1613C21.1924 20.1945 21.3813 20.1721 21.5515 20.097H21.5967C21.7637 20.0254 21.9061 19.9066 22.0064 19.7551C22.1067 19.6037 22.1605 19.4262 22.1612 19.2445V19.1486C22.1612 18.8491 22.2802 18.562 22.4919 18.3502C22.7036 18.1385 22.9908 18.0195 23.2902 18.0195C23.5897 18.0195 23.8769 18.1385 24.0886 18.3502C24.3003 18.562 24.4193 18.8491 24.4193 19.1486V19.1994C24.42 19.381 24.4738 19.5585 24.5741 19.71C24.6744 19.8614 24.8168 19.9802 24.9838 20.0518C25.1541 20.1269 25.3429 20.1494 25.5261 20.1161C25.7092 20.0829 25.8782 19.9956 26.0112 19.8655L26.0451 19.8316C26.1499 19.7267 26.2745 19.6434 26.4115 19.5866C26.5486 19.5297 26.6955 19.5005 26.8439 19.5005C26.9922 19.5005 27.1392 19.5297 27.2762 19.5866C27.4133 19.6434 27.5378 19.7267 27.6427 19.8316C27.7476 19.9365 27.8309 20.061 27.8877 20.1981C27.9445 20.3351 27.9738 20.482 27.9738 20.6304C27.9738 20.7788 27.9445 20.9257 27.8877 21.0628C27.8309 21.1998 27.7476 21.3244 27.6427 21.4292L27.6088 21.4631C27.4787 21.5961 27.3913 21.7651 27.3581 21.9482C27.3249 22.1314 27.3474 22.3202 27.4225 22.4905V22.5357C27.4941 22.7026 27.6129 22.845 27.7643 22.9453C27.9158 23.0456 28.0933 23.0995 28.2749 23.1002H28.3709C28.6703 23.1002 28.9575 23.2191 29.1692 23.4309C29.381 23.6426 29.4999 23.9298 29.4999 24.2292C29.4999 24.5286 29.381 24.8158 29.1692 25.0276C28.9575 25.2393 28.6703 25.3582 28.3709 25.3582H28.3201C28.1384 25.359 27.961 25.4128 27.8095 25.5131C27.658 25.6134 27.5392 25.7558 27.4677 25.9228Z" stroke="white" stroke-width="2.03125" stroke-linecap="round" stroke-linejoin="round"/>
</g>
<defs>
<clipPath id="clip0_7508_1796">
<rect width="13.5484" height="13.5484" fill="white" transform="translate(16.5161 17.4531)"/>
</clipPath>
</defs>
</svg>
