<svg width="32" height="32" viewBox="0 0 32 32" fill="none" xmlns="http://www.w3.org/2000/svg">
<path d="M11 4.75H7.25C6.58696 4.75 5.95107 5.01339 5.48223 5.48223C5.01339 5.95107 4.75 6.58696 4.75 7.25V11M27.25 11V7.25C27.25 6.58696 26.9866 5.95107 26.5178 5.48223C26.0489 5.01339 25.413 4.75 24.75 4.75H21M21 27.25H24.75C25.413 27.25 26.0489 26.9866 26.5178 26.5178C26.9866 26.0489 27.25 25.413 27.25 24.75V21M4.75 21V24.75C4.75 25.413 5.01339 26.0489 5.48223 26.5178C5.95107 26.9866 6.58696 27.25 7.25 27.25H11" stroke="white" stroke-width="3.75" stroke-linecap="round" stroke-linejoin="round"/>
<path d="M10.9263 10.9219L18.9226 12.852L19.7498 16.9881L16.9924 19.7454L12.8564 18.9182L10.9263 10.9219ZM10.9263 10.9219L15.1097 15.1053M16.441 20.2969L20.3013 16.4366L21.9557 18.091L18.0954 21.9513L16.441 20.2969ZM16.9924 15.8851C16.9924 16.4942 16.4986 16.9881 15.8895 16.9881C15.2804 16.9881 14.7866 16.4942 14.7866 15.8851C14.7866 15.276 15.2804 14.7822 15.8895 14.7822C16.4986 14.7822 16.9924 15.276 16.9924 15.8851Z" stroke="white" stroke-width="1.65441" stroke-linecap="round" stroke-linejoin="round"/>
</svg>
