<svg width="210" height="36" viewBox="0 0 210 36" fill="none" xmlns="http://www.w3.org/2000/svg">
<path fill-rule="evenodd" clip-rule="evenodd" d="M184.481 3.68515V5.08176C186.922 2.61679 190.059 1.02508 193.643 1.01888C202.655 1.01888 208 7.28846 208 15.7127V32.3147C208 35.8951 202.522 35.8951 202.522 32.3147V15.7127C202.522 9.85315 199.24 6.38918 193.648 6.38918C188.348 6.39785 184.572 10.0835 184.481 15.6762V15.8526L184.479 32.3153C184.479 35.8951 179 35.8945 179 32.3147L179.003 3.68453C179.003 0.104744 184.482 0.105363 184.481 3.68515Z" fill="white"/>
<path fill-rule="evenodd" clip-rule="evenodd" d="M176 17.6435L175.999 17.3046C175.836 9.51345 170.893 1 160.734 1C151.775 1 145.401 8.03909 145.028 16.7703C145.02 16.9706 145.011 17.49 145.006 17.9502C145.001 18.1902 145 18.5649 145 18.5649C145.205 28.4568 152.563 35 161.327 35C166.194 35 170.159 33.0438 173.044 30.2843C175.653 27.7902 171.843 23.9484 169.235 26.4425C167.239 28.3518 164.599 29.6375 161.327 29.6375C156.148 29.6375 151.621 26.2911 150.649 20.5384H173.269C175.136 20.5384 176.046 19.129 175.997 17.7548L176 17.6435ZM170.29 15.1765L150.685 15.1759C151.638 9.87152 155.695 6.36249 160.734 6.36249C165.978 6.36249 169.369 10.2172 170.29 15.1765Z" fill="white"/>
<path fill-rule="evenodd" clip-rule="evenodd" d="M132.228 32.8956C132.126 33.3624 131.887 33.7721 131.562 34.1028C131.009 34.7534 130.253 35.0222 129.502 34.9986C128.752 35.0222 127.995 34.7534 127.443 34.1028C127.118 33.7721 126.878 33.3624 126.776 32.8961L114.263 4.77774C112.802 1.49587 117.839 -0.644984 119.299 2.63627L129.502 25.5629L139.701 2.63688C141.16 -0.644983 146.197 1.49526 144.737 4.77712L132.228 32.8956Z" fill="white"/>
<path fill-rule="evenodd" clip-rule="evenodd" d="M114 17.6435V17.3046C113.836 9.51345 108.893 1 98.7334 1C89.7761 1 83.4023 8.03909 83.0293 16.7703C83.0206 16.9706 83.0081 17.49 83.0031 17.9502C83.0007 18.1902 83 18.5649 83 18.5649C83.2055 28.4568 90.5626 35 99.327 35C104.194 35 108.16 33.0438 111.045 30.2843C113.654 27.7902 109.844 23.9484 107.236 26.4425C105.239 28.3518 102.598 29.6375 99.327 29.6375C94.1473 29.6375 89.6223 26.2911 88.6497 20.5384H111.27C113.136 20.5384 114.046 19.129 113.998 17.7548L114 17.6435ZM108.289 15.1765L88.6842 15.1759C89.6388 9.87152 93.695 6.36249 98.7332 6.36249C103.978 6.36249 107.369 10.2172 108.289 15.1765Z" fill="white"/>
<path fill-rule="evenodd" clip-rule="evenodd" d="M73.966 9.4182C72.1967 7.27493 69.6257 6.37275 66.9658 6.37275C62.249 6.37275 60.5238 8.6951 60.5238 10.4084C60.5238 13.3956 66.1597 14.514 68.2603 15.0988C73.554 16.5111 80 18.5248 80 25.1281C80 31.522 73.7525 35 67.6487 35C63.5905 35 59.3661 33.5346 56.3674 30.5033C53.814 27.9226 57.794 24.1975 60.3474 26.7782C62.1677 28.6178 64.8818 29.6278 67.6487 29.6278C72.3523 29.6278 74.4768 27.1716 74.4768 25.1281C74.4768 21.9477 69.0551 20.8812 66.7548 20.2677C61.5908 18.8303 55 16.9405 55 10.4084C55 4.49962 60.6372 1 66.9658 1C70.8968 1 75.2263 2.36442 78.2729 6.05489C80.5782 8.84753 76.2713 12.2108 73.966 9.4182Z" fill="white"/>
<path fill-rule="evenodd" clip-rule="evenodd" d="M29.1672 8.13101C31.3536 4.39165 34.6267 1.35404 39.6378 1.02611C40.3078 0.98267 40.9819 0.993681 41.6555 1.05731C45.9272 1.45804 49.5 4.19038 50.4589 8.2344C50.7947 9.45864 50.8948 10.8083 50.6856 12.2001C50.2533 14.6811 48.9465 16.9576 46.5977 19.5436C45.4436 21.0407 43.9512 22.3929 42.592 23.6954L37.4717 28.687H49.3728C52.8757 28.687 52.8757 34 49.3728 34H30.9622C28.0051 34 27.0101 31.5069 29.1394 29.4317L38.9697 19.8477C40.1474 18.7183 41.6 17.4844 42.5545 16.1536C44.5855 13.9359 45.3013 12.4467 45.5009 11.3412C45.5883 10.7239 45.5233 10.1004 45.3718 9.56263C45.0287 8.06616 43.5881 6.57396 41.1695 6.34699C40.7697 6.30967 40.3717 6.30233 39.9743 6.32801C37.2698 6.50483 35.3318 8.0264 33.6904 10.8346C31.9079 13.8838 27.3852 11.1803 29.1672 8.13101Z" fill="white"/>
<path fill-rule="evenodd" clip-rule="evenodd" d="M5.92732 10.8346C7.63712 8.0264 9.65656 6.50483 12.4731 6.32801C12.8877 6.30233 13.3016 6.30967 13.7187 6.34699C16.2376 6.57396 17.7382 8.06616 18.0962 9.56263C18.2538 10.101 18.3217 10.7245 18.2306 11.3405C18.0221 12.4467 17.2765 13.9359 15.161 16.1536C14.1666 17.4837 12.6534 18.7183 11.4267 19.8477L1.18679 29.4317C-1.03115 31.5069 0.0052695 34 3.08628 34H22.2639C25.912 34 25.912 28.687 22.2639 28.687H9.86637L15.1999 23.6954C16.6151 22.3929 18.1703 21.0407 19.3726 19.5436C21.8192 16.9576 23.1803 14.6811 23.6314 12.2001C23.8493 10.807 23.7443 9.45802 23.3945 8.2344C22.3958 4.18976 18.6741 1.45804 14.2244 1.05731C13.5227 0.993681 12.8211 0.98267 12.1233 1.02611C6.90282 1.35404 3.49331 4.39165 1.21631 8.13101C-0.640453 11.1803 4.0712 13.8838 5.92732 10.8346Z" fill="white"/>
</svg>
