<svg width="250" height="44" viewBox="0 0 250 44" fill="none" xmlns="http://www.w3.org/2000/svg">
<g clip-path="url(#clip0_7185_3147)">
<path d="M11.4998 29.2248L30.6498 18.1446L28.6498 14.6914L9.50977 25.7016L11.4998 29.2248Z" fill="white"/>
<path d="M11.5 20.0168L22.68 13.5508L20.68 10.0977L9.5 16.5636L11.5 20.0168Z" fill="white"/>
<path d="M19.4702 33.841L30.6602 27.3751L28.6602 23.9219L17.4702 30.3878L19.4702 33.841Z" fill="white"/>
<path d="M36.0199 12.7518V33.4909L40.1599 31.0987V10.3696L22.2198 0L18.0898 2.39221L36.0199 12.7518Z" fill="white"/>
<path d="M4.13 31.1845V10.4453L0 12.8375V33.5667L17.94 43.9362L22.07 41.544L4.13 31.1845Z" fill="white"/>
<path d="M62.1099 10.3672H76.3699C82.4499 10.3672 86.5699 13.8504 86.5699 19.4756C86.6066 20.8161 86.2685 22.1402 85.5935 23.2986C84.9185 24.457 83.9336 25.4036 82.7499 26.0316C84.4927 26.5375 86.0165 27.6124 87.0784 29.0852C88.1403 30.558 88.6794 32.3442 88.6099 34.1592C88.6099 39.3239 84.9399 43.4177 77.8299 43.4177H62.1099V10.3672ZM66.1099 24.8906H76.2499C79.8999 24.8906 82.4499 22.7887 82.4499 19.5056C82.4499 16.2226 80.0899 13.9505 76.1699 13.9505H66.1699L66.1099 24.8906ZM78.1099 28.2737H66.1099V39.8444H78.1099C81.7799 39.8444 84.4599 37.8426 84.4599 34.2192C84.4999 30.786 82.3099 28.2737 78.1499 28.2737H78.1099ZM135.76 29.2746V43.4477H132V30.1555C132 25.6013 129.61 23.209 125.38 23.209C124.438 23.1623 123.496 23.3098 122.613 23.6423C121.73 23.9749 120.924 24.4854 120.246 25.1423C119.568 25.7992 119.033 26.5884 118.672 27.4611C118.311 28.3338 118.134 29.2713 118.15 30.2155V43.4477H114.28V20.0661H118.18V23.5694C119.032 22.2904 120.197 21.2511 121.564 20.5503C122.931 19.8495 124.455 19.5105 125.99 19.5657C132.1 19.5757 135.8 23.209 135.8 29.2246L135.76 29.2746ZM150.76 30.1955L158.76 18.0443H154.47L147.74 28.4138H142.74V10.3972H138.9V43.4477H142.77V31.6969H147.51L156 43.4477H160.53L150.76 30.1955ZM172.08 14.1807V43.5078H168.08V14.1407H157V10.3672H183.11V14.1407L172.08 14.1807ZM218.25 19.6357C220.671 19.6194 223.065 20.1532 225.25 21.1972L224.83 24.6804C222.764 23.7288 220.514 23.2468 218.24 23.2691C212.76 23.2691 209.02 26.7023 209.02 31.7469C209.02 36.7916 212.79 40.3649 218.29 40.3649C220.617 40.3591 222.915 39.854 225.03 38.8835L225.66 42.4168C223.333 43.4313 220.827 43.969 218.29 43.9982C210.45 43.9982 205.1 38.9936 205.1 31.7469C205.1 24.5002 210.45 19.5757 218.26 19.5757L218.25 19.6357ZM250 29.2246V43.4477H246.15V30.1555C246.15 25.6013 243.77 23.209 239.58 23.209C238.638 23.1622 237.697 23.3097 236.814 23.6424C235.932 23.975 235.127 24.4858 234.45 25.1428C233.773 25.7998 233.238 26.5892 232.878 27.4618C232.519 28.3345 232.342 29.2718 232.36 30.2155V43.4477H228.49V10.3672H232.38V23.5694C233.232 22.2904 234.397 21.2511 235.764 20.5503C237.132 19.8495 238.655 19.5105 240.19 19.5657C246.3 19.5757 250 23.209 250 29.2246ZM101.16 19.4255C98.0546 19.3751 95.0014 20.2269 92.3699 21.8778L92.8099 25.6513L92.9999 25.4911C95.2004 23.6684 97.9737 22.6828 100.83 22.7086C105.13 22.7086 107.41 24.8305 107.41 28.8242V29.4148H100.41C92.1499 29.4148 90.9199 33.8188 90.9199 36.4212C90.9199 40.8053 94.4499 43.6479 99.9199 43.6479C103.47 43.6479 105.84 42.4268 107.5 40.2047V43.4077H111.06V28.9644C111.1 22.7186 107.67 19.4255 101.16 19.4255ZM100.46 40.6451C96.7999 40.6451 94.6199 39.0537 94.6199 36.3712C94.6199 33.6887 96.5699 32.3074 100.56 32.3074H107.41V35.9008C106.938 37.3488 106 38.5996 104.742 39.4579C103.485 40.3161 101.979 40.7336 100.46 40.6451ZM190.71 19.6257C183.94 19.6257 179.03 24.7204 179.03 31.7569C179.03 38.7934 184.18 43.9282 191.54 43.9282C193.271 43.9976 194.996 43.6816 196.59 43.0031C198.185 42.3246 199.609 41.3005 200.76 40.0045L201 39.7343L198.69 37.0718L198.36 37.4422C197.518 38.3868 196.479 39.134 195.315 39.6306C194.152 40.1271 192.894 40.3607 191.63 40.3148C186.96 40.3148 183.56 37.4522 183.03 33.1482H202.26V32.7178C202.26 32.5377 202.26 32.3675 202.26 32.1973C202.26 32.0272 202.26 31.8871 202.26 31.7569C202.31 24.5903 197.54 19.6057 190.71 19.6057V19.6257ZM183 29.9453C183.225 28.0612 184.133 26.3251 185.551 25.0656C186.969 23.8062 188.799 23.1106 190.695 23.1106C192.591 23.1106 194.421 23.8062 195.839 25.0656C197.257 26.3251 198.164 28.0612 198.39 29.9453H183Z" fill="white"/>
</g>
<defs>
<clipPath id="clip0_7185_3147">
<rect width="250" height="44" fill="white"/>
</clipPath>
</defs>
</svg>
