<svg width="116" height="31" viewBox="0 0 116 31" fill="none" xmlns="http://www.w3.org/2000/svg">
<g clip-path="url(#clip0_7185_3148)">
<mask id="mask0_7185_3148" style="mask-type:luminance" maskUnits="userSpaceOnUse" x="0" y="0" width="116" height="31">
<path d="M116 0H0V30.912H116V0Z" fill="white"/>
</mask>
<g mask="url(#mask0_7185_3148)">
<path d="M19.0752 14.9534C21.6214 14.0821 23.5196 11.5099 23.5196 8.3274C23.5196 3.53039 20.1535 0 14.1995 0H0V30.9097H15.0196C20.7569 30.9097 24.4679 27.292 24.4679 22.2783C24.4679 18.4415 22.0522 15.695 19.0752 14.9534ZM5.86788 5.05792H13.2491C16.1421 5.05792 17.6517 6.53845 17.6517 8.89456C17.6517 11.2485 16.0118 12.7738 13.2934 12.7738H5.86788V5.05792ZM13.897 25.8961H5.86788V17.7448H13.983C16.96 17.7448 18.514 19.4447 18.514 21.8855C18.514 24.3708 16.7879 25.8961 13.897 25.8961Z" fill="white"/>
<path d="M78.9995 20.4472L66.2718 0H58.8521V30.912H64.8066V8.98206L78.6993 30.912H84.9543V0H78.9995V20.4472Z" fill="white"/>
<path d="M40.2783 22.9771L32.3576 0.0199886L28.1919 6.59354L37.0849 30.912H43.2137L54.5602 0H48.2615L40.2783 22.9771Z" fill="white"/>
<path d="M116 0H108.805L96.2061 15.2823V0H90.2441V30.912H96.2061V15.6295L108.805 30.912H116L103.121 15.4557L116 0Z" fill="white"/>
</g>
</g>
<defs>
<clipPath id="clip0_7185_3148">
<rect width="116" height="31" fill="white"/>
</clipPath>
</defs>
</svg>
