<svg width="208" height="35" viewBox="0 0 208 35" fill="none" xmlns="http://www.w3.org/2000/svg">
<g clip-path="url(#clip0_7185_3157)">
<path d="M204.667 34.3779C206.519 34.3779 208 32.8212 208 30.939C208 29.0567 206.519 27.5 204.667 27.5C202.766 27.5 201.285 29.0567 201.285 30.939C201.285 32.8212 202.766 34.3779 204.667 34.3779Z" fill="white"/>
<path d="M198.963 31.247C199.193 31.5624 199.193 31.9389 198.873 32.2238C197.291 33.6278 195.63 34.4113 193.818 34.7979C189.145 35.795 184.421 32.997 184.421 27.8182V25.4171V16.3211H181.328C180.868 16.3211 180.558 16.0464 180.558 15.6191V11.9868C180.558 11.5697 180.868 11.2848 181.328 11.2848H184.421V6.66562C184.421 6.24846 184.671 5.94323 185.111 5.69905L189.785 3.61329C190.226 3.38945 190.476 3.89817 190.476 4.31532V11.295H191.657H195.23C195.69 11.295 195.99 11.5697 195.99 11.997V15.6293C195.99 16.0464 195.68 16.3313 195.23 16.3313H190.476V26.9839C190.546 28.0421 191.006 30.0057 193.558 29.1104C194.279 28.856 194.939 28.4796 195.58 28.0421C195.99 27.7674 196.3 27.8182 196.581 28.1845L198.963 31.247Z" fill="white"/>
<path d="M169.719 29.2533C166.286 29.2533 163.884 26.5164 163.884 22.8943C163.884 19.2722 166.296 16.5352 169.719 16.5352C171.8 16.5352 173.151 17.4306 174.442 18.6108C174.813 18.9364 175.133 18.9873 175.463 18.6617L178.286 15.8841C178.566 15.5992 178.606 15.2227 178.336 14.8972C176.204 12.4044 173.101 10.7969 169.578 10.7969C163.043 10.7969 157.999 16.1181 157.999 22.9044C157.999 29.6908 163.053 35.012 169.578 35.012C173.191 35.012 176.344 33.4146 178.476 30.9117C178.756 30.5861 178.706 30.2097 178.426 29.9248L175.603 27.1879C175.283 26.8623 174.953 26.8623 174.583 27.1879C173.292 28.3579 171.9 29.2533 169.719 29.2533Z" fill="white"/>
<path d="M11.7196 29.2533C8.28677 29.2533 5.88481 26.5164 5.88481 22.8943C5.88481 19.2722 8.29678 16.5353 11.7196 16.5353C13.8013 16.5353 15.1524 17.4306 16.4434 18.6108C16.8137 18.9364 17.134 18.9873 17.4643 18.6617L20.2866 15.8841C20.5668 15.5992 20.6068 15.2228 20.3366 14.8972C18.2049 12.4044 15.1023 10.7969 11.5795 10.7969C5.05413 10.7867 0 16.1079 0 22.8943C0 29.6806 5.05413 35.0018 11.5795 35.0018C15.1924 35.0018 18.345 33.4044 20.4767 30.9015C20.757 30.576 20.7069 30.1995 20.4267 29.9146L17.6044 27.1777C17.2841 26.8521 16.9539 26.8521 16.5836 27.1777C15.2925 28.3579 13.9014 29.2533 11.7196 29.2533Z" fill="white"/>
<path d="M33.5875 10.7852C27.0521 10.7852 21.8179 16.1064 21.8179 22.8927C21.8179 29.6791 27.0521 35.0003 33.5875 35.0003C40.1228 35.0003 45.3571 29.6791 45.3571 22.8927C45.3571 16.1064 40.1128 10.7852 33.5875 10.7852ZM33.5875 29.2517C30.2948 29.2517 27.7027 26.6166 27.7027 22.8927C27.7027 19.1689 30.2948 16.5337 33.5875 16.5337C36.8301 16.5337 39.4723 19.1689 39.4723 22.8927C39.4723 26.6166 36.8301 29.2517 33.5875 29.2517Z" fill="white"/>
<path d="M48.5596 12.0067V33.6782C48.5596 34.1056 48.8398 34.3803 49.2501 34.3803H53.974C54.3943 34.3803 54.6646 34.0954 54.6646 33.6782V12.0067C54.6646 11.5794 54.3843 11.3047 53.974 11.3047H49.2501C48.8398 11.3047 48.5596 11.5896 48.5596 12.0067Z" fill="white"/>
<path d="M71.1781 10.7852C67.8854 10.7852 65.4834 12.6166 63.9922 15.0686V15.0177L63.812 12.0061C63.762 11.5788 63.5318 11.3041 63.1215 11.3041H58.5778C58.1574 11.3041 57.8872 11.5889 57.8872 12.0061V33.6776C57.8872 34.1049 58.1674 34.3796 58.5778 34.3796H63.3016C63.722 34.3796 63.9922 34.0947 63.9922 33.6776V21.0511C63.9922 19.9625 65.5635 16.5337 68.9963 16.5337C71.2181 16.5337 73.2598 17.8564 73.2598 21.6718V33.6776C73.2598 34.1049 73.54 34.3796 73.9503 34.3796H78.6742C79.0945 34.3796 79.3648 34.0947 79.3648 33.6776V20.5323C79.3748 14.3666 75.8119 10.7852 71.1781 10.7852Z" fill="white"/>
<path d="M105.136 0H100.412C99.9918 0 99.7216 0.284884 99.7216 0.702035V13.7965C98.0402 12.0058 95.8184 10.7849 93.1362 10.7849C86.791 10.7849 82.1572 16.157 82.1572 22.8924C82.1572 29.6279 86.791 35 93.1362 35C96.0986 35 98.3705 33.6366 99.9918 31.7035L100.182 33.6773C100.232 34.1046 100.462 34.3794 100.873 34.3794H105.136C105.556 34.3794 105.827 34.0945 105.827 33.6773V0.702035C105.827 0.284884 105.546 0 105.136 0ZM93.8768 29.343C90.494 29.343 88.042 26.5654 88.042 22.8416C88.042 19.1686 90.494 16.4317 93.8768 16.4317C97.2095 16.4317 99.6715 19.3517 99.6715 22.8416C99.6615 26.3314 97.2095 29.343 93.8768 29.343Z" fill="white"/>
<path d="M109.079 12.0067V33.6782C109.079 34.1056 109.359 34.3803 109.77 34.3803H114.494C114.914 34.3803 115.184 34.0954 115.184 33.6782V12.0067C115.184 11.5794 114.904 11.3047 114.494 11.3047H109.77C109.359 11.3047 109.079 11.5896 109.079 12.0067Z" fill="white"/>
<path d="M133.299 11.8754C132.648 11.3056 131.537 10.7969 130.236 10.7969C127.504 10.7969 125.653 12.3536 124.442 14.5614L124.262 12.0178C124.211 11.5905 123.981 11.3158 123.571 11.3158H119.077C118.657 11.3158 118.387 11.6007 118.387 12.0178V33.6791C118.387 34.1065 118.667 34.3812 119.077 34.3812H123.801C124.221 34.3812 124.492 34.0963 124.492 33.6791V21.4291C124.492 18.6007 126.343 16.4335 129.216 16.4335C130.096 16.4335 130.657 16.6166 131.117 16.7591C131.577 16.9015 131.948 16.81 132.138 16.2911L133.529 12.8012C133.669 12.4858 133.669 12.1501 133.299 11.8754Z" fill="white"/>
<path d="M155.527 22.3738C155.527 16.1064 151.314 10.7852 144.728 10.7852C138.153 10.7852 133.289 16.1064 133.289 22.8927C133.289 29.6791 138.153 35.0003 145.239 35.0003C148.532 35.0003 151.494 33.6776 153.676 31.4697C154.046 31.0933 154.046 30.7677 153.726 30.432L151.684 28.4072C151.364 28.0817 151.084 28.0817 150.663 28.3564C149.092 29.4857 147.651 29.9538 145.849 29.9538C142.286 29.9538 139.965 28.2139 139.364 25.1514H153.916C155.297 25.1514 155.527 24.2052 155.527 22.3738ZM139.264 21.102C139.774 17.8564 141.996 16.0657 144.778 16.0657C147.511 16.0657 149.692 17.8564 150.103 21.102H139.264Z" fill="white"/>
<path d="M112.142 6.87791C113.993 6.87791 115.474 5.32122 115.474 3.43895C115.474 1.55669 113.993 0 112.142 0C110.24 0 108.759 1.55669 108.759 3.43895C108.759 5.32122 110.24 6.87791 112.142 6.87791Z" fill="white"/>
<path d="M51.622 6.87791C53.4735 6.87791 54.9547 5.32122 54.9547 3.43895C54.9547 1.55669 53.4735 0 51.622 0C49.7205 0 48.2393 1.55669 48.2393 3.43895C48.2393 5.32122 49.7205 6.87791 51.622 6.87791Z" fill="white"/>
</g>
<defs>
<clipPath id="clip0_7185_3157">
<rect width="208" height="35" fill="white"/>
</clipPath>
</defs>
</svg>
