<svg width="72" height="35" viewBox="0 0 72 35" fill="none" xmlns="http://www.w3.org/2000/svg">
<g clip-path="url(#clip0_7185_3197)">
<path fill-rule="evenodd" clip-rule="evenodd" d="M40.0773 22.8945C40.2219 22.8945 40.3632 22.9228 40.5012 22.9793C40.6391 23.0366 40.7468 23.1177 40.8233 23.2233C40.9006 23.3289 40.9387 23.4391 40.9387 23.5541C40.9387 23.6673 40.901 23.7766 40.8245 23.8814C40.7494 23.9865 40.6425 24.0678 40.506 24.1255C40.3752 24.1826 40.2272 24.2127 40.0766 24.2127C39.9259 24.2127 39.7779 24.1826 39.6471 24.1255C39.5122 24.0691 39.4011 23.9844 39.3272 23.8814C39.2525 23.7817 39.2132 23.6689 39.2129 23.5541C39.2129 23.4391 39.2517 23.3289 39.3283 23.2233C39.4063 23.1174 39.514 23.0366 39.6519 22.9793C39.7903 22.9228 39.9319 22.8945 40.0773 22.8945ZM40.0773 23.0038C39.9552 23.0038 39.8376 23.0273 39.7233 23.075C39.6096 23.1214 39.516 23.1919 39.4537 23.2781C39.3899 23.3613 39.3562 23.4558 39.3559 23.5522C39.3556 23.6486 39.3889 23.7433 39.4522 23.8266C39.5158 23.9139 39.6046 23.982 39.7189 24.0306C39.8339 24.0791 39.9523 24.1034 40.0773 24.1034C40.2016 24.1034 40.3207 24.0791 40.435 24.0306C40.55 23.982 40.638 23.9139 40.7017 23.8266C40.7645 23.7396 40.7963 23.649 40.7963 23.5543C40.7963 23.4583 40.7645 23.3668 40.7002 23.2781C40.6377 23.192 40.5441 23.1215 40.4305 23.075C40.3225 23.029 40.201 23.0045 40.0773 23.0038ZM39.6978 23.9184V23.2092H40.017C40.1261 23.2092 40.2049 23.2154 40.2534 23.2287C40.3012 23.241 40.3423 23.2652 40.3702 23.2973C40.3998 23.3298 40.4143 23.3645 40.4143 23.4013C40.4146 23.4264 40.4083 23.4513 40.3957 23.4745C40.3832 23.4978 40.3648 23.5189 40.3414 23.5365C40.2903 23.5761 40.2214 23.5993 40.1487 23.6012C40.182 23.6117 40.2079 23.6241 40.2275 23.6388C40.2652 23.6668 40.3107 23.7136 40.3647 23.7797L40.4782 23.9184H40.2948L40.213 23.8066C40.1479 23.7187 40.0962 23.6636 40.0562 23.6416C40.0288 23.6252 39.9882 23.6173 39.9356 23.6173H39.8483V23.9184H39.6978ZM39.848 23.5193H40.03C40.1165 23.5193 40.1761 23.5089 40.2075 23.4894C40.2229 23.4799 40.2352 23.4679 40.2435 23.4543C40.2518 23.4406 40.2558 23.4256 40.2552 23.4106C40.2548 23.3901 40.2464 23.3703 40.2309 23.3536C40.2155 23.3369 40.1938 23.3242 40.1687 23.3171C40.1413 23.3089 40.0921 23.3047 40.0177 23.3047H39.848V23.5193Z" fill="white"/>
<path fill-rule="evenodd" clip-rule="evenodd" d="M51.3831 34.4609C48.0557 32.4842 45.9037 28.6064 45.9037 24.503C45.9037 20.3748 48.0061 16.6971 51.3335 14.6953H7.29838L3.14502 34.4609H51.3831Z" fill="white"/>
<path fill-rule="evenodd" clip-rule="evenodd" d="M67.4469 23.6032C66.9716 18.699 62.718 14.8711 57.8141 14.8711C53.1603 14.8711 49.3077 17.9988 48.3315 22.3519C48.3315 22.3519 49.3572 23.3776 52.685 23.3776C55.5878 23.4778 58.1392 21.5012 61.8924 21.5012C64.7948 21.5012 66.3206 22.8775 67.4469 23.6032Z" fill="white"/>
<path fill-rule="evenodd" clip-rule="evenodd" d="M67.1716 26.3771C66.146 25.8016 64.9698 25.3015 62.968 25.3015C59.5155 25.3015 57.3136 27.128 53.5605 27.128C50.158 27.128 48.2313 25.3015 48.2313 25.3015C48.6566 30.1555 52.81 33.9334 57.8141 33.9334C62.4424 33.9334 66.3206 30.8057 67.1716 26.3771ZM61.5909 13.073L64.4249 0H68.1511L65.2786 13.073H61.5909ZM17.841 0C19.5491 0 20.7523 0.1535 21.4121 0.652096C22.3827 1.41885 22.7322 2.64537 22.3439 4.29392C22.0332 5.82743 21.1791 7.28439 20.0147 8.01268C18.7723 8.77943 17.6468 8.74097 16.0548 8.74097H12.3287L11.3969 13.073H7.67041L10.504 0H17.841ZM13.5707 3.06703L13.0274 5.59737H15.9387C17.5691 5.59737 18.229 5.8659 18.5397 4.33239C18.8504 3.02893 18.2293 3.0674 16.3659 3.0674L13.5707 3.06703ZM26.886 4.94564H34.2229L33.5242 8.08924H26.2261C25.7993 9.92939 25.7216 9.81473 27.8954 9.81473H33.6018L32.9031 13.0734H27.2351C25.9154 13.0734 23.897 13.1118 22.9264 12.3066C21.762 11.3863 22.1112 9.58466 22.7326 6.78579C23.7805 1.87861 24.5568 0 29.5646 0H35.7756L35.1158 3.06703H29.3316C27.1967 3.06703 27.3516 2.87543 26.886 4.94564ZM44.0831 0C45.83 0 46.9944 0.1535 47.6546 0.652096C48.6248 1.41885 48.9744 2.64537 48.6248 4.29392C48.276 5.82743 47.4212 7.28439 46.2957 8.01268C45.0533 8.77943 43.8885 8.74097 42.3362 8.74097H38.6093L37.6391 13.073H33.9122L36.785 0H44.0831ZM39.8128 3.06703L39.2695 5.59737H42.22C43.8116 5.59737 44.4718 5.8659 44.8206 4.33239C45.0921 3.02893 44.4718 3.0674 42.608 3.0674L39.8128 3.06703ZM55.5737 3.22053C54.176 3.22053 53.5553 3.10513 53.3611 4.06385C53.1285 4.98411 53.7107 4.94564 54.8362 4.94564H58.6016C61.9789 4.94564 61.9016 7.20745 61.4748 9.16263C60.8926 11.923 58.7961 13.073 55.8068 13.073H47.8877L48.5864 9.89092H55.458C56.855 9.89092 57.4764 10.0829 57.709 9.0476C57.9424 8.01268 57.321 8.12771 56.0402 8.12771H52.1187C49.4408 8.12771 49.0909 6.28756 49.5961 4.02576C50.1395 1.45732 52.0414 0.000369675 55.0692 0.000369675H63.1437L62.445 3.2209L55.5737 3.22053Z" fill="white"/>
</g>
<defs>
<clipPath id="clip0_7185_3197">
<rect width="71.2963" height="35" fill="white"/>
</clipPath>
</defs>
</svg>
