<svg width="126" height="28" viewBox="0 0 126 28" fill="none" xmlns="http://www.w3.org/2000/svg">
<g clip-path="url(#clip0_7185_3225)">
<mask id="mask0_7185_3225" style="mask-type:luminance" maskUnits="userSpaceOnUse" x="0" y="0" width="126" height="28">
<path d="M125.117 0H0V28H125.117V0Z" fill="white"/>
</mask>
<g mask="url(#mask0_7185_3225)">
<path fill-rule="evenodd" clip-rule="evenodd" d="M32.4958 0C23.8071 0 17.5512 5.77441 17.5512 13.8586C17.5512 21.9428 23.6333 27.8821 32.1482 27.8821C38.0566 27.8821 42.401 25.7373 45.1814 21.4479L38.7517 18.6431C37.8827 20.2929 35.2762 21.6128 32.3221 21.6128C28.3252 21.6128 25.8923 19.798 25.1973 16.1683H46.3977C46.3977 16.1683 46.5716 15.1785 46.5716 14.0235C46.5716 5.77441 40.837 0 32.4958 0ZM25.3711 10.8889C26.2399 7.58923 28.6727 5.93939 32.4958 5.93939C36.3188 5.93939 38.9255 7.9192 39.0992 10.8889H25.3711ZM63.6014 19.138L56.3028 0.989899H47.6141L59.257 26.8923H67.772L79.4149 0.989899H71.0737L63.6014 19.138ZM83.5855 0.989899H91.0577V26.8923H83.5855V0.989899ZM114.691 13.8586L124.596 0.989899H115.734L110.173 8.57913L104.612 0.989899H95.5759L105.481 13.8586L95.0545 26.8923H103.917L109.999 18.9731L116.081 26.8923H125.117L114.691 13.8586ZM7.47229 26.8923H0V0.824916H17.8987L15.1183 7.09428H7.47229V26.8923Z" fill="white"/>
</g>
</g>
<defs>
<clipPath id="clip0_7185_3225">
<rect width="126" height="28" fill="white"/>
</clipPath>
</defs>
</svg>
