<svg width="80" height="88" viewBox="0 0 80 88" fill="none" xmlns="http://www.w3.org/2000/svg">
<path style="transform: scale(0.75) translateX(10px)" d="M52.3664 27.6341C52.0566 27.3217 51.6879 27.0737 51.2817 26.9044C50.8755 26.7352 50.4398 26.6481 49.9998 26.6481C49.5597 26.6481 49.1241 26.7352 48.7179 26.9044C48.3117 27.0737 47.943 27.3217 47.6331 27.6341L39.9998 35.3008L32.3664 27.6341C31.7388 27.0064 30.8874 26.6538 29.9998 26.6538C29.1121 26.6538 28.2608 27.0064 27.6331 27.6341C27.0054 28.2618 26.6528 29.1131 26.6528 30.0008C26.6528 30.8884 27.0054 31.7397 27.6331 32.3674L35.2998 40.0008L27.6331 47.6341C27.3207 47.944 27.0727 48.3126 26.9035 48.7188C26.7342 49.125 26.6471 49.5607 26.6471 50.0008C26.6471 50.4408 26.7342 50.8765 26.9035 51.2827C27.0727 51.6889 27.3207 52.0575 27.6331 52.3674C27.943 52.6798 28.3117 52.9278 28.7179 53.0971C29.1241 53.2663 29.5597 53.3534 29.9998 53.3534C30.4398 53.3534 30.8755 53.2663 31.2817 53.0971C31.6879 52.9278 32.0566 52.6798 32.3664 52.3674L39.9998 44.7008L47.6331 52.3674C47.943 52.6798 48.3117 52.9278 48.7179 53.0971C49.1241 53.2663 49.5597 53.3534 49.9998 53.3534C50.4398 53.3534 50.8755 53.2663 51.2817 53.0971C51.6879 52.9278 52.0566 52.6798 52.3664 52.3674C52.6789 52.0575 52.9268 51.6889 53.0961 51.2827C53.2653 50.8765 53.3524 50.4408 53.3524 50.0008C53.3524 49.5607 53.2653 49.125 53.0961 48.7188C52.9268 48.3126 52.6789 47.944 52.3664 47.6341L44.6998 40.0008L52.3664 32.3674C52.6789 32.0575 52.9268 31.6889 53.0961 31.2827C53.2653 30.8765 53.3524 30.4408 53.3524 30.0008C53.3524 29.5607 53.2653 29.125 53.0961 28.7188C52.9268 28.3126 52.6789 27.944 52.3664 27.6341ZM63.5664 16.4341C60.4916 13.2504 56.8134 10.711 52.7466 8.96404C48.6798 7.21707 44.3058 6.29753 39.8798 6.25907C35.4538 6.22061 31.0645 7.064 26.968 8.74003C22.8714 10.4161 19.1497 12.8912 16.0199 16.0209C12.8902 19.1507 10.4151 22.8724 8.73905 26.969C7.06302 31.0655 6.21963 35.4548 6.25809 39.8808C6.29656 44.3068 7.2161 48.6808 8.96306 52.7476C10.71 56.8144 13.2494 60.4925 16.4331 63.5674C19.508 66.7511 23.1862 69.2905 27.253 71.0375C31.3198 72.7844 35.6938 73.704 40.1197 73.7424C44.5457 73.7809 48.935 72.9375 53.0316 71.2615C57.1281 69.5854 60.8499 67.1103 63.9796 63.9806C67.1094 60.8508 69.5845 57.1291 71.2605 53.0326C72.9365 48.936 73.7799 44.5467 73.7415 40.1207C73.703 35.6947 72.7835 31.3207 71.0365 27.2539C69.2895 23.1871 66.7501 19.509 63.5664 16.4341ZM58.8664 58.8674C54.5066 63.2321 48.7682 65.9502 42.6291 66.5584C36.4899 67.1667 30.3298 65.6276 25.1982 62.2033C20.0666 58.779 16.281 53.6814 14.4864 47.779C12.6917 41.8766 12.9991 35.5346 15.3562 29.8334C17.7132 24.1322 21.974 19.4246 27.4127 16.5126C32.8515 13.6007 39.1316 12.6645 45.1831 13.8637C51.2347 15.0628 56.6833 18.3231 60.6006 23.089C64.5179 27.8549 66.6616 33.8315 66.6664 40.0008C66.6783 43.505 65.9951 46.9769 64.6562 50.2154C63.3173 53.4538 61.3494 56.3946 58.8664 58.8674Z" fill="white"/>
<path d="M33.1668 63.5H16.8335C15.9052 63.5 15.015 63.8687 14.3586 64.5251C13.7022 65.1815 13.3335 66.0717 13.3335 67V76.3333C13.3335 77.2616 13.7022 78.1518 14.3586 78.8082C15.015 79.4646 15.9052 79.8333 16.8335 79.8333H23.8335V82.1667H19.1668C18.8574 82.1667 18.5607 82.2896 18.3419 82.5084C18.1231 82.7272 18.0002 83.0239 18.0002 83.3333C18.0002 83.6428 18.1231 83.9395 18.3419 84.1583C18.5607 84.3771 18.8574 84.5 19.1668 84.5H30.8335C31.1429 84.5 31.4397 84.3771 31.6585 84.1583C31.8772 83.9395 32.0002 83.6428 32.0002 83.3333C32.0002 83.0239 31.8772 82.7272 31.6585 82.5084C31.4397 82.2896 31.1429 82.1667 30.8335 82.1667H26.1668V79.8333H33.1668C34.0951 79.8333 34.9853 79.4646 35.6417 78.8082C36.2981 78.1518 36.6668 77.2616 36.6668 76.3333V67C36.6668 66.0717 36.2981 65.1815 35.6417 64.5251C34.9853 63.8687 34.0951 63.5 33.1668 63.5ZM34.3335 76.3333C34.3335 76.6428 34.2106 76.9395 33.9918 77.1583C33.773 77.3771 33.4762 77.5 33.1668 77.5H16.8335C16.5241 77.5 16.2273 77.3771 16.0085 77.1583C15.7897 76.9395 15.6668 76.6428 15.6668 76.3333V67C15.6668 66.6906 15.7897 66.3938 16.0085 66.175C16.2273 65.9562 16.5241 65.8333 16.8335 65.8333H33.1668C33.4762 65.8333 33.773 65.9562 33.9918 66.175C34.2106 66.3938 34.3335 66.6906 34.3335 67V76.3333Z" fill="white"/>
<path d="M55.8285 79.0037L55.6535 78.8637C55.5885 78.8195 55.5178 78.7842 55.4435 78.7587L55.2335 78.6654C55.0443 78.6258 54.8482 78.6339 54.6629 78.6889C54.4776 78.7439 54.3088 78.844 54.1718 78.9804C54.0688 79.0938 53.9859 79.224 53.9268 79.3654C53.8385 79.5779 53.8151 79.8119 53.8595 80.0377C53.9038 80.2636 54.014 80.4713 54.1761 80.6347C54.3383 80.798 54.5451 80.9098 54.7706 80.9559C54.9961 81.002 55.2303 80.9804 55.4435 80.8937C55.5829 80.8261 55.7124 80.7397 55.8285 80.637C55.9904 80.473 56.1 80.2646 56.1436 80.0383C56.1872 79.812 56.1628 79.5778 56.0735 79.3654C56.0153 79.2305 55.9322 79.1078 55.8285 79.0037ZM59.6668 62.332H50.3335C49.4052 62.332 48.515 62.7008 47.8586 63.3572C47.2022 64.0135 46.8335 64.9038 46.8335 65.832V82.1654C46.8335 83.0936 47.2022 83.9839 47.8586 84.6402C48.515 85.2966 49.4052 85.6654 50.3335 85.6654H59.6668C60.5951 85.6654 61.4853 85.2966 62.1417 84.6402C62.7981 83.9839 63.1668 83.0936 63.1668 82.1654V65.832C63.1668 64.9038 62.7981 64.0135 62.1417 63.3572C61.4853 62.7008 60.5951 62.332 59.6668 62.332ZM60.8335 82.1654C60.8335 82.4748 60.7106 82.7715 60.4918 82.9903C60.273 83.2091 59.9762 83.332 59.6668 83.332H50.3335C50.0241 83.332 49.7273 83.2091 49.5085 82.9903C49.2897 82.7715 49.1668 82.4748 49.1668 82.1654V65.832C49.1668 65.5226 49.2897 65.2259 49.5085 65.0071C49.7273 64.7883 50.0241 64.6654 50.3335 64.6654H59.6668C59.9762 64.6654 60.273 64.7883 60.4918 65.0071C60.7106 65.2259 60.8335 65.5226 60.8335 65.832V82.1654Z" fill="white"/>
</svg>
