<svg width="80" height="88" viewBox="0 0 80 88" fill="none" xmlns="http://www.w3.org/2000/svg">
<path d="M45.5735 21.2412L35.206 31.6329L31.2185 27.6454C31.0019 27.3924 30.7353 27.1869 30.4354 27.0419C30.1356 26.8968 29.809 26.8153 29.4762 26.8024C29.1434 26.7896 28.8115 26.8457 28.5014 26.9672C28.1913 27.0887 27.9096 27.2729 27.6741 27.5085C27.4386 27.744 27.2543 28.0256 27.1328 28.3358C27.0113 28.6459 26.9552 28.9778 26.9681 29.3106C26.9809 29.6434 27.0624 29.97 27.2075 30.2698C27.3526 30.5696 27.558 30.8362 27.811 31.0529L33.4902 36.7562C33.716 36.9802 33.9838 37.1574 34.2782 37.2776C34.5727 37.3979 34.888 37.4589 35.206 37.457C35.84 37.4544 36.4475 37.2027 36.8977 36.7562L48.981 24.6729C49.2075 24.4482 49.3873 24.1809 49.51 23.8864C49.6327 23.5919 49.6959 23.2761 49.6959 22.957C49.6959 22.638 49.6327 22.3221 49.51 22.0276C49.3873 21.7331 49.2075 21.4659 48.981 21.2412C48.5282 20.7911 47.9157 20.5385 47.2773 20.5385C46.6388 20.5385 46.0263 20.7911 45.5735 21.2412ZM39.0002 4.83203C34.2205 4.83203 29.5481 6.24938 25.5739 8.90485C21.5997 11.5603 18.5022 15.3346 16.6731 19.7505C14.844 24.1664 14.3654 29.0255 15.2979 33.7134C16.2303 38.4013 18.532 42.7073 21.9118 46.0871C25.2915 49.4669 29.5976 51.7685 34.2855 52.701C38.9734 53.6335 43.8325 53.1549 48.2484 51.3258C52.6642 49.4967 56.4386 46.3992 59.094 42.425C61.7495 38.4508 63.1668 33.7784 63.1668 28.9987C63.1668 25.8251 62.5418 22.6826 61.3273 19.7505C60.1128 16.8185 58.3327 14.1544 56.0886 11.9103C53.8445 9.6662 51.1804 7.8861 48.2484 6.67161C45.3163 5.45712 42.1738 4.83203 39.0002 4.83203ZM39.0002 48.332C35.1764 48.332 31.4385 47.1982 28.2591 45.0738C25.0798 42.9494 22.6018 39.93 21.1385 36.3972C19.6752 32.8645 19.2923 28.9773 20.0383 25.227C20.7843 21.4767 22.6256 18.0318 25.3294 15.328C28.0333 12.6242 31.4781 10.7828 35.2284 10.0368C38.9787 9.29087 42.866 9.67373 46.3987 11.137C49.9314 12.6003 52.9509 15.0783 55.0753 18.2577C57.1996 21.437 58.3335 25.1749 58.3335 28.9987C58.3335 34.1262 56.2966 39.0437 52.6709 42.6694C49.0452 46.2951 44.1277 48.332 39.0002 48.332Z" fill="white"/>
<path d="M33.1668 63.5H16.8335C15.9052 63.5 15.015 63.8687 14.3586 64.5251C13.7022 65.1815 13.3335 66.0717 13.3335 67V76.3333C13.3335 77.2616 13.7022 78.1518 14.3586 78.8082C15.015 79.4646 15.9052 79.8333 16.8335 79.8333H23.8335V82.1667H19.1668C18.8574 82.1667 18.5607 82.2896 18.3419 82.5084C18.1231 82.7272 18.0002 83.0239 18.0002 83.3333C18.0002 83.6428 18.1231 83.9395 18.3419 84.1583C18.5607 84.3771 18.8574 84.5 19.1668 84.5H30.8335C31.1429 84.5 31.4397 84.3771 31.6585 84.1583C31.8772 83.9395 32.0002 83.6428 32.0002 83.3333C32.0002 83.0239 31.8772 82.7272 31.6585 82.5084C31.4397 82.2896 31.1429 82.1667 30.8335 82.1667H26.1668V79.8333H33.1668C34.0951 79.8333 34.9853 79.4646 35.6417 78.8082C36.2981 78.1518 36.6668 77.2616 36.6668 76.3333V67C36.6668 66.0717 36.2981 65.1815 35.6417 64.5251C34.9853 63.8687 34.0951 63.5 33.1668 63.5ZM34.3335 76.3333C34.3335 76.6428 34.2106 76.9395 33.9918 77.1583C33.773 77.3771 33.4762 77.5 33.1668 77.5H16.8335C16.5241 77.5 16.2273 77.3771 16.0085 77.1583C15.7897 76.9395 15.6668 76.6428 15.6668 76.3333V67C15.6668 66.6906 15.7897 66.3938 16.0085 66.175C16.2273 65.9562 16.5241 65.8333 16.8335 65.8333H33.1668C33.4762 65.8333 33.773 65.9562 33.9918 66.175C34.2106 66.3938 34.3335 66.6906 34.3335 67V76.3333Z" fill="white"/>
<path d="M55.8285 79.0037L55.6535 78.8637C55.5885 78.8195 55.5178 78.7842 55.4435 78.7587L55.2335 78.6654C55.0443 78.6258 54.8482 78.6339 54.6629 78.6889C54.4776 78.7439 54.3088 78.844 54.1718 78.9804C54.0688 79.0938 53.9859 79.224 53.9268 79.3654C53.8385 79.5779 53.8151 79.8119 53.8595 80.0377C53.9038 80.2636 54.014 80.4713 54.1761 80.6347C54.3383 80.798 54.5451 80.9098 54.7706 80.9559C54.9961 81.002 55.2303 80.9804 55.4435 80.8937C55.5829 80.8261 55.7124 80.7397 55.8285 80.637C55.9904 80.473 56.1 80.2646 56.1436 80.0383C56.1872 79.812 56.1628 79.5778 56.0735 79.3654C56.0153 79.2305 55.9322 79.1078 55.8285 79.0037ZM59.6668 62.332H50.3335C49.4052 62.332 48.515 62.7008 47.8586 63.3572C47.2022 64.0135 46.8335 64.9038 46.8335 65.832V82.1654C46.8335 83.0936 47.2022 83.9839 47.8586 84.6402C48.515 85.2966 49.4052 85.6654 50.3335 85.6654H59.6668C60.5951 85.6654 61.4853 85.2966 62.1417 84.6402C62.7981 83.9839 63.1668 83.0936 63.1668 82.1654V65.832C63.1668 64.9038 62.7981 64.0135 62.1417 63.3572C61.4853 62.7008 60.5951 62.332 59.6668 62.332ZM60.8335 82.1654C60.8335 82.4748 60.7106 82.7715 60.4918 82.9903C60.273 83.2091 59.9762 83.332 59.6668 83.332H50.3335C50.0241 83.332 49.7273 83.2091 49.5085 82.9903C49.2897 82.7715 49.1668 82.4748 49.1668 82.1654V65.832C49.1668 65.5226 49.2897 65.2259 49.5085 65.0071C49.7273 64.7883 50.0241 64.6654 50.3335 64.6654H59.6668C59.9762 64.6654 60.273 64.7883 60.4918 65.0071C60.7106 65.2259 60.8335 65.5226 60.8335 65.832V82.1654Z" fill="white"/>
</svg>
