<svg width="98" height="80" viewBox="0 0 98 80" fill="none" xmlns="http://www.w3.org/2000/svg">
<g clip-path="url(#clip0_7177_4348)">
<path d="M52.3667 42.3668C55.6346 39.7956 58.02 36.2698 59.1908 32.2799C60.3616 28.29 60.2597 24.0343 58.8993 20.105C57.5388 16.1757 54.9875 12.7681 51.6002 10.3563C48.2129 7.94449 44.1582 6.64844 40 6.64844C35.8418 6.64844 31.787 7.94449 28.3998 10.3563C25.0125 12.7681 22.4611 16.1757 21.1007 20.105C19.7403 24.0343 19.6384 28.29 20.8092 32.2799C21.98 36.2698 24.3653 39.7956 27.6333 42.3668C22.0336 44.6102 17.1476 48.3313 13.4963 53.1331C9.84498 57.935 7.5652 63.6378 6.89999 69.6334C6.85184 70.0712 6.89038 70.5141 7.01341 70.937C7.13644 71.3598 7.34155 71.7543 7.61703 72.0978C8.17339 72.7917 8.9826 73.2362 9.86666 73.3334C10.7507 73.4307 11.6372 73.1727 12.3311 72.6164C13.025 72.06 13.4694 71.2508 13.5667 70.3668C14.2986 63.8507 17.4056 57.8328 22.2941 53.4627C27.1825 49.0927 33.5097 46.6769 40.0667 46.6769C46.6237 46.6769 52.9508 49.0927 57.8393 53.4627C62.7277 57.8328 65.8347 63.8507 66.5667 70.3668C66.6573 71.1858 67.0481 71.9423 67.6637 72.4901C68.2793 73.038 69.0759 73.3384 69.9 73.3334H70.2667C71.1404 73.2329 71.9391 72.7911 72.4885 72.1043C73.038 71.4174 73.2937 70.5413 73.2 69.6668C72.5316 63.6541 70.2396 57.9367 66.5695 53.1274C62.8994 48.3182 57.9897 44.5984 52.3667 42.3668ZM40 40.0001C37.3629 40.0001 34.785 39.2181 32.5924 37.753C30.3997 36.2879 28.6908 34.2056 27.6816 31.7692C26.6724 29.3329 26.4084 26.652 26.9229 24.0656C27.4373 21.4791 28.7072 19.1034 30.5719 17.2387C32.4366 15.374 34.8124 14.1041 37.3988 13.5896C39.9852 13.0752 42.6661 13.3392 45.1024 14.3484C47.5388 15.3575 49.6212 17.0665 51.0863 19.2592C52.5513 21.4518 53.3333 24.0297 53.3333 26.6668C53.3333 30.203 51.9286 33.5944 49.4281 36.0949C46.9276 38.5953 43.5362 40.0001 40 40.0001Z" fill="white"/>
<path d="M90.0652 27.8148C89.9257 27.6742 89.7598 27.5626 89.577 27.4865C89.3942 27.4103 89.1982 27.3711 89.0002 27.3711C88.8022 27.3711 88.6061 27.4103 88.4233 27.4865C88.2405 27.5626 88.0746 27.6742 87.9352 27.8148L76.7602 39.0048L72.0652 34.2948C71.9204 34.1549 71.7495 34.045 71.5622 33.9712C71.3749 33.8974 71.1749 33.8612 70.9737 33.8646C70.7724 33.8681 70.5738 33.9112 70.3891 33.9915C70.2045 34.0717 70.0375 34.1875 69.8977 34.3323C69.7578 34.4771 69.6478 34.648 69.574 34.8353C69.5002 35.0226 69.464 35.2225 69.4675 35.4238C69.471 35.6251 69.5141 35.8237 69.5943 36.0083C69.6746 36.1929 69.7904 36.3599 69.9352 36.4998L75.6952 42.2598C75.8346 42.4004 76.0005 42.512 76.1833 42.5881C76.3661 42.6643 76.5622 42.7035 76.7602 42.7035C76.9582 42.7035 77.1542 42.6643 77.337 42.5881C77.5198 42.512 77.6857 42.4004 77.8252 42.2598L90.0652 30.0198C90.2174 29.8793 90.3389 29.7089 90.4221 29.5191C90.5052 29.3294 90.5481 29.1244 90.5481 28.9173C90.5481 28.7101 90.5052 28.5052 90.4221 28.3155C90.3389 28.1257 90.2174 27.9553 90.0652 27.8148Z" fill="white"/>
</g>
<defs>
<clipPath id="clip0_7177_4348">
<rect width="98" height="80" fill="white"/>
</clipPath>
</defs>
</svg>
