<svg width="94" height="80" viewBox="0 0 94 80" fill="none" xmlns="http://www.w3.org/2000/svg">
<g clip-path="url(#clip0_7177_4349)">
<path d="M52.3667 42.3668C55.6346 39.7956 58.02 36.2698 59.1908 32.2799C60.3616 28.29 60.2597 24.0343 58.8993 20.105C57.5388 16.1757 54.9875 12.7681 51.6002 10.3563C48.2129 7.94449 44.1582 6.64844 40 6.64844C35.8418 6.64844 31.787 7.94449 28.3998 10.3563C25.0125 12.7681 22.4611 16.1757 21.1007 20.105C19.7403 24.0343 19.6384 28.29 20.8092 32.2799C21.98 36.2698 24.3653 39.7956 27.6333 42.3668C22.0336 44.6102 17.1476 48.3313 13.4963 53.1331C9.84498 57.935 7.5652 63.6378 6.89999 69.6334C6.85184 70.0712 6.89038 70.5141 7.01341 70.937C7.13644 71.3598 7.34155 71.7543 7.61703 72.0978C8.17339 72.7917 8.9826 73.2362 9.86666 73.3334C10.7507 73.4307 11.6372 73.1727 12.3311 72.6164C13.025 72.06 13.4694 71.2508 13.5667 70.3668C14.2986 63.8507 17.4056 57.8328 22.2941 53.4627C27.1825 49.0927 33.5097 46.6769 40.0667 46.6769C46.6237 46.6769 52.9508 49.0927 57.8393 53.4627C62.7277 57.8328 65.8347 63.8507 66.5667 70.3668C66.6573 71.1858 67.0481 71.9423 67.6637 72.4901C68.2793 73.038 69.0759 73.3384 69.9 73.3334H70.2667C71.1404 73.2329 71.9391 72.7911 72.4885 72.1043C73.038 71.4174 73.2937 70.5413 73.2 69.6668C72.5316 63.6541 70.2396 57.9367 66.5695 53.1274C62.8994 48.3182 57.9897 44.5984 52.3667 42.3668ZM40 40.0001C37.3629 40.0001 34.785 39.2181 32.5924 37.753C30.3997 36.2879 28.6908 34.2056 27.6816 31.7692C26.6724 29.3329 26.4084 26.652 26.9229 24.0656C27.4373 21.4791 28.7072 19.1034 30.5719 17.2387C32.4366 15.374 34.8124 14.1041 37.3988 13.5896C39.9852 13.0752 42.6661 13.3392 45.1024 14.3484C47.5388 15.3575 49.6212 17.0665 51.0863 19.2592C52.5513 21.4518 53.3333 24.0297 53.3333 26.6668C53.3333 30.203 51.9286 33.5944 49.4281 36.0949C46.9276 38.5953 43.5362 40.0001 40 40.0001Z" fill="white"/>
<path d="M81.6448 34.9983L88.9948 27.6599C89.2145 27.4402 89.3379 27.1423 89.3379 26.8316C89.3379 26.5209 89.2145 26.223 88.9948 26.0033C88.7751 25.7836 88.4771 25.6602 88.1664 25.6602C87.8557 25.6602 87.5578 25.7836 87.3381 26.0033L79.9998 33.3533L72.6614 26.0033C72.4417 25.7836 72.1438 25.6602 71.8331 25.6602C71.5224 25.6602 71.2245 25.7836 71.0048 26.0033C70.7851 26.223 70.6617 26.5209 70.6617 26.8316C70.6617 27.1423 70.7851 27.4402 71.0048 27.6599L78.3548 34.9983L71.0048 42.3366C70.8954 42.4451 70.8086 42.5741 70.7494 42.7163C70.6902 42.8584 70.6597 43.0109 70.6597 43.1649C70.6597 43.3189 70.6902 43.4714 70.7494 43.6136C70.8086 43.7558 70.8954 43.8848 71.0048 43.9933C71.1132 44.1026 71.2423 44.1894 71.3844 44.2486C71.5266 44.3079 71.6791 44.3384 71.8331 44.3384C71.9871 44.3384 72.1396 44.3079 72.2818 44.2486C72.4239 44.1894 72.553 44.1026 72.6614 43.9933L79.9998 36.6433L87.3381 43.9933C87.4466 44.1026 87.5756 44.1894 87.7178 44.2486C87.8599 44.3079 88.0124 44.3384 88.1664 44.3384C88.3204 44.3384 88.4729 44.3079 88.6151 44.2486C88.7573 44.1894 88.8863 44.1026 88.9948 43.9933C89.1041 43.8848 89.1909 43.7558 89.2501 43.6136C89.3094 43.4714 89.3399 43.3189 89.3399 43.1649C89.3399 43.0109 89.3094 42.8584 89.2501 42.7163C89.1909 42.5741 89.1041 42.4451 88.9948 42.3366L81.6448 34.9983Z" fill="white"/>
</g>
<defs>
<clipPath id="clip0_7177_4349">
<rect width="94" height="80" fill="white"/>
</clipPath>
</defs>
</svg>
