<svg width="80" height="80" viewBox="0 0 80 80" fill="none" xmlns="http://www.w3.org/2000/svg">
<path d="M67.2666 33.968C64.869 33.5341 62.4365 33.3221 60 33.3346C58.6 33.3346 57.2333 33.3346 55.8666 33.6013C54.1652 31.3309 51.9935 29.4548 49.5 28.1013C51.6418 25.7621 52.8308 22.7062 52.8333 19.5346C52.8333 16.1222 51.4777 12.8495 49.0647 10.4365C46.6518 8.02356 43.3791 6.66797 39.9666 6.66797C36.5542 6.66797 33.2815 8.02356 30.8685 10.4365C28.4555 12.8495 27.1 16.1222 27.1 19.5346C27.1024 22.7062 28.2915 25.7621 30.4333 28.1013C27.9546 29.4618 25.7864 31.3236 24.0666 33.568C22.7666 33.3346 21.4 33.3346 20 33.3346C17.5614 33.3441 15.1288 33.5784 12.7333 34.0346C11.9568 34.1766 11.2558 34.5896 10.7553 35.2C10.2547 35.8104 9.98708 36.5787 9.99996 37.368V64.868C9.99916 65.3577 10.1063 65.8415 10.3137 66.2851C10.5211 66.7288 10.8237 67.1212 11.2 67.4346C11.5739 67.7499 12.0126 67.979 12.4849 68.1058C12.9573 68.2325 13.4518 68.2537 13.9333 68.168C15.928 67.7335 17.9592 67.488 20 67.4346C26.4569 67.4276 32.7738 69.3168 38.1666 72.868L38.6 73.0346C39.0421 73.2265 39.518 73.3285 40 73.3346C40.3181 73.3307 40.6334 73.2744 40.9333 73.168H41.1666L41.6 73.0013C47.0441 69.359 53.4498 67.421 60 67.4346C62.0365 67.4441 64.0677 67.645 66.0666 68.0346C66.5481 68.1204 67.0426 68.0992 67.515 67.9724C67.9874 67.8457 68.426 67.6166 68.8 67.3013C69.1762 66.9879 69.4788 66.5954 69.6862 66.1518C69.8936 65.7082 70.0008 65.2243 70 64.7346V37.2346C69.9971 36.4568 69.7223 35.7044 69.2231 35.1078C68.7239 34.5112 68.0318 34.108 67.2666 33.968ZM40 13.3346C41.5614 13.4494 43.0217 14.1506 44.0875 15.2976C45.1533 16.4445 45.7457 17.9523 45.7457 19.518C45.7457 21.0837 45.1533 22.5914 44.0875 23.7384C43.0217 24.8853 41.5614 25.5866 40 25.7013C38.4385 25.5866 36.9782 24.8853 35.9124 23.7384C34.8466 22.5914 34.2543 21.0837 34.2543 19.518C34.2543 17.9523 34.8466 16.4445 35.9124 15.2976C36.9782 14.1506 38.4385 13.4494 40 13.3346ZM36.6666 64.4346C31.4422 62.0197 25.7555 60.7686 20 60.768C18.9 60.768 17.8 60.768 16.6666 60.9346V40.0013C19.4618 39.6886 22.286 39.7446 25.0666 40.168H25.4333C29.4053 40.898 33.2116 42.3437 36.6666 44.4346V64.4346ZM40 38.668C38.5177 37.8129 36.9811 37.0557 35.4 36.4013H35.2C34.1 35.968 33 35.5346 31.8666 35.2013C34.181 33.3592 37.0422 32.339 40 32.3013C42.9499 32.32 45.8103 33.3165 48.1333 35.1346C45.3036 36.0181 42.5769 37.2026 40 38.668ZM63.3333 60.9346C56.4888 60.2469 49.5848 61.3976 43.3333 64.268V44.268C46.7946 42.2306 50.6033 40.8518 54.5666 40.2013H55.2333C57.9132 39.784 60.636 39.7167 63.3333 40.0013V60.9346Z" fill="white"/>
</svg>
