<svg width="80" height="80" viewBox="0 0 80 80" fill="none" xmlns="http://www.w3.org/2000/svg">
<path d="M71.0665 16.8343L51.0665 10.1677H50.8332C50.678 10.1521 50.5217 10.1521 50.3665 10.1677H49.5998H49.1665H48.9332L29.9998 16.6677L11.0665 10.1677C10.5652 10.0024 10.0319 9.95848 9.5103 10.0396C8.98874 10.1207 8.4939 10.3246 8.06652 10.6343C7.63571 10.9411 7.28407 11.3459 7.04063 11.8154C6.7972 12.2848 6.66896 12.8055 6.66652 13.3343V60.001C6.66471 60.6998 6.88258 61.3815 7.28932 61.9498C7.69607 62.518 8.27111 62.944 8.93318 63.1677L28.9332 69.8343C29.6047 70.0533 30.3284 70.0533 30.9998 69.8343L49.9998 63.501L68.9332 70.001C69.2871 70.049 69.6459 70.049 69.9999 70.001C70.6968 70.0108 71.3771 69.7879 71.9332 69.3677C72.364 69.0609 72.7156 68.6561 72.9591 68.1866C73.2025 67.7172 73.3307 67.1965 73.3332 66.6677V20.001C73.335 19.3022 73.1171 18.6205 72.7104 18.0522C72.3036 17.484 71.7286 17.0579 71.0665 16.8343ZM26.6665 62.0343L13.3332 57.601V17.9677L26.6665 22.401V62.0343ZM46.6665 57.601L33.3332 62.0343V22.401L46.6665 17.9677V57.601ZM66.6665 62.0343L53.3332 57.601V17.9677L66.6665 22.401V62.0343Z" fill="white"/>
</svg>
