<svg width="80" height="80" viewBox="0 0 80 80" fill="none" xmlns="http://www.w3.org/2000/svg">
<path d="M39.9998 63.332C40.6591 63.332 41.3036 63.1365 41.8517 62.7703C42.3999 62.404 42.8271 61.8834 43.0794 61.2743C43.3317 60.6652 43.3977 59.995 43.2691 59.3484C43.1405 58.7018 42.823 58.1078 42.3569 57.6417C41.8907 57.1755 41.2967 56.858 40.6501 56.7294C40.0035 56.6008 39.3333 56.6668 38.7242 56.9191C38.1151 57.1714 37.5945 57.5986 37.2283 58.1468C36.862 58.695 36.6665 59.3394 36.6665 59.9987C36.6665 60.8827 37.0177 61.7306 37.6428 62.3557C38.2679 62.9808 39.1158 63.332 39.9998 63.332ZM56.6665 63.332C57.3258 63.332 57.9702 63.1365 58.5184 62.7703C59.0666 62.404 59.4938 61.8834 59.7461 61.2743C59.9984 60.6652 60.0644 59.995 59.9358 59.3484C59.8072 58.7018 59.4897 58.1078 59.0235 57.6417C58.5574 57.1755 57.9634 56.858 57.3168 56.7294C56.6702 56.6008 56 56.6668 55.3909 56.9191C54.7818 57.1714 54.2612 57.5986 53.8949 58.1468C53.5287 58.695 53.3332 59.3394 53.3332 59.9987C53.3332 60.8827 53.6844 61.7306 54.3095 62.3557C54.9346 62.9808 55.7825 63.332 56.6665 63.332ZM56.6665 49.9987C57.3258 49.9987 57.9702 49.8032 58.5184 49.4369C59.0666 49.0707 59.4938 48.5501 59.7461 47.941C59.9984 47.3319 60.0644 46.6617 59.9358 46.0151C59.8072 45.3685 59.4897 44.7745 59.0235 44.3083C58.5574 43.8422 57.9634 43.5247 57.3168 43.3961C56.6702 43.2675 56 43.3335 55.3909 43.5858C54.7818 43.8381 54.2612 44.2653 53.8949 44.8135C53.5287 45.3616 53.3332 46.0061 53.3332 46.6654C53.3332 47.5494 53.6844 48.3973 54.3095 49.0224C54.9346 49.6475 55.7825 49.9987 56.6665 49.9987ZM39.9998 49.9987C40.6591 49.9987 41.3036 49.8032 41.8517 49.4369C42.3999 49.0707 42.8271 48.5501 43.0794 47.941C43.3317 47.3319 43.3977 46.6617 43.2691 46.0151C43.1405 45.3685 42.823 44.7745 42.3569 44.3083C41.8907 43.8422 41.2967 43.5247 40.6501 43.3961C40.0035 43.2675 39.3333 43.3335 38.7242 43.5858C38.1151 43.8381 37.5945 44.2653 37.2283 44.8135C36.862 45.3616 36.6665 46.0061 36.6665 46.6654C36.6665 47.5494 37.0177 48.3973 37.6428 49.0224C38.2679 49.6475 39.1158 49.9987 39.9998 49.9987ZM63.3332 9.9987H59.9998V6.66536C59.9998 5.78131 59.6487 4.93346 59.0235 4.30834C58.3984 3.68322 57.5506 3.33203 56.6665 3.33203C55.7825 3.33203 54.9346 3.68322 54.3095 4.30834C53.6844 4.93346 53.3332 5.78131 53.3332 6.66536V9.9987H26.6665V6.66536C26.6665 5.78131 26.3153 4.93346 25.6902 4.30834C25.0651 3.68322 24.2172 3.33203 23.3332 3.33203C22.4491 3.33203 21.6013 3.68322 20.9761 4.30834C20.351 4.93346 19.9998 5.78131 19.9998 6.66536V9.9987H16.6665C14.0143 9.9987 11.4708 11.0523 9.59544 12.9276C7.72007 14.803 6.6665 17.3465 6.6665 19.9987V66.6654C6.6665 69.3175 7.72007 71.8611 9.59544 73.7364C11.4708 75.6118 14.0143 76.6654 16.6665 76.6654H63.3332C65.9853 76.6654 68.5289 75.6118 70.4042 73.7364C72.2796 71.8611 73.3332 69.3175 73.3332 66.6654V19.9987C73.3332 17.3465 72.2796 14.803 70.4042 12.9276C68.5289 11.0523 65.9853 9.9987 63.3332 9.9987ZM66.6665 66.6654C66.6665 67.5494 66.3153 68.3973 65.6902 69.0224C65.0651 69.6475 64.2172 69.9987 63.3332 69.9987H16.6665C15.7824 69.9987 14.9346 69.6475 14.3095 69.0224C13.6844 68.3973 13.3332 67.5494 13.3332 66.6654V36.6654H66.6665V66.6654ZM66.6665 29.9987H13.3332V19.9987C13.3332 19.1146 13.6844 18.2668 14.3095 17.6417C14.9346 17.0166 15.7824 16.6654 16.6665 16.6654H19.9998V19.9987C19.9998 20.8828 20.351 21.7306 20.9761 22.3557C21.6013 22.9808 22.4491 23.332 23.3332 23.332C24.2172 23.332 25.0651 22.9808 25.6902 22.3557C26.3153 21.7306 26.6665 20.8828 26.6665 19.9987V16.6654H53.3332V19.9987C53.3332 20.8828 53.6844 21.7306 54.3095 22.3557C54.9346 22.9808 55.7825 23.332 56.6665 23.332C57.5506 23.332 58.3984 22.9808 59.0235 22.3557C59.6487 21.7306 59.9998 20.8828 59.9998 19.9987V16.6654H63.3332C64.2172 16.6654 65.0651 17.0166 65.6902 17.6417C66.3153 18.2668 66.6665 19.1146 66.6665 19.9987V29.9987ZM23.3332 49.9987C23.9924 49.9987 24.6369 49.8032 25.1851 49.4369C25.7332 49.0707 26.1605 48.5501 26.4128 47.941C26.6651 47.3319 26.7311 46.6617 26.6025 46.0151C26.4738 45.3685 26.1564 44.7745 25.6902 44.3083C25.224 43.8422 24.6301 43.5247 23.9835 43.3961C23.3369 43.2675 22.6666 43.3335 22.0576 43.5858C21.4485 43.8381 20.9279 44.2653 20.5616 44.8135C20.1953 45.3616 19.9998 46.0061 19.9998 46.6654C19.9998 47.5494 20.351 48.3973 20.9761 49.0224C21.6013 49.6475 22.4491 49.9987 23.3332 49.9987ZM23.3332 63.332C23.9924 63.332 24.6369 63.1365 25.1851 62.7703C25.7332 62.404 26.1605 61.8834 26.4128 61.2743C26.6651 60.6652 26.7311 59.995 26.6025 59.3484C26.4738 58.7018 26.1564 58.1078 25.6902 57.6417C25.224 57.1755 24.6301 56.858 23.9835 56.7294C23.3369 56.6008 22.6666 56.6668 22.0576 56.9191C21.4485 57.1714 20.9279 57.5986 20.5616 58.1468C20.1953 58.695 19.9998 59.3394 19.9998 59.9987C19.9998 60.8827 20.351 61.7306 20.9761 62.3557C21.6013 62.9808 22.4491 63.332 23.3332 63.332Z" fill="white"/>
</svg>
