<svg width="54" height="54" viewBox="0 0 54 54" fill="none" xmlns="http://www.w3.org/2000/svg">
<path d="M27 24.2997C27.89 24.2997 28.76 24.0358 29.5001 23.5413C30.2401 23.0469 30.8169 22.3441 31.1575 21.5218C31.4981 20.6995 31.5872 19.7947 31.4135 18.9218C31.2399 18.0489 30.8113 17.2471 30.182 16.6177C29.5526 15.9884 28.7508 15.5598 27.8779 15.3862C27.005 15.2125 26.1002 15.3017 25.2779 15.6423C24.4557 15.9828 23.7529 16.5596 23.2584 17.2996C22.7639 18.0397 22.5 18.9097 22.5 19.7997C22.5 20.9932 22.9741 22.1378 23.818 22.9817C24.6619 23.8256 25.8065 24.2997 27 24.2997ZM25.4025 39.8472C25.6117 40.0581 25.8605 40.2255 26.1347 40.3397C26.4089 40.4539 26.703 40.5128 27 40.5128C27.297 40.5128 27.5911 40.4539 27.8653 40.3397C28.1395 40.2255 28.3883 40.0581 28.5975 39.8472L37.8 30.6222C39.9374 28.4859 41.3932 25.7638 41.9834 22.8C42.5735 19.8362 42.2714 16.764 41.1153 13.972C39.9592 11.1799 38.0011 8.79341 35.4886 7.11434C32.976 5.43527 30.0219 4.53906 27 4.53906C23.9781 4.53906 21.024 5.43527 18.5114 7.11434C15.9989 8.79341 14.0408 11.1799 12.8847 13.972C11.7286 16.764 11.4265 19.8362 12.0166 22.8C12.6068 25.7638 14.0626 28.4859 16.2 30.6222L25.4025 39.8472ZM16.2675 18.7647C16.4212 17.1605 16.9313 15.6109 17.7604 14.229C18.5896 12.8471 19.7169 11.6678 21.06 10.7772C22.8245 9.61868 24.8892 9.00142 27 9.00142C29.1108 9.00142 31.1755 9.61868 32.94 10.7772C34.2742 11.6647 35.3951 12.8369 36.2221 14.2093C37.0492 15.5818 37.5618 17.1205 37.7232 18.7147C37.8846 20.309 37.6906 21.9192 37.1554 23.4295C36.6201 24.9399 35.7568 26.3129 34.6275 27.4497L27 35.0772L19.3725 27.4497C18.2419 26.3239 17.3766 24.9602 16.8395 23.4578C16.3023 21.9554 16.1069 20.3521 16.2675 18.7647ZM42.75 44.9997H11.25C10.6533 44.9997 10.081 45.2368 9.65901 45.6587C9.23705 46.0807 9 46.653 9 47.2497C9 47.8464 9.23705 48.4187 9.65901 48.8407C10.081 49.2627 10.6533 49.4997 11.25 49.4997H42.75C43.3467 49.4997 43.919 49.2627 44.341 48.8407C44.7629 48.4187 45 47.8464 45 47.2497C45 46.653 44.7629 46.0807 44.341 45.6587C43.919 45.2368 43.3467 44.9997 42.75 44.9997Z" fill="white"/>
</svg>
