<svg width="80" height="80" viewBox="0 0 80 80" fill="none" xmlns="http://www.w3.org/2000/svg">
<path d="M28.3335 56.6654H19.7137L20.6904 55.6887C21.3089 55.0623 21.6545 54.2166 21.6517 53.3363C21.6489 52.456 21.298 51.6125 20.6755 50.9901C20.053 50.3676 19.2095 50.0167 18.3292 50.0139C17.4489 50.0112 16.6032 50.3568 15.9768 50.9754L9.31116 57.641C8.68844 58.2677 8.33894 59.1153 8.33894 59.9988C8.33894 60.8823 8.68844 61.7299 9.31116 62.3566L15.9768 69.022C16.6038 69.6377 17.4485 69.9809 18.3272 69.977C19.206 69.973 20.0476 69.6221 20.6689 69.0008C21.2903 68.3794 21.6411 67.5378 21.6451 66.6591C21.6491 65.7804 21.3059 64.9357 20.6902 64.3087L19.7137 63.332H28.3335C29.2175 63.332 30.0654 62.9808 30.6905 62.3557C31.3156 61.7306 31.6668 60.8828 31.6668 59.9987C31.6668 59.1146 31.3156 58.2668 30.6905 57.6417C30.0654 57.0166 29.2175 56.6654 28.3335 56.6654ZM70.6893 57.6409L64.0235 50.9754C63.3965 50.3597 62.5518 50.0165 61.6731 50.0204C60.7944 50.0244 59.9528 50.3753 59.3314 50.9966C58.7101 51.618 58.3592 52.4596 58.3552 53.3383C58.3513 54.217 58.6945 55.0617 59.3102 55.6887L60.2868 56.6654H51.6668C50.7828 56.6654 49.9349 57.0166 49.3098 57.6417C48.6847 58.2668 48.3335 59.1146 48.3335 59.9987C48.3335 60.8828 48.6847 61.7306 49.3098 62.3557C49.9349 62.9808 50.7828 63.332 51.6668 63.332H60.2866L59.31 64.3087C58.9973 64.6175 58.7487 64.9851 58.5787 65.3903C58.4086 65.7955 58.3203 66.2303 58.3189 66.6698C58.3176 67.1092 58.4031 67.5446 58.5707 67.9509C58.7382 68.3572 58.9844 68.7263 59.2952 69.037C59.6059 69.3477 59.9751 69.594 60.3813 69.7615C60.7876 69.929 61.223 70.0145 61.6624 70.0131C62.1019 70.0118 62.5367 69.9235 62.942 69.7534C63.3472 69.5833 63.7147 69.3347 64.0235 69.022L70.6892 62.3564C71.3119 61.7297 71.6614 60.8821 71.6614 59.9986C71.6614 59.1151 71.3119 58.2675 70.6892 57.6408L70.6893 57.6409ZM68.801 32.5713C70.6378 30.4751 71.6555 27.7858 71.6668 24.9987C71.6668 21.9045 70.4377 18.937 68.2497 16.7491C66.0618 14.5612 63.0943 13.332 60.0002 13.332C56.906 13.332 53.9385 14.5612 51.7506 16.7491C49.5627 18.937 48.3335 21.9045 48.3335 24.9987C48.3448 27.7858 49.3625 30.4751 51.1993 32.5713C48.7993 34.0593 46.8177 36.1341 45.4416 38.5999C44.0654 41.0658 43.3399 43.8415 43.3335 46.6654C43.3335 47.5494 43.6847 48.3973 44.3098 49.0224C44.9349 49.6475 45.7828 49.9987 46.6668 49.9987C47.5509 49.9987 48.3987 49.6475 49.0238 49.0224C49.649 48.3973 50.0002 47.5494 50.0002 46.6654C50.0002 44.0132 51.0537 41.4697 52.9291 39.5943C54.8045 37.7189 57.348 36.6654 60.0002 36.6654C62.6523 36.6654 65.1959 37.7189 67.0712 39.5943C68.9466 41.4697 70.0002 44.0132 70.0002 46.6654C70.0002 47.5494 70.3513 48.3973 70.9765 49.0224C71.6016 49.6475 72.4494 49.9987 73.3335 49.9987C74.2175 49.9987 75.0654 49.6475 75.6905 49.0224C76.3156 48.3973 76.6668 47.5494 76.6668 46.6654C76.6604 43.8415 75.9349 41.0658 74.5588 38.5999C73.1826 36.1341 71.2011 34.0593 68.801 32.5713ZM60.0002 29.9987C59.0112 29.9987 58.0446 29.7055 57.2223 29.156C56.4001 28.6066 55.7592 27.8257 55.3808 26.9121C55.0023 25.9985 54.9033 24.9932 55.0962 24.0232C55.2892 23.0533 55.7654 22.1624 56.4646 21.4632C57.1639 20.7639 58.0548 20.2877 59.0247 20.0948C59.9946 19.9018 60.9999 20.0009 61.9136 20.3793C62.8272 20.7577 63.6081 21.3986 64.1575 22.2208C64.7069 23.0431 65.0002 24.0098 65.0002 24.9987C64.9987 26.3243 64.4715 27.5953 63.5341 28.5326C62.5967 29.47 61.3258 29.9973 60.0002 29.9987ZM28.801 32.5713C30.6378 30.4751 31.6555 27.7858 31.6668 24.9987C31.6668 21.9045 30.4377 18.937 28.2497 16.7491C26.0618 14.5612 23.0944 13.332 20.0002 13.332C16.906 13.332 13.9385 14.5612 11.7506 16.7491C9.56266 18.937 8.3335 21.9045 8.3335 24.9987C8.34477 27.7858 9.36249 30.4751 11.1993 32.5713C8.79926 34.0593 6.81774 36.1341 5.44156 38.5999C4.06538 41.0658 3.33989 43.8415 3.3335 46.6654C3.3335 47.5494 3.68469 48.3973 4.30981 49.0224C4.93493 49.6475 5.78277 49.9987 6.66683 49.9987C7.55088 49.9987 8.39873 49.6475 9.02385 49.0224C9.64897 48.3973 10.0002 47.5494 10.0002 46.6654C10.0002 44.0132 11.0537 41.4697 12.9291 39.5943C14.8045 37.7189 17.348 36.6654 20.0002 36.6654C22.6523 36.6654 25.1959 37.7189 27.0712 39.5943C28.9466 41.4697 30.0002 44.0132 30.0002 46.6654C30.0002 47.5494 30.3514 48.3973 30.9765 49.0224C31.6016 49.6475 32.4494 49.9987 33.3335 49.9987C34.2175 49.9987 35.0654 49.6475 35.6905 49.0224C36.3156 48.3973 36.6668 47.5494 36.6668 46.6654C36.6604 43.8415 35.9349 41.0658 34.5588 38.5999C33.1826 36.1341 31.2011 34.0593 28.801 32.5713ZM20.0002 29.9987C19.0113 29.9987 18.0446 29.7055 17.2223 29.156C16.4001 28.6066 15.7592 27.8257 15.3808 26.9121C15.0023 25.9985 14.9033 24.9932 15.0962 24.0232C15.2892 23.0533 15.7654 22.1624 16.4646 21.4632C17.1639 20.7639 18.0548 20.2877 19.0247 20.0948C19.9946 19.9018 20.9999 20.0009 21.9136 20.3793C22.8272 20.7577 23.6081 21.3986 24.1575 22.2208C24.7069 23.0431 25.0002 24.0098 25.0002 24.9987C24.9987 26.3243 24.4715 27.5953 23.5341 28.5326C22.5967 29.47 21.3258 29.9973 20.0002 29.9987Z" fill="white"/>
</svg>
