<svg width="80" height="80" viewBox="0 0 80 80" fill="none" xmlns="http://www.w3.org/2000/svg">
<path d="M37.6332 50.968C37.4898 51.1264 37.3563 51.2933 37.2332 51.468C37.107 51.6538 37.0061 51.8556 36.9332 52.068C36.8371 52.2569 36.7697 52.4591 36.7332 52.668C36.7168 52.8899 36.7168 53.1127 36.7332 53.3346C36.7219 53.7719 36.8132 54.2057 36.9999 54.6013C37.1496 55.015 37.3884 55.3906 37.6995 55.7017C38.0105 56.0128 38.3862 56.2516 38.7999 56.4013C39.1989 56.5777 39.6303 56.6687 40.0665 56.6687C40.5028 56.6687 40.9342 56.5777 41.3332 56.4013C41.7468 56.2516 42.1225 56.0128 42.4336 55.7017C42.7446 55.3906 42.9835 55.015 43.1332 54.6013C43.2812 54.196 43.3491 53.7658 43.3332 53.3346C43.3357 52.896 43.2516 52.4611 43.0858 52.055C42.9199 51.6488 42.6755 51.2794 42.3665 50.968C42.0566 50.6555 41.688 50.4076 41.2818 50.2383C40.8756 50.0691 40.4399 49.982 39.9999 49.982C39.5598 49.982 39.1241 50.0691 38.7179 50.2383C38.3117 50.4076 37.9431 50.6555 37.6332 50.968ZM39.9999 6.66797C33.4071 6.66797 26.9625 8.62293 21.4808 12.2856C15.9992 15.9484 11.7268 21.1543 9.20387 27.2452C6.68095 33.3361 6.02084 40.0383 7.30701 46.5043C8.59318 52.9703 11.7679 58.9098 16.4296 63.5715C21.0914 68.2333 27.0308 71.408 33.4968 72.6942C39.9629 73.9803 46.6651 73.3202 52.756 70.7973C58.8468 68.2744 64.0528 64.0019 67.7155 58.5203C71.3782 53.0387 73.3332 46.594 73.3332 40.0013C73.3332 35.6239 72.471 31.2894 70.7958 27.2452C69.1207 23.201 66.6654 19.5264 63.5701 16.4311C60.4748 13.3358 56.8002 10.8805 52.756 9.20532C48.7118 7.53016 44.3772 6.66797 39.9999 6.66797ZM39.9999 66.668C34.7257 66.668 29.57 65.104 25.1846 62.1738C20.7993 59.2437 17.3814 55.0789 15.3631 50.2062C13.3447 45.3335 12.8166 39.9717 13.8456 34.7989C14.8745 29.6261 17.4143 24.8745 21.1437 21.1451C24.8731 17.4157 29.6246 14.876 34.7974 13.847C39.9703 12.8181 45.332 13.3462 50.2047 15.3645C55.0774 17.3829 59.2422 20.8008 62.1724 25.1861C65.1025 29.5714 66.6665 34.7271 66.6665 40.0013C66.6665 47.0737 63.857 53.8565 58.856 58.8575C53.8551 63.8585 47.0723 66.668 39.9999 66.668ZM39.9999 23.3346C38.2434 23.3335 36.5176 23.795 34.9962 24.6728C33.4748 25.5505 32.2114 26.8135 31.3332 28.3346C31.092 28.714 30.9301 29.1383 30.8571 29.5819C30.7841 30.0255 30.8017 30.4793 30.9086 30.9159C31.0156 31.3526 31.2097 31.7631 31.4795 32.1228C31.7492 32.4824 32.0889 32.7838 32.4781 33.0088C32.8673 33.2338 33.298 33.3777 33.7443 33.4319C34.1906 33.4861 34.6432 33.4495 35.075 33.3242C35.5067 33.199 35.9087 32.9877 36.2567 32.703C36.6047 32.4184 36.8915 32.0663 37.0999 31.668C37.3935 31.1593 37.8164 30.7372 38.3257 30.4446C38.8349 30.1519 39.4125 29.999 39.9999 30.0013C40.8839 30.0013 41.7318 30.3525 42.3569 30.9776C42.982 31.6027 43.3332 32.4506 43.3332 33.3346C43.3332 34.2187 42.982 35.0665 42.3569 35.6917C41.7318 36.3168 40.8839 36.668 39.9999 36.668C39.1158 36.668 38.268 37.0192 37.6428 37.6443C37.0177 38.2694 36.6665 39.1172 36.6665 40.0013V43.3346C36.6665 44.2187 37.0177 45.0665 37.6428 45.6917C38.268 46.3168 39.1158 46.668 39.9999 46.668C40.8839 46.668 41.7318 46.3168 42.3569 45.6917C42.982 45.0665 43.3332 44.2187 43.3332 43.3346V42.7346C45.5378 41.9347 47.391 40.3854 48.5691 38.3575C49.7471 36.3297 50.175 33.9523 49.7778 31.6409C49.3807 29.3296 48.1839 27.2314 46.3965 25.713C44.6091 24.1947 42.345 23.3528 39.9999 23.3346Z" fill="white"/>
</svg>
