<svg width="80" height="80" viewBox="0 0 80 80" fill="none" xmlns="http://www.w3.org/2000/svg">
<path d="M63.3332 13.332H16.6665C14.0143 13.332 11.4708 14.3856 9.59544 16.261C7.72007 18.1363 6.6665 20.6799 6.6665 23.332V56.6654C6.6665 59.3175 7.72007 61.8611 9.59544 63.7364C11.4708 65.6118 14.0143 66.6654 16.6665 66.6654H63.3332C65.9853 66.6654 68.5289 65.6118 70.4042 63.7364C72.2796 61.8611 73.3332 59.3175 73.3332 56.6654V23.332C73.3332 20.6799 72.2796 18.1363 70.4042 16.261C68.5289 14.3856 65.9853 13.332 63.3332 13.332ZM16.6665 19.9987H63.3332C64.2172 19.9987 65.0651 20.3499 65.6902 20.975C66.3153 21.6001 66.6665 22.448 66.6665 23.332L39.9998 39.5987L13.3332 23.332C13.3332 22.448 13.6844 21.6001 14.3095 20.975C14.9346 20.3499 15.7824 19.9987 16.6665 19.9987ZM66.6665 56.6654C66.6665 57.5494 66.3153 58.3973 65.6902 59.0224C65.0651 59.6475 64.2172 59.9987 63.3332 59.9987H16.6665C15.7824 59.9987 14.9346 59.6475 14.3095 59.0224C13.6844 58.3973 13.3332 57.5494 13.3332 56.6654V30.932L38.2665 46.1654C38.7732 46.4579 39.348 46.6119 39.9332 46.6119C40.5183 46.6119 41.0931 46.4579 41.5998 46.1654L66.6665 30.932V56.6654Z" fill="white"/>
</svg>
