<svg width="80" height="80" viewBox="0 0 80 80" fill="none" xmlns="http://www.w3.org/2000/svg">
<path d="M49.0665 29.3013L34.7665 43.6346L29.2665 38.1346C28.9677 37.7857 28.6 37.5023 28.1864 37.3022C27.7729 37.1021 27.3224 36.9897 26.8634 36.972C26.4043 36.9542 25.9465 37.0316 25.5188 37.1992C25.091 37.3668 24.7025 37.621 24.3777 37.9458C24.0528 38.2707 23.7986 38.6591 23.6311 39.0869C23.4635 39.5146 23.3861 39.9724 23.4039 40.4315C23.4216 40.8905 23.534 41.341 23.7341 41.7545C23.9342 42.1681 24.2176 42.5358 24.5665 42.8346L32.3999 50.7013C32.7113 51.0102 33.0807 51.2547 33.4868 51.4205C33.893 51.5864 34.3278 51.6705 34.7665 51.668C35.641 51.6643 36.479 51.3171 37.0999 50.7013L53.7665 34.0346C54.0789 33.7248 54.3269 33.3561 54.4962 32.9499C54.6654 32.5437 54.7525 32.108 54.7525 31.668C54.7525 31.2279 54.6654 30.7922 54.4962 30.386C54.3269 29.9798 54.0789 29.6112 53.7665 29.3013C53.142 28.6805 52.2971 28.332 51.4165 28.332C50.5359 28.332 49.6911 28.6805 49.0665 29.3013ZM39.9999 6.66797C33.4071 6.66797 26.9625 8.62293 21.4808 12.2856C15.9992 15.9484 11.7268 21.1543 9.20387 27.2452C6.68095 33.3361 6.02084 40.0383 7.30701 46.5043C8.59318 52.9703 11.7679 58.9098 16.4296 63.5715C21.0914 68.2333 27.0308 71.408 33.4968 72.6942C39.9629 73.9803 46.6651 73.3202 52.756 70.7973C58.8468 68.2744 64.0528 64.0019 67.7155 58.5203C71.3782 53.0387 73.3332 46.594 73.3332 40.0013C73.3332 35.6239 72.471 31.2894 70.7958 27.2452C69.1207 23.201 66.6654 19.5264 63.5701 16.4311C60.4748 13.3358 56.8002 10.8805 52.756 9.20532C48.7118 7.53016 44.3772 6.66797 39.9999 6.66797ZM39.9999 66.668C34.7257 66.668 29.57 65.104 25.1846 62.1738C20.7993 59.2437 17.3814 55.0789 15.3631 50.2062C13.3447 45.3335 12.8166 39.9717 13.8456 34.7989C14.8745 29.6261 17.4143 24.8745 21.1437 21.1451C24.8731 17.4157 29.6246 14.876 34.7974 13.847C39.9703 12.8181 45.332 13.3462 50.2047 15.3645C55.0774 17.3829 59.2422 20.8008 62.1724 25.1861C65.1025 29.5714 66.6665 34.7271 66.6665 40.0013C66.6665 47.0737 63.857 53.8565 58.856 58.8575C53.8551 63.8585 47.0723 66.668 39.9999 66.668Z" fill="white"/>
</svg>
