<svg width="80" height="80" viewBox="0 0 80 80" fill="none" xmlns="http://www.w3.org/2000/svg">
<path d="M28.3332 63.3333C27.3443 63.3333 26.3776 63.6266 25.5553 64.176C24.7331 64.7254 24.0922 65.5063 23.7138 66.4199C23.3353 67.3336 23.2363 68.3389 23.4292 69.3088C23.6222 70.2787 24.0984 71.1696 24.7976 71.8689C25.4969 72.5681 26.3878 73.0443 27.3577 73.2373C28.3276 73.4302 29.333 73.3312 30.2466 72.9527C31.1602 72.5743 31.9411 71.9334 32.4905 71.1112C33.0399 70.2889 33.3332 69.3222 33.3332 68.3333C33.3332 67.0073 32.8064 65.7355 31.8687 64.7978C30.931 63.8601 29.6593 63.3333 28.3332 63.3333ZM63.3332 53.3333H23.3332C22.4491 53.3333 21.6013 52.9821 20.9761 52.357C20.351 51.7319 19.9998 50.8841 19.9998 50C19.9998 49.1159 20.351 48.2681 20.9761 47.643C21.6013 47.0179 22.4491 46.6667 23.3332 46.6667H51.6372C53.8086 46.6597 55.9193 45.9492 57.6529 44.6416C59.3865 43.3341 60.6497 41.4999 61.2532 39.4141L66.5379 20.9163C66.6797 20.4202 66.7044 19.898 66.6101 19.3907C66.5157 18.8835 66.3049 18.4051 65.9943 17.9931C65.6836 17.5812 65.2816 17.2469 64.8198 17.0168C64.358 16.7866 63.8491 16.6668 63.3332 16.6667H22.4634C21.7734 14.7245 20.5013 13.0424 18.8206 11.8494C17.1399 10.6564 15.1322 10.0106 13.0711 10H9.99984C9.11578 10 8.26794 10.3512 7.64281 10.9763C7.01769 11.6014 6.6665 12.4493 6.6665 13.3333C6.6665 14.2174 7.01769 15.0652 7.64281 15.6904C8.26794 16.3155 9.11578 16.6667 9.99984 16.6667H13.0711C13.7947 16.6692 14.4981 16.9061 15.0758 17.3418C15.6535 17.7775 16.0746 18.3886 16.2759 19.0837L16.7943 20.8995L16.7951 20.9163L22.2638 40.057C19.719 40.3307 17.3761 41.5698 15.7174 43.5191C14.0587 45.4684 13.2106 47.9794 13.3476 50.5352C13.4846 53.091 14.5964 55.497 16.454 57.2578C18.3117 59.0185 20.7737 59.9999 23.3332 60H63.3332C64.2172 60 65.0651 59.6488 65.6902 59.0237C66.3153 58.3986 66.6665 57.5507 66.6665 56.6667C66.6665 55.7826 66.3153 54.9348 65.6902 54.3096C65.0651 53.6845 64.2172 53.3333 63.3332 53.3333ZM58.9142 23.3333L54.8436 37.5814C54.6425 38.277 54.2213 38.8887 53.6432 39.3247C53.0652 39.7608 52.3613 39.9977 51.6372 40H29.1811L28.3313 37.026L24.4212 23.3333H58.9142ZM54.9998 63.3333C54.0109 63.3333 53.0442 63.6266 52.222 64.176C51.3997 64.7254 50.7589 65.5063 50.3804 66.4199C50.002 67.3336 49.903 68.3389 50.0959 69.3088C50.2888 70.2787 50.765 71.1696 51.4643 71.8689C52.1636 72.5681 53.0545 73.0443 54.0244 73.2373C54.9943 73.4302 55.9996 73.3312 56.9132 72.9527C57.8269 72.5743 58.6078 71.9334 59.1572 71.1112C59.7066 70.2889 59.9998 69.3222 59.9998 68.3333C59.9998 67.0073 59.473 65.7355 58.5354 64.7978C57.5977 63.8601 56.3259 63.3333 54.9998 63.3333Z" fill="white"/>
</svg>
