<svg width="54" height="54" viewBox="0 0 54 54" fill="none" xmlns="http://www.w3.org/2000/svg">
<path d="M42.75 10.125H11.25C9.45979 10.125 7.7429 10.8362 6.47703 12.102C5.21116 13.3679 4.5 15.0848 4.5 16.875V37.125C4.5 38.9152 5.21116 40.6321 6.47703 41.898C7.7429 43.1638 9.45979 43.875 11.25 43.875H42.75C44.5402 43.875 46.2571 43.1638 47.523 41.898C48.7888 40.6321 49.5 38.9152 49.5 37.125V16.875C49.5 15.0848 48.7888 13.3679 47.523 12.102C46.2571 10.8362 44.5402 10.125 42.75 10.125ZM45 37.125C45 37.7217 44.7629 38.294 44.341 38.716C43.919 39.1379 43.3467 39.375 42.75 39.375H11.25C10.6533 39.375 10.081 39.1379 9.65901 38.716C9.23705 38.294 9 37.7217 9 37.125V16.875C9 16.2783 9.23705 15.706 9.65901 15.284C10.081 14.8621 10.6533 14.625 11.25 14.625H42.75C43.3467 14.625 43.919 14.8621 44.341 15.284C44.7629 15.706 45 16.2783 45 16.875V37.125ZM36 23.625C34.8038 23.6334 33.6313 23.9595 32.6025 24.57C31.5776 23.9619 30.4101 23.6359 29.2184 23.6253C28.0267 23.6146 26.8535 23.9196 25.8179 24.5093C24.7824 25.099 23.9214 25.9523 23.3224 26.9826C22.7235 28.0128 22.408 29.1833 22.408 30.375C22.408 31.5667 22.7235 32.7372 23.3224 33.7674C23.9214 34.7977 24.7824 35.651 25.8179 36.2407C26.8535 36.8304 28.0267 37.1354 29.2184 37.1247C30.4101 37.1141 31.5776 36.7881 32.6025 36.18C33.4975 36.711 34.5033 37.0279 35.5411 37.1059C36.5789 37.1838 37.6206 37.0208 38.585 36.6294C39.5493 36.2381 40.4101 35.629 41.1001 34.8499C41.79 34.0707 42.2905 33.1426 42.5624 32.138C42.8342 31.1334 42.8701 30.0796 42.6672 29.0588C42.4643 28.0381 42.0281 27.0781 41.3927 26.2538C40.7573 25.4296 39.94 24.7634 39.0045 24.3074C38.069 23.8513 37.0407 23.6178 36 23.625ZM29.6325 32.625C29.5052 32.6359 29.3773 32.6359 29.25 32.625C28.6533 32.625 28.081 32.3879 27.659 31.966C27.2371 31.544 27 30.9717 27 30.375C27 29.7783 27.2371 29.206 27.659 28.784C28.081 28.3621 28.6533 28.125 29.25 28.125C29.3773 28.1141 29.5052 28.1141 29.6325 28.125C29.1234 29.52 29.1234 31.05 29.6325 32.445V32.625ZM36 32.625C35.555 32.625 35.12 32.493 34.75 32.2458C34.38 31.9986 34.0916 31.6472 33.9213 31.236C33.751 30.8249 33.7064 30.3725 33.7932 29.936C33.88 29.4996 34.0943 29.0987 34.409 28.784C34.7237 28.4693 35.1246 28.255 35.561 28.1682C35.9975 28.0814 36.4499 28.126 36.861 28.2963C37.2722 28.4666 37.6236 28.755 37.8708 29.125C38.118 29.495 38.25 29.93 38.25 30.375C38.25 30.9717 38.0129 31.544 37.591 31.966C37.169 32.3879 36.5967 32.625 36 32.625Z" fill="white"/>
</svg>
