<svg width="80" height="80" viewBox="0 0 80 80" fill="none" xmlns="http://www.w3.org/2000/svg">
<path d="M63.3335 23.3346H53.3335V20.0013C53.3335 16.4651 51.9287 13.0737 49.4283 10.5732C46.9278 8.07273 43.5364 6.66797 40.0002 6.66797C36.4639 6.66797 33.0726 8.07273 30.5721 10.5732C28.0716 13.0737 26.6668 16.4651 26.6668 20.0013V23.3346H16.6668C15.7828 23.3346 14.9349 23.6858 14.3098 24.3109C13.6847 24.9361 13.3335 25.7839 13.3335 26.668V63.3346C13.3335 65.9868 14.3871 68.5303 16.2624 70.4057C18.1378 72.2811 20.6813 73.3346 23.3335 73.3346H56.6668C59.319 73.3346 61.8625 72.2811 63.7379 70.4057C65.6133 68.5303 66.6668 65.9868 66.6668 63.3346V26.668C66.6668 25.7839 66.3156 24.9361 65.6905 24.3109C65.0654 23.6858 64.2175 23.3346 63.3335 23.3346ZM33.3335 20.0013C33.3335 18.2332 34.0359 16.5375 35.2861 15.2873C36.5364 14.037 38.2321 13.3346 40.0002 13.3346C41.7683 13.3346 43.464 14.037 44.7142 15.2873C45.9644 16.5375 46.6668 18.2332 46.6668 20.0013V23.3346H33.3335V20.0013ZM60.0002 63.3346C60.0002 64.2187 59.649 65.0665 59.0239 65.6917C58.3987 66.3168 57.5509 66.668 56.6668 66.668H23.3335C22.4494 66.668 21.6016 66.3168 20.9765 65.6917C20.3514 65.0665 20.0002 64.2187 20.0002 63.3346V30.0013H26.6668V33.3346C26.6668 34.2187 27.018 35.0665 27.6431 35.6917C28.2683 36.3168 29.1161 36.668 30.0002 36.668C30.8842 36.668 31.7321 36.3168 32.3572 35.6917C32.9823 35.0665 33.3335 34.2187 33.3335 33.3346V30.0013H46.6668V33.3346C46.6668 34.2187 47.018 35.0665 47.6431 35.6917C48.2683 36.3168 49.1161 36.668 50.0002 36.668C50.8842 36.668 51.7321 36.3168 52.3572 35.6917C52.9823 35.0665 53.3335 34.2187 53.3335 33.3346V30.0013H60.0002V63.3346Z" fill="white"/>
</svg>
