<svg width="80" height="80" viewBox="0 0 80 80" fill="none" xmlns="http://www.w3.org/2000/svg">
<path d="M63.3332 10H16.6665C14.0143 10 11.4708 11.0536 9.59544 12.9289C7.72007 14.8043 6.6665 17.3478 6.6665 20V46.6667C6.6665 49.3188 7.72007 51.8624 9.59544 53.7377C11.4708 55.6131 14.0143 56.6667 16.6665 56.6667H36.6665V63.3333H23.3332C22.4491 63.3333 21.6013 63.6845 20.9761 64.3096C20.351 64.9348 19.9998 65.7826 19.9998 66.6667C19.9998 67.5507 20.351 68.3986 20.9761 69.0237C21.6013 69.6488 22.4491 70 23.3332 70H56.6665C57.5506 70 58.3984 69.6488 59.0235 69.0237C59.6487 68.3986 59.9998 67.5507 59.9998 66.6667C59.9998 65.7826 59.6487 64.9348 59.0235 64.3096C58.3984 63.6845 57.5506 63.3333 56.6665 63.3333H43.3332V56.6667H63.3332C65.9853 56.6667 68.5289 55.6131 70.4042 53.7377C72.2796 51.8624 73.3332 49.3188 73.3332 46.6667V20C73.3332 17.3478 72.2796 14.8043 70.4042 12.9289C68.5289 11.0536 65.9853 10 63.3332 10ZM66.6665 46.6667C66.6665 47.5507 66.3153 48.3986 65.6902 49.0237C65.0651 49.6488 64.2172 50 63.3332 50H16.6665C15.7824 50 14.9346 49.6488 14.3095 49.0237C13.6844 48.3986 13.3332 47.5507 13.3332 46.6667V20C13.3332 19.1159 13.6844 18.2681 14.3095 17.643C14.9346 17.0179 15.7824 16.6667 16.6665 16.6667H63.3332C64.2172 16.6667 65.0651 17.0179 65.6902 17.643C66.3153 18.2681 66.6665 19.1159 66.6665 20V46.6667Z" fill="white"/>
</svg>
