<svg width="103" height="80" viewBox="0 0 103 80" fill="none" xmlns="http://www.w3.org/2000/svg">
<path d="M63.3332 10H16.6665C14.0143 10 11.4708 11.0536 9.59544 12.9289C7.72007 14.8043 6.6665 17.3478 6.6665 20V46.6667C6.6665 49.3188 7.72007 51.8624 9.59544 53.7377C11.4708 55.6131 14.0143 56.6667 16.6665 56.6667H36.6665V63.3333H23.3332C22.4491 63.3333 21.6013 63.6845 20.9761 64.3096C20.351 64.9348 19.9998 65.7826 19.9998 66.6667C19.9998 67.5507 20.351 68.3986 20.9761 69.0237C21.6013 69.6488 22.4491 70 23.3332 70H56.6665C57.5506 70 58.3984 69.6488 59.0235 69.0237C59.6487 68.3986 59.9998 67.5507 59.9998 66.6667C59.9998 65.7826 59.6487 64.9348 59.0235 64.3096C58.3984 63.6845 57.5506 63.3333 56.6665 63.3333H43.3332V56.6667H63.3332C65.9853 56.6667 68.5289 55.6131 70.4042 53.7377C72.2796 51.8624 73.3332 49.3188 73.3332 46.6667V20C73.3332 17.3478 72.2796 14.8043 70.4042 12.9289C68.5289 11.0536 65.9853 10 63.3332 10ZM66.6665 46.6667C66.6665 47.5507 66.3153 48.3986 65.6902 49.0237C65.0651 49.6488 64.2172 50 63.3332 50H16.6665C15.7824 50 14.9346 49.6488 14.3095 49.0237C13.6844 48.3986 13.3332 47.5507 13.3332 46.6667V20C13.3332 19.1159 13.6844 18.2681 14.3095 17.643C14.9346 17.0179 15.7824 16.6667 16.6665 16.6667H63.3332C64.2172 16.6667 65.0651 17.0179 65.6902 17.643C66.3153 18.2681 66.6665 19.1159 66.6665 20V46.6667Z" fill="white"/>
<path d="M81.361 65.2212L81.0735 64.9912C80.9667 64.9187 80.8506 64.8607 80.7285 64.8187L80.3835 64.6654C80.0727 64.6004 79.7505 64.6137 79.4461 64.704C79.1417 64.7943 78.8644 64.9589 78.6393 65.1829C78.47 65.3692 78.3339 65.5831 78.2368 65.8154C78.0918 66.1646 78.0533 66.5489 78.1262 66.92C78.199 67.291 78.3801 67.6322 78.6464 67.9006C78.9128 68.1691 79.2526 68.3527 79.6231 68.4284C79.9936 68.5041 80.3782 68.4686 80.7285 68.3262C80.9575 68.2151 81.1703 68.0732 81.361 67.9045C81.627 67.635 81.8071 67.2927 81.8787 66.9209C81.9504 66.5491 81.9103 66.1644 81.7635 65.8154C81.6679 65.5937 81.5314 65.3921 81.361 65.2212ZM87.6668 37.832H72.3335C70.8085 37.832 69.346 38.4378 68.2676 39.5162C67.1893 40.5945 66.5835 42.057 66.5835 43.582V70.4154C66.5835 71.9404 67.1893 73.4029 68.2676 74.4812C69.346 75.5596 70.8085 76.1654 72.3335 76.1654H87.6668C89.1918 76.1654 90.6544 75.5596 91.7327 74.4812C92.811 73.4029 93.4168 71.9404 93.4168 70.4154V43.582C93.4168 42.057 92.811 40.5945 91.7327 39.5162C90.6544 38.4378 89.1918 37.832 87.6668 37.832ZM89.5835 70.4154C89.5835 70.9237 89.3816 71.4112 89.0221 71.7707C88.6627 72.1301 88.1752 72.332 87.6668 72.332H72.3335C71.8252 72.332 71.3377 72.1301 70.9782 71.7707C70.6188 71.4112 70.4168 70.9237 70.4168 70.4154V43.582C70.4168 43.0737 70.6188 42.5862 70.9782 42.2267C71.3377 41.8673 71.8252 41.6654 72.3335 41.6654H87.6668C88.1752 41.6654 88.6627 41.8673 89.0221 42.2267C89.3816 42.5862 89.5835 43.0737 89.5835 43.582V70.4154Z" fill="white"/>
</svg>
