<svg width="80" height="80" viewBox="0 0 80 80" fill="none" xmlns="http://www.w3.org/2000/svg">
<path d="M49.9177 10.0613L53.1171 4.28937C53.1582 4.21532 53.1842 4.13391 53.1938 4.04978C53.2034 3.96566 53.1963 3.88047 53.173 3.79908C53.1497 3.71769 53.1105 3.6417 53.0578 3.57543C53.0051 3.50917 52.9399 3.45394 52.8658 3.41288C52.7163 3.32998 52.5399 3.30988 52.3756 3.357C52.2112 3.40412 52.0723 3.51462 51.9894 3.66417L48.7545 9.5001C45.9945 8.29013 43.0136 7.66543 39.9999 7.66543C36.9863 7.66543 34.0054 8.29013 31.2454 9.5001L28.0104 3.66417C27.9275 3.51462 27.7886 3.40412 27.6242 3.357C27.4599 3.30988 27.2835 3.32998 27.1339 3.41288C26.9844 3.49579 26.8739 3.63471 26.8268 3.79908C26.7796 3.96346 26.7997 4.13982 26.8827 4.28937L30.0822 10.0614C27.0366 11.5626 24.4633 13.8736 22.6445 16.7409C20.8258 19.6081 19.8318 22.9209 19.7716 26.3159H60.2283C60.1681 22.9209 59.1741 19.6081 57.3554 16.7409C55.5366 13.8736 52.9633 11.5626 49.9177 10.0613ZM30.6636 18.9133C30.3295 18.9133 30.0029 18.8143 29.725 18.6286C29.4472 18.443 29.2307 18.1792 29.1028 17.8705C28.975 17.5618 28.9415 17.2221 29.0067 16.8944C29.0719 16.5667 29.2328 16.2657 29.469 16.0295C29.7053 15.7932 30.0063 15.6323 30.334 15.5671C30.6617 15.5019 31.0014 15.5354 31.3101 15.6633C31.6188 15.7911 31.8826 16.0076 32.0682 16.2855C32.2538 16.5633 32.3529 16.8899 32.3529 17.224C32.3524 17.6719 32.1743 18.1013 31.8576 18.418C31.5409 18.7347 31.1115 18.9128 30.6636 18.9133ZM49.3362 18.9133C49.0021 18.9133 48.6755 18.8143 48.3976 18.6286C48.1198 18.443 47.9033 18.1792 47.7754 17.8705C47.6476 17.5618 47.6141 17.2221 47.6793 16.8944C47.7445 16.5667 47.9054 16.2657 48.1417 16.0295C48.3779 15.7932 48.6789 15.6323 49.0066 15.5671C49.3343 15.5019 49.674 15.5354 49.9827 15.6633C50.2914 15.7911 50.5552 16.0076 50.7408 16.2855C50.9264 16.5633 51.0255 16.8899 51.0255 17.224C51.025 17.6719 50.8469 18.1013 50.5302 18.418C50.2135 18.7347 49.7841 18.9128 49.3362 18.9133ZM19.7713 57.2367C19.7713 58.5337 20.2866 59.7776 21.2037 60.6947C22.1208 61.6119 23.3647 62.1271 24.6618 62.1271H27.9071V72.1303C27.9055 72.7268 28.0216 73.3178 28.2487 73.8695C28.4759 74.4211 28.8097 74.9224 29.231 75.3448C29.6522 75.7673 30.1527 76.1024 30.7037 76.3311C31.2547 76.5597 31.8454 76.6774 32.4419 76.6774C33.0385 76.6774 33.6292 76.5597 34.1802 76.3311C34.7312 76.1024 35.2317 75.7673 35.6529 75.3448C36.0742 74.9224 36.408 74.4211 36.6351 73.8695C36.8623 73.3178 36.9784 72.7268 36.9768 72.1303V62.1271H43.023V72.1303C43.0214 72.7268 43.1375 73.3178 43.3646 73.8695C43.5918 74.4211 43.9256 74.9224 44.3469 75.3448C44.7681 75.7673 45.2686 76.1024 45.8196 76.3311C46.3706 76.5597 46.9613 76.6774 47.5578 76.6774C48.1544 76.6774 48.7451 76.5597 49.2961 76.3311C49.8471 76.1024 50.3476 75.7673 50.7688 75.3448C51.1901 74.9224 51.5239 74.4211 51.751 73.8695C51.9782 73.3178 52.0943 72.7268 52.0927 72.1303V62.1271H55.3382C56.6352 62.1271 57.8791 61.6119 58.7962 60.6947C59.7133 59.7776 60.2286 58.5337 60.2286 57.2367V27.9162H19.7713V57.2367ZM13.5471 27.1382C12.3448 27.1395 11.1921 27.6178 10.3419 28.4679C9.49179 29.3181 9.01358 30.4707 9.01222 31.673V50.5679C9.01061 51.1645 9.12671 51.7555 9.35388 52.3071C9.58106 52.8587 9.91483 53.3601 10.3361 53.7825C10.7574 54.2049 11.2578 54.54 11.8088 54.7687C12.3598 54.9974 12.9505 55.1151 13.5471 55.1151C14.1436 55.1151 14.7343 54.9974 15.2853 54.7687C15.8363 54.54 16.3368 54.2049 16.7581 53.7825C17.1793 53.3601 17.5131 52.8587 17.7403 52.3071C17.9674 51.7555 18.0835 51.1645 18.0819 50.5679V31.673C18.0806 30.4707 17.6023 29.3181 16.7522 28.4679C15.902 27.6177 14.7494 27.1395 13.5471 27.1382ZM66.4527 27.1382C65.2504 27.1395 64.0977 27.6177 63.2476 28.4679C62.3974 29.3181 61.9192 30.4707 61.9179 31.673V50.5679C61.9162 51.1645 62.0323 51.7555 62.2595 52.3071C62.4867 52.8587 62.8205 53.3601 63.2417 53.7825C63.663 54.2049 64.1635 54.54 64.7144 54.7687C65.2654 54.9974 65.8561 55.1151 66.4527 55.1151C67.0493 55.1151 67.64 54.9974 68.191 54.7687C68.742 54.54 69.2424 54.2049 69.6637 53.7825C70.0849 53.3601 70.4187 52.8587 70.6459 52.3071C70.8731 51.7555 70.9892 51.1645 70.9876 50.5679V31.673C70.9862 30.4707 70.508 29.3181 69.6578 28.4679C68.8077 27.6178 67.655 27.1395 66.4527 27.1382Z" fill="white"/>
</svg>
