<svg width="80" height="80" viewBox="0 0 80 80" fill="none" xmlns="http://www.w3.org/2000/svg">
<path d="M49.8002 17.3013C51.0604 15.8489 52.0212 14.1619 52.6276 12.3371C53.2339 10.5123 53.4738 8.58573 53.3335 6.66797C49.4648 6.98026 45.8735 8.79982 43.3335 11.7346C42.1172 13.1412 41.1955 14.7776 40.6229 16.5468C40.0503 18.316 39.8386 20.1821 40.0002 22.0346C41.8873 22.0504 43.7528 21.6316 45.4522 20.8108C47.1516 19.99 48.6393 18.7892 49.8002 17.3013ZM58.2002 42.1013C58.2225 39.5471 58.8953 37.0407 60.1551 34.8186C61.4148 32.5966 63.22 30.7322 65.4002 29.4013C64.0243 27.4188 62.2053 25.7841 60.0877 24.6269C57.97 23.4697 55.6118 22.8218 53.2002 22.7346C48.0002 22.2013 43.2002 25.768 40.4335 25.768C37.6669 25.768 33.7669 22.8013 29.4335 22.868C26.6006 22.9613 23.8403 23.7872 21.4217 25.2653C19.0031 26.7433 17.0089 28.8229 15.6335 31.3013C9.76686 41.5013 14.1335 56.668 20.0002 64.9013C22.6669 68.9346 26.0002 73.5013 30.4002 73.3346C34.8002 73.168 36.2335 70.6013 41.3335 70.6013C46.4335 70.6013 48.0002 73.3346 52.3335 73.2346C56.6669 73.1346 59.7335 69.1013 62.5335 65.068C64.517 62.1397 66.0664 58.9399 67.1335 55.568C64.4918 54.4414 62.2379 52.5656 60.6503 50.1723C59.0627 47.7791 58.2109 44.9732 58.2002 42.1013Z" fill="white"/>
</svg>
