<svg width="80" height="80" viewBox="0 0 80 80" fill="none" xmlns="http://www.w3.org/2000/svg">
<path d="M23.3333 53.3346C24.6594 53.3346 25.9312 52.8079 26.8689 51.8702C27.8065 50.9325 28.3333 49.6607 28.3333 48.3346C28.3496 48.1684 28.3496 48.0009 28.3333 47.8346L37.6333 38.5346H38.4H39.1667L44.5333 43.9013C44.5333 43.9013 44.5333 44.068 44.5333 44.168C44.5333 45.4941 45.0601 46.7658 45.9978 47.7035C46.9355 48.6412 48.2072 49.168 49.5333 49.168C50.8594 49.168 52.1312 48.6412 53.0689 47.7035C54.0065 46.7658 54.5333 45.4941 54.5333 44.168V43.9013L66.6667 31.668C67.6556 31.668 68.6223 31.3747 69.4445 30.8253C70.2668 30.2759 70.9076 29.495 71.2861 28.5814C71.6645 27.6678 71.7635 26.6624 71.5706 25.6925C71.3777 24.7226 70.9015 23.8317 70.2022 23.1324C69.5029 22.4332 68.612 21.957 67.6421 21.764C66.6722 21.5711 65.6669 21.6701 64.7533 22.0486C63.8396 22.427 63.0587 23.0679 62.5093 23.8901C61.9599 24.7124 61.6667 25.6791 61.6667 26.668C61.6504 26.8342 61.6504 27.0017 61.6667 27.168L49.6333 39.2013H49.1L43.3333 33.3346C43.3333 32.0086 42.8065 30.7368 41.8689 29.7991C40.9312 28.8614 39.6594 28.3346 38.3333 28.3346C37.0073 28.3346 35.7355 28.8614 34.7978 29.7991C33.8601 30.7368 33.3333 32.0086 33.3333 33.3346L23.3333 43.3346C22.0072 43.3346 20.7355 43.8614 19.7978 44.7991C18.8601 45.7368 18.3333 47.0086 18.3333 48.3346C18.3333 49.6607 18.8601 50.9325 19.7978 51.8702C20.7355 52.8079 22.0072 53.3346 23.3333 53.3346ZM68.3333 66.668H11.6667V10.0013C11.6667 9.11725 11.3155 8.2694 10.6904 7.64428C10.0652 7.01916 9.21739 6.66797 8.33333 6.66797C7.44928 6.66797 6.60143 7.01916 5.97631 7.64428C5.35119 8.2694 5 9.11725 5 10.0013V70.0013C5 70.8854 5.35119 71.7332 5.97631 72.3583C6.60143 72.9835 7.44928 73.3346 8.33333 73.3346H68.3333C69.2174 73.3346 70.0652 72.9835 70.6904 72.3583C71.3155 71.7332 71.6667 70.8854 71.6667 70.0013C71.6667 69.1172 71.3155 68.2694 70.6904 67.6443C70.0652 67.0192 69.2174 66.668 68.3333 66.668Z" fill="white"/>
</svg>
