<svg width="80" height="80" viewBox="0 0 80 80" fill="none" xmlns="http://www.w3.org/2000/svg">
<path d="M26.6668 55.0013C26.0076 55.0013 25.3631 55.1968 24.8149 55.5631C24.2668 55.9293 23.8395 56.4499 23.5872 57.059C23.3349 57.6681 23.2689 58.3383 23.3975 58.9849C23.5262 59.6315 23.8436 60.2255 24.3098 60.6917C24.776 61.1578 25.3699 61.4753 26.0165 61.6039C26.6631 61.7325 27.3334 61.6665 27.9424 61.4142C28.5515 61.1619 29.0721 60.7347 29.4384 60.1865C29.8047 59.6384 30.0002 58.9939 30.0002 58.3346C30.0002 57.4506 29.649 56.6027 29.0239 55.9776C28.3987 55.3525 27.5509 55.0013 26.6668 55.0013ZM40.0002 6.66797C26.6668 6.66797 13.3335 11.2346 13.3335 20.0013V60.0013C13.3335 68.768 26.6668 73.3346 40.0002 73.3346C53.3335 73.3346 66.6668 68.768 66.6668 60.0013V20.0013C66.6668 11.2346 53.3335 6.66797 40.0002 6.66797ZM60.0002 60.0013C60.0002 62.368 52.4002 66.668 40.0002 66.668C27.6002 66.668 20.0002 62.368 20.0002 60.0013V49.1013C26.2404 52.0678 33.0931 53.5183 40.0002 53.3346C46.9072 53.5183 53.7599 52.0678 60.0002 49.1013V60.0013ZM60.0002 40.0013C60.0002 42.368 52.4002 46.668 40.0002 46.668C27.6002 46.668 20.0002 42.368 20.0002 40.0013V29.1013C26.2404 32.0678 33.0931 33.5183 40.0002 33.3346C46.9072 33.5183 53.7599 32.0678 60.0002 29.1013V40.0013ZM40.0002 26.668C27.6002 26.668 20.0002 22.368 20.0002 20.0013C20.0002 17.6346 27.6002 13.3346 40.0002 13.3346C52.4002 13.3346 60.0002 17.6346 60.0002 20.0013C60.0002 22.368 52.4002 26.668 40.0002 26.668ZM26.6668 35.0013C26.0076 35.0013 25.3631 35.1968 24.8149 35.5631C24.2668 35.9293 23.8395 36.4499 23.5872 37.059C23.3349 37.6681 23.2689 38.3383 23.3975 38.9849C23.5262 39.6315 23.8436 40.2255 24.3098 40.6917C24.776 41.1578 25.3699 41.4753 26.0165 41.6039C26.6631 41.7325 27.3334 41.6665 27.9424 41.4142C28.5515 41.1619 29.0721 40.7347 29.4384 40.1865C29.8047 39.6384 30.0002 38.9939 30.0002 38.3346C30.0002 37.4506 29.649 36.6027 29.0239 35.9776C28.3987 35.3525 27.5509 35.0013 26.6668 35.0013Z" fill="white"/>
</svg>
