<svg width="54" height="54" viewBox="0 0 54 54" fill="none" xmlns="http://www.w3.org/2000/svg">
<path d="M42.9479 11.1477C42.9314 11.1301 42.9265 11.1068 42.9093 11.0896C42.8921 11.0724 42.8684 11.0672 42.8507 11.0506C38.6421 6.8556 32.9422 4.5 27 4.5C21.0578 4.5 15.3579 6.8556 11.1493 11.0506C11.1316 11.0672 11.108 11.0723 11.0907 11.0896C11.0734 11.1069 11.0686 11.1301 11.0521 11.1477C7.9162 14.2986 5.78396 18.3079 4.92451 22.6696C4.06505 27.0312 4.5169 31.5497 6.22303 35.6547C7.92915 39.7598 10.8131 43.2675 14.5109 45.7351C18.2086 48.2026 22.5545 49.5195 27 49.5195C31.4455 49.5195 35.7914 48.2026 39.4892 45.7351C43.1869 43.2675 46.0709 39.7598 47.777 35.6547C49.4831 31.5497 49.935 27.0312 49.0755 22.6696C48.2161 18.3079 46.0838 14.2986 42.9479 11.1477ZM26.9999 45C24.305 44.9991 21.6448 44.392 19.2164 43.2235C16.788 42.0551 14.6535 40.3553 12.9711 38.25H22.0055C22.6312 38.9573 23.4 39.5236 24.261 39.9115C25.122 40.2994 26.0556 40.5 26.9999 40.5C27.9442 40.5 28.8778 40.2994 29.7388 39.9115C30.5998 39.5236 31.3686 38.9573 31.9943 38.25H41.0288C39.3464 40.3553 37.2119 42.0551 34.7835 43.2235C32.355 44.392 29.6948 44.9991 26.9999 45ZM24.7499 33.75C24.7499 33.305 24.8819 32.87 25.1291 32.5C25.3763 32.13 25.7277 31.8416 26.1389 31.6713C26.55 31.501 27.0024 31.4564 27.4389 31.5432C27.8753 31.63 28.2762 31.8443 28.5909 32.159C28.9056 32.4737 29.1198 32.8746 29.2067 33.311C29.2935 33.7475 29.2489 34.1999 29.0786 34.611C28.9083 35.0222 28.6199 35.3736 28.2499 35.6208C27.8799 35.868 27.4449 36 26.9999 36C26.4033 35.9994 25.8314 35.7622 25.4096 35.3403C24.9877 34.9185 24.7505 34.3466 24.7499 33.75ZM43.6729 33.7547L43.6497 33.75H33.7499C33.7456 32.3586 33.3108 31.0027 32.505 29.8684C31.6993 28.734 30.5622 27.8769 29.2499 27.4146V20.25C29.2499 19.6533 29.0128 19.081 28.5909 18.659C28.1689 18.2371 27.5966 18 26.9999 18C26.4032 18 25.8309 18.2371 25.4089 18.659C24.9869 19.081 24.7499 19.6533 24.7499 20.25V27.4146C23.4376 27.8769 22.3005 28.734 21.4947 29.8684C20.689 31.0027 20.2542 32.3586 20.2499 33.75H10.3501L10.3269 33.7547C9.74167 32.3107 9.34808 30.7962 9.15618 29.25H11.2499C11.8466 29.25 12.4189 29.0129 12.8409 28.591C13.2628 28.169 13.4999 27.5967 13.4999 27C13.4999 26.4033 13.2628 25.831 12.8409 25.409C12.4189 24.9871 11.8466 24.75 11.2499 24.75H9.15618C9.55823 21.5518 10.8169 18.5216 12.7991 15.9797L14.2722 17.4529C14.4811 17.6618 14.7292 17.8275 15.0021 17.9406C15.2751 18.0536 15.5676 18.1118 15.8631 18.1118C16.1585 18.1118 16.4511 18.0536 16.724 17.9406C16.997 17.8275 17.245 17.6618 17.4539 17.4529C17.6628 17.244 17.8285 16.996 17.9416 16.723C18.0546 16.45 18.1128 16.1575 18.1128 15.8621C18.1128 15.5666 18.0546 15.2741 17.9416 15.0011C17.8285 14.7282 17.6628 14.4801 17.4539 14.2712L15.9809 12.7982C18.5225 10.8167 21.5522 9.55838 24.7499 9.15628V11.25C24.7499 11.8467 24.9869 12.419 25.4089 12.841C25.8309 13.2629 26.4032 13.5 26.9999 13.5C27.5966 13.5 28.1689 13.2629 28.5909 12.841C29.0128 12.419 29.2499 11.8467 29.2499 11.25V9.15628C32.4476 9.55838 35.4772 10.8167 38.0189 12.7982L36.5459 14.2712C36.124 14.6931 35.887 15.2654 35.887 15.8621C35.887 16.4587 36.124 17.031 36.5459 17.4529C36.9678 17.8748 37.5401 18.1118 38.1367 18.1118C38.7334 18.1118 39.3056 17.8748 39.7276 17.4529L41.2007 15.9797C43.1829 18.5216 44.4416 21.5518 44.8436 24.75H42.7499C42.1532 24.75 41.5809 24.9871 41.1589 25.409C40.7369 25.831 40.4999 26.4033 40.4999 27C40.4999 27.5967 40.7369 28.169 41.1589 28.591C41.5809 29.0129 42.1532 29.25 42.7499 29.25H44.8436C44.6517 30.7962 44.2581 32.3107 43.6729 33.7547Z" fill="white"/>
</svg>
