<svg width="80" height="80" viewBox="0 0 80 80" fill="none" xmlns="http://www.w3.org/2000/svg">
<path d="M52.3664 27.6341C52.0566 27.3217 51.6879 27.0737 51.2817 26.9044C50.8755 26.7352 50.4398 26.6481 49.9998 26.6481C49.5597 26.6481 49.1241 26.7352 48.7179 26.9044C48.3117 27.0737 47.943 27.3217 47.6331 27.6341L39.9998 35.3008L32.3664 27.6341C31.7388 27.0064 30.8874 26.6538 29.9998 26.6538C29.1121 26.6538 28.2608 27.0064 27.6331 27.6341C27.0054 28.2618 26.6528 29.1131 26.6528 30.0008C26.6528 30.8884 27.0054 31.7397 27.6331 32.3674L35.2998 40.0008L27.6331 47.6341C27.3207 47.944 27.0727 48.3126 26.9035 48.7188C26.7342 49.125 26.6471 49.5607 26.6471 50.0008C26.6471 50.4408 26.7342 50.8765 26.9035 51.2827C27.0727 51.6889 27.3207 52.0575 27.6331 52.3674C27.943 52.6798 28.3117 52.9278 28.7179 53.0971C29.1241 53.2663 29.5597 53.3534 29.9998 53.3534C30.4398 53.3534 30.8755 53.2663 31.2817 53.0971C31.6879 52.9278 32.0566 52.6798 32.3664 52.3674L39.9998 44.7008L47.6331 52.3674C47.943 52.6798 48.3117 52.9278 48.7179 53.0971C49.1241 53.2663 49.5597 53.3534 49.9998 53.3534C50.4398 53.3534 50.8755 53.2663 51.2817 53.0971C51.6879 52.9278 52.0566 52.6798 52.3664 52.3674C52.6789 52.0575 52.9268 51.6889 53.0961 51.2827C53.2653 50.8765 53.3524 50.4408 53.3524 50.0008C53.3524 49.5607 53.2653 49.125 53.0961 48.7188C52.9268 48.3126 52.6789 47.944 52.3664 47.6341L44.6998 40.0008L52.3664 32.3674C52.6789 32.0575 52.9268 31.6889 53.0961 31.2827C53.2653 30.8765 53.3524 30.4408 53.3524 30.0008C53.3524 29.5607 53.2653 29.125 53.0961 28.7188C52.9268 28.3126 52.6789 27.944 52.3664 27.6341ZM63.5664 16.4341C60.4916 13.2504 56.8134 10.711 52.7466 8.96404C48.6798 7.21707 44.3058 6.29753 39.8798 6.25907C35.4538 6.22061 31.0645 7.064 26.968 8.74003C22.8714 10.4161 19.1497 12.8912 16.0199 16.0209C12.8902 19.1507 10.4151 22.8724 8.73905 26.969C7.06302 31.0655 6.21963 35.4548 6.25809 39.8808C6.29656 44.3068 7.2161 48.6808 8.96306 52.7476C10.71 56.8144 13.2494 60.4925 16.4331 63.5674C19.508 66.7511 23.1862 69.2905 27.253 71.0375C31.3198 72.7844 35.6938 73.704 40.1197 73.7424C44.5457 73.7809 48.935 72.9375 53.0316 71.2615C57.1281 69.5854 60.8499 67.1103 63.9796 63.9806C67.1094 60.8508 69.5845 57.1291 71.2605 53.0326C72.9365 48.936 73.7799 44.5467 73.7415 40.1207C73.703 35.6947 72.7835 31.3207 71.0365 27.2539C69.2895 23.1871 66.7501 19.509 63.5664 16.4341ZM58.8664 58.8674C54.5066 63.2321 48.7682 65.9502 42.6291 66.5584C36.4899 67.1667 30.3298 65.6276 25.1982 62.2033C20.0666 58.779 16.281 53.6814 14.4864 47.779C12.6917 41.8766 12.9991 35.5346 15.3562 29.8334C17.7132 24.1322 21.974 19.4246 27.4127 16.5126C32.8515 13.6007 39.1316 12.6645 45.1831 13.8637C51.2347 15.0628 56.6833 18.3231 60.6006 23.089C64.5179 27.8549 66.6616 33.8315 66.6664 40.0008C66.6783 43.505 65.9951 46.9769 64.6562 50.2154C63.3173 53.4538 61.3494 56.3946 58.8664 58.8674Z" fill="white"/>
</svg>
