<svg width="80" height="80" viewBox="0 0 80 80" fill="none" xmlns="http://www.w3.org/2000/svg">
<path d="M63.3332 33.3346C62.4491 33.3346 61.6013 33.6858 60.9761 34.3109C60.351 34.9361 59.9998 35.7839 59.9998 36.668V47.9346L55.0665 43.0013C53.3246 41.2731 50.9703 40.3034 48.5165 40.3034C46.0628 40.3034 43.7084 41.2731 41.9665 43.0013L39.6332 45.368L31.3665 37.068C29.6246 35.3398 27.2703 34.3701 24.8165 34.3701C22.3628 34.3701 20.0084 35.3398 18.2665 37.068L13.3332 42.0346V23.3346C13.3332 22.4506 13.6844 21.6027 14.3095 20.9776C14.9346 20.3525 15.7824 20.0013 16.6665 20.0013H43.3332C44.2172 20.0013 45.0651 19.6501 45.6902 19.025C46.3153 18.3999 46.6665 17.552 46.6665 16.668C46.6665 15.7839 46.3153 14.9361 45.6902 14.3109C45.0651 13.6858 44.2172 13.3346 43.3332 13.3346H16.6665C14.0143 13.3346 11.4708 14.3882 9.59544 16.2636C7.72007 18.1389 6.6665 20.6825 6.6665 23.3346V64.068C6.67529 66.5229 7.65441 68.8749 9.39035 70.6108C11.1263 72.3467 13.4782 73.3259 15.9332 73.3346H57.3998C58.3031 73.3274 59.2009 73.1928 60.0665 72.9346C61.9913 72.3948 63.6858 71.2383 64.8901 69.6427C66.0943 68.047 66.7418 66.1004 66.7332 64.1013V36.668C66.7333 36.2246 66.6449 35.7856 66.4732 35.3768C66.3015 34.9679 66.05 34.5975 65.7334 34.2871C65.4168 33.9766 65.0414 33.7325 64.6293 33.569C64.2171 33.4054 63.7765 33.3258 63.3332 33.3346ZM16.6665 66.668C15.7824 66.668 14.9346 66.3168 14.3095 65.6917C13.6844 65.0665 13.3332 64.2187 13.3332 63.3346V51.4346L22.9665 41.8013C23.4537 41.3168 24.1128 41.0449 24.7998 41.0449C25.4869 41.0449 26.146 41.3168 26.6332 41.8013L51.5332 66.668H16.6665ZM59.9998 63.3346C59.9784 63.9801 59.77 64.6054 59.3998 65.1346L44.3332 50.0013L46.6998 47.668C46.9388 47.4241 47.2241 47.2303 47.5389 47.098C47.8537 46.9657 48.1917 46.8976 48.5332 46.8976C48.8746 46.8976 49.2127 46.9657 49.5275 47.098C49.8423 47.2303 50.1275 47.4241 50.3665 47.668L59.9998 57.368V63.3346ZM69.9998 13.3346H66.6665V10.0013C66.6665 9.11725 66.3153 8.2694 65.6902 7.64428C65.0651 7.01916 64.2172 6.66797 63.3332 6.66797C62.4491 6.66797 61.6013 7.01916 60.9761 7.64428C60.351 8.2694 59.9998 9.11725 59.9998 10.0013V13.3346H56.6665C55.7825 13.3346 54.9346 13.6858 54.3095 14.3109C53.6844 14.9361 53.3332 15.7839 53.3332 16.668C53.3332 17.552 53.6844 18.3999 54.3095 19.025C54.9346 19.6501 55.7825 20.0013 56.6665 20.0013H59.9998V23.3346C59.9998 24.2187 60.351 25.0665 60.9761 25.6917C61.6013 26.3168 62.4491 26.668 63.3332 26.668C64.2172 26.668 65.0651 26.3168 65.6902 25.6917C66.3153 25.0665 66.6665 24.2187 66.6665 23.3346V20.0013H69.9998C70.8839 20.0013 71.7317 19.6501 72.3569 19.025C72.982 18.3999 73.3332 17.552 73.3332 16.668C73.3332 15.7839 72.982 14.9361 72.3569 14.3109C71.7317 13.6858 70.8839 13.3346 69.9998 13.3346Z" fill="white"/>
</svg>
