<svg width="80" height="80" viewBox="0 0 80 80" fill="none" xmlns="http://www.w3.org/2000/svg">
<path d="M65 13.3326H33.3333C32.4492 13.3326 31.6014 13.6838 30.9763 14.309C30.3512 14.9341 30 15.7819 30 16.666C30 17.55 30.3512 18.3979 30.9763 19.023C31.6014 19.6481 32.4492 19.9993 33.3333 19.9993H65C65.884 19.9993 66.7319 20.3505 67.357 20.9756C67.9821 21.6007 68.3333 22.4486 68.3333 23.3326V45.866L62.0666 39.5993C60.9951 38.5334 59.6959 37.7242 58.2666 37.2326C57.8508 37.0926 57.4114 37.0358 56.9736 37.0655C56.5358 37.0952 56.1081 37.2109 55.715 37.4059C55.3219 37.6009 54.9711 37.8714 54.6825 38.202C54.394 38.5326 54.1734 38.9168 54.0333 39.3326C53.8932 39.7485 53.8364 40.1879 53.8661 40.6257C53.8959 41.0635 54.0115 41.4911 54.2066 41.8842C54.4016 42.2773 54.6721 42.6282 55.0027 42.9167C55.3333 43.2053 55.7174 43.4259 56.1333 43.566C56.594 43.711 57.0081 43.9756 57.3333 44.3326L68.3666 55.2993C68.3476 55.4654 68.3476 55.6332 68.3666 55.7993C68.3515 55.9656 68.3515 56.133 68.3666 56.2993C68.4919 56.5125 68.637 56.7134 68.8 56.8993C68.8812 57.0357 68.9823 57.1593 69.1 57.266C69.3 57.4511 69.5242 57.6081 69.7666 57.7326C69.8815 57.8119 70.0044 57.879 70.1333 57.9326C70.5212 58.107 70.9414 58.1979 71.3666 58.1993C72.2507 58.1993 73.0985 57.8481 73.7237 57.223C74.3488 56.5979 74.7 55.75 74.7 54.866V23.3326C74.7011 20.7317 73.6889 18.2325 71.8779 16.3656C70.0669 14.4986 67.5998 13.4107 65 13.3326ZM10.7 7.63265C10.0723 7.00497 9.22097 6.65234 8.3333 6.65234C7.44563 6.65234 6.59431 7.00497 5.96663 7.63265C5.33895 8.26033 4.98633 9.11164 4.98633 9.99932C4.98633 10.887 5.33895 11.7383 5.96663 12.366L10.6 16.9993C9.13573 18.7853 8.33484 21.0231 8.3333 23.3326V56.666C8.3333 59.3181 9.38687 61.8617 11.2622 63.737C13.1376 65.6124 15.6811 66.666 18.3333 66.666H60.3L65.9666 72.366C66.2765 72.6784 66.6452 72.9264 67.0514 73.0956C67.4576 73.2648 67.8933 73.352 68.3333 73.352C68.7733 73.352 69.209 73.2648 69.6152 73.0956C70.0214 72.9264 70.3901 72.6784 70.7 72.366C71.0124 72.0561 71.2604 71.6874 71.4296 71.2812C71.5988 70.875 71.686 70.4394 71.686 69.9993C71.686 69.5593 71.5988 69.1236 71.4296 68.7174C71.2604 68.3112 71.0124 67.9425 70.7 67.6326L10.7 7.63265ZM15 23.3326C15.0081 22.7968 15.1453 22.2708 15.4 21.7993L24.4666 30.8326C23.2273 31.3047 22.0942 32.0185 21.1333 32.9326L15 39.1993V23.3326ZM18.3333 59.9993C17.4492 59.9993 16.6014 59.6481 15.9763 59.023C15.3512 58.3979 15 57.55 15 56.666V48.5993L26 37.6326C26.6231 37.0219 27.4608 36.6798 28.3333 36.6798C29.2058 36.6798 30.0435 37.0219 30.6666 37.6326L53.0333 59.9993H18.3333Z" fill="white"/>
</svg>
