<svg width="80" height="80" viewBox="0 0 80 80" fill="none" xmlns="http://www.w3.org/2000/svg">
<path d="M63.3332 13.332H16.6665C14.0143 13.332 11.4708 14.3856 9.59544 16.261C7.72007 18.1363 6.6665 20.6799 6.6665 23.332V56.6654C6.6665 59.3175 7.72007 61.8611 9.59544 63.7364C11.4708 65.6118 14.0143 66.6654 16.6665 66.6654H63.3332C65.9853 66.6654 68.5289 65.6118 70.4042 63.7364C72.2796 61.8611 73.3332 59.3175 73.3332 56.6654V23.332C73.3332 20.6799 72.2796 18.1363 70.4042 16.261C68.5289 14.3856 65.9853 13.332 63.3332 13.332ZM16.6665 59.9987C15.7824 59.9987 14.9346 59.6475 14.3095 59.0224C13.6844 58.3973 13.3332 57.5494 13.3332 56.6654V48.5987L24.3332 37.632C24.9563 37.0213 25.794 36.6792 26.6665 36.6792C27.539 36.6792 28.3767 37.0213 28.9998 37.632L51.3665 59.9987H16.6665ZM66.6665 56.6654C66.6665 57.5494 66.3153 58.3973 65.6902 59.0224C65.0651 59.6475 64.2172 59.9987 63.3332 59.9987H60.7665L48.0665 47.232L50.9998 44.2987C51.6229 43.6879 52.4607 43.3458 53.3332 43.3458C54.2057 43.3458 55.0434 43.6879 55.6665 44.2987L66.6665 55.2654V56.6654ZM66.6665 45.8654L60.3998 39.632C58.5 37.8068 55.9677 36.7875 53.3332 36.7875C50.6987 36.7875 48.1663 37.8068 46.2665 39.632L43.3332 42.5654L33.7332 32.9654C31.8334 31.1401 29.301 30.1208 26.6665 30.1208C24.032 30.1208 21.4996 31.1401 19.5998 32.9654L13.3332 39.1987V23.332C13.3332 22.448 13.6844 21.6001 14.3095 20.975C14.9346 20.3499 15.7824 19.9987 16.6665 19.9987H63.3332C64.2172 19.9987 65.0651 20.3499 65.6902 20.975C66.3153 21.6001 66.6665 22.448 66.6665 23.332V45.8654Z" fill="white"/>
</svg>
