<svg width="360" height="134" viewBox="0 0 360 134" fill="none" xmlns="http://www.w3.org/2000/svg">
<g clip-path="url(#clip0_1341_42)">
<mask id="mask0_1341_42" style="mask-type:luminance" maskUnits="userSpaceOnUse" x="0" y="0" width="360" height="134">
<path d="M0 133.359H360V0H0V133.359Z" fill="white"/>
</mask>
<g mask="url(#mask0_1341_42)">
<path d="M127.678 12.0361C125.378 15.2651 123.125 18.4361 120.844 21.6451C119.866 20.9695 118.845 20.3585 117.788 19.8161C115.575 18.7558 113.033 18.6093 110.712 19.4084C108.392 20.2075 106.479 21.8879 105.388 24.0861C103.906 27.2688 103.191 30.7549 103.301 34.2641C103.23 38.4641 103.369 42.6361 105.018 46.5841C107.269 51.9721 111.447 53.6081 116.804 52.1341C116.984 52.0707 117.145 51.9648 117.275 51.8255C117.405 51.6863 117.499 51.5177 117.55 51.3341C117.606 48.6691 117.583 46.0031 117.583 43.2341H111.459V32.9051H129.097V33.8931C129.097 41.7291 129.087 49.5651 129.118 57.4011C129.137 57.6919 129.078 57.9824 128.947 58.2425C128.816 58.5027 128.617 58.7229 128.372 58.8801C124.546 61.7304 119.964 63.3865 115.2 63.6401C111.303 63.9309 107.39 63.3618 103.738 61.9731C99.9156 60.4867 96.6678 57.8184 94.468 54.3571C90.52 48.2941 89.708 41.5001 89.802 34.5001C89.7299 29.7656 90.5758 25.0619 92.293 20.6491C95.5 12.9811 101.268 8.66115 109.468 7.57215C113.265 6.97596 117.148 7.25749 120.82 8.39515C123.296 9.21139 125.615 10.4426 127.678 12.0361Z" fill="white"/>
</g>
<path d="M133.499 8.00391H162.709V18.9209H146.442V30.0629H159.487V40.7529H146.452V51.9799H163.321V62.9339H133.499V8.00391Z" fill="white"/>
<path d="M176.805 19.0804H166.382V7.64941H200.273V19.0674H189.973V62.5444H176.805V19.0804Z" fill="white"/>
<mask id="mask1_1341_42" style="mask-type:luminance" maskUnits="userSpaceOnUse" x="0" y="0" width="360" height="134">
<path d="M0 133.359H360V0H0V133.359Z" fill="white"/>
</mask>
<g mask="url(#mask1_1341_42)">
<path d="M320.605 127.112V72.191C320.878 72.1397 321.153 72.1063 321.43 72.091C327.204 72.091 332.993 71.86 338.752 72.168C347.427 72.631 354.315 76.759 357.831 85.601C359.821 90.608 360.063 95.838 359.988 101.124C360.036 105.469 359.252 109.783 357.678 113.833C356.403 117.22 354.238 120.2 351.411 122.459C348.584 124.718 345.2 126.173 341.615 126.669C339.599 126.971 337.562 127.113 335.524 127.094C330.948 127.155 326.369 127.113 321.792 127.113L320.605 127.112ZM333.779 115.912C335.642 115.8 337.495 115.549 339.32 115.159C343.076 114.065 344.957 111.166 345.782 107.547C346.712 102.895 346.84 98.1182 346.161 93.423C345.982 91.3126 345.284 89.2793 344.129 87.504C341.605 83.857 337.905 83.211 333.779 83.525V115.912Z" fill="white"/>
<path d="M244.566 127.112C240.166 127.112 235.902 127.128 231.643 127.081C231.445 127.045 231.258 126.963 231.097 126.841C230.937 126.72 230.807 126.562 230.719 126.381C228.608 120.925 226.532 115.458 224.49 109.981C224.166 109.114 223.766 108.738 222.83 108.858C222.125 108.906 221.418 108.911 220.713 108.874V127.062H207.65V72.1349C207.974 72.1189 208.313 72.0899 208.65 72.0899C213.897 72.0899 219.15 72.0409 224.394 72.1019C228.382 72.0488 232.306 73.1166 235.717 75.1839C240.761 78.3519 243.166 83.1069 243.424 88.9069C243.542 91.3519 243.353 93.8021 242.86 96.1999C242.474 97.9183 241.751 99.5429 240.732 100.98C239.714 102.416 238.42 103.636 236.926 104.569C236.091 105.127 236.108 105.595 236.442 106.436C239.16 113.267 241.823 120.118 244.562 127.112M220.732 98.8889C222.34 98.8154 223.942 98.6511 225.532 98.3969C226.622 98.2291 227.633 97.7282 228.427 96.9628C229.221 96.1973 229.758 95.205 229.966 94.1219C230.278 92.2385 230.345 90.3226 230.166 88.4219C230.045 87.4159 229.615 86.4724 228.934 85.7219C226.708 83.2699 223.726 83.4069 220.732 83.5069V98.8889Z" fill="white"/>
</g>
<path d="M298.319 94.2434H311.313V104.826H298.313V116.091H315.113V127.05H285.303V72.1504H314.534V83.0124H298.319V94.2434Z" fill="white"/>
<mask id="mask2_1341_42" style="mask-type:luminance" maskUnits="userSpaceOnUse" x="0" y="0" width="360" height="134">
<path d="M0 133.359H360V0H0V133.359Z" fill="white"/>
</mask>
<g mask="url(#mask2_1341_42)">
<path d="M99.7929 113.408C102.119 114.454 104.252 115.588 106.526 116.381C108.472 117.066 110.604 116.996 112.502 116.186C113.167 115.954 113.76 115.551 114.219 115.016C114.678 114.482 114.988 113.836 115.117 113.143C115.247 112.45 115.191 111.736 114.955 111.072C114.72 110.408 114.313 109.818 113.776 109.361C110.597 106.614 107.281 104.001 103.976 101.379C101.025 99.0312 98.3559 96.4882 96.7539 93.1322C94.5129 88.4412 94.4799 79.9322 99.7119 75.3512C102.259 73.1882 105.404 71.8525 108.729 71.5222C114.307 70.6777 120.011 71.4831 125.137 73.8392C125.937 74.2202 126.675 74.7122 127.522 75.2002L121.433 85.2122C120.574 84.7372 119.756 84.2622 118.915 83.8222C116.865 82.6904 114.509 82.2354 112.185 82.5222C111.531 82.5604 110.901 82.7829 110.368 83.164C109.835 83.545 109.421 84.069 109.173 84.6755C108.925 85.2821 108.854 85.9463 108.967 86.5916C109.081 87.2368 109.375 87.8368 109.815 88.3222C110.63 89.2566 111.544 90.0986 112.543 90.8332C115.607 93.2832 118.761 95.6332 121.785 98.1262C124.796 100.39 127.069 103.496 128.315 107.051C130.09 112.805 129.1 120.103 123.53 124.265C120.913 126.217 117.821 127.432 114.575 127.783C109.224 128.566 103.763 127.989 98.6939 126.105C96.7175 125.205 94.7904 124.2 92.9209 123.095C95.3709 119.643 97.6309 116.457 99.7929 113.408Z" fill="white"/>
<path d="M204.664 127.054C203.185 123.035 184.654 71.3288 184.564 71.1328H182.254C175.509 89.4328 168.772 108.713 161.99 127.11C166.054 127.11 169.924 127.126 173.79 127.077C174.053 127.077 174.441 126.64 174.549 126.329C175.104 124.72 175.588 123.086 176.097 121.452H189.743C190.27 123.052 190.836 124.627 191.3 126.235C191.507 126.954 191.86 127.135 192.574 127.129C196.306 127.092 200.038 127.113 203.774 127.11C204.033 127.11 204.294 127.079 204.667 127.054M186.606 111.904H179.301C180.525 107.878 181.744 103.871 182.956 99.8838C184.156 103.831 185.372 107.838 186.606 111.904Z" fill="white"/>
<path d="M155.036 127.059H141.923V83.5714H139.954C137.417 83.5714 134.881 83.5714 132.346 83.5664C131.906 83.5664 131.391 83.6794 131.393 82.9414C131.403 79.3644 131.398 75.7894 131.398 72.1494H165.428V83.5494H155.036V127.059Z" fill="white"/>
</g>
<path d="M280.241 72.1553V83.5423H269.842V127.042H256.667V83.5733H246.287V72.1553H280.241Z" fill="white"/>
<mask id="mask3_1341_42" style="mask-type:luminance" maskUnits="userSpaceOnUse" x="0" y="0" width="360" height="134">
<path d="M0 133.359H360V0H0V133.359Z" fill="white"/>
</mask>
<g mask="url(#mask3_1341_42)">
<path d="M80.2831 39.3026C80.2606 36.9538 80.0134 34.6125 79.5451 32.3106C74.8291 10.2136 54.6451 -3.29635 32.3251 0.698647C14.7451 3.84565 0.406094 20.2326 0.156094 38.0276C-0.102906 56.6036 0.0360912 75.1846 0.0560912 93.7646C0.0587244 96.0383 0.26353 98.3073 0.668091 100.545C2.34349 109.517 7.02182 117.652 13.934 123.613C20.8462 129.574 29.5809 133.006 38.7021 133.345C47.9458 133.677 57.0212 130.811 64.3978 125.23C71.7744 119.65 77.001 111.696 79.1961 102.711C81.1651 94.6166 80.4051 87.2266 77.1601 81.1316C74.5268 76.3748 70.5911 72.468 65.8151 69.8696C59.9603 66.5527 53.2285 65.1128 46.5291 65.7446C46.4351 65.7516 46.3461 65.7636 46.2521 65.7706C46.2521 65.7706 46.2471 65.7706 46.2451 65.7656C45.7211 65.3096 44.9351 64.6156 43.9921 63.7566C42.8121 62.6816 41.7301 61.6946 40.7211 60.7646C35.0441 55.5326 31.9301 52.3226 30.0211 48.1176C29.0611 46.0006 25.6211 38.7016 29.2421 33.0856C30.6918 30.8001 32.8245 29.0291 35.3374 28.024C37.8504 27.0188 40.6161 26.8304 43.2421 27.4856C45.3453 28.0012 47.2859 29.0351 48.8869 30.4932C50.488 31.9513 51.6984 33.787 52.4078 35.833C53.1173 37.8789 53.3031 40.07 52.9484 42.2062C52.5937 44.3424 51.7097 46.3558 50.3771 48.0626C48.5771 50.4546 48.3881 52.4526 49.7771 54.2546C51.7451 56.8106 55.1771 56.5117 57.4571 53.5846C60.7773 49.291 62.3987 43.9244 62.0113 38.5106C61.6239 33.0968 59.2548 28.0157 55.3571 24.2386C51.3458 20.4046 46.0324 18.23 40.484 18.1518C34.9356 18.0735 29.563 20.0972 25.4451 23.8166C16.7931 31.5236 17.8451 45.9487 22.5201 53.0266C24.3611 55.8087 28.8671 60.6206 32.0351 63.8986C33.1801 65.0836 34.1521 66.0696 34.7581 66.6836C35.3791 67.3136 35.8981 67.8286 36.2421 68.1716C36.2354 68.1754 36.2284 68.1784 36.2211 68.1806C34.9961 68.6806 34.1121 69.1286 33.6431 69.3806C29.2599 71.5799 25.5036 74.8512 22.7231 78.8906C21.3452 80.9386 20.2535 83.1652 19.4781 85.5086C15.9721 95.9756 19.9861 106.923 29.2281 112.248C36.7911 116.606 49.3191 116.148 56.7121 107.631C63.7601 99.5126 62.5121 88.4626 58.8171 81.6756C57.2413 78.8176 55.0679 76.3328 52.4451 74.3906C53.8137 74.718 55.1587 75.1369 56.4711 75.6446C58.6301 76.4816 65.1961 78.8176 68.4831 84.0306C71.1001 88.1816 71.8981 93.4756 70.6731 99.5676C67.5991 114.845 52.9861 125.798 37.5941 124.368C21.4621 122.868 9.01009 109.486 8.99409 93.5936C8.97676 75.6963 8.97676 57.7986 8.99409 39.9006C9.03257 32.9544 11.3876 26.2197 15.6861 20.7631C19.9847 15.3066 25.9809 11.4403 32.7251 9.77665C39.4756 8.13334 46.5813 8.78774 52.9182 11.6363C59.255 14.4849 64.4612 19.365 67.7131 25.5046C70.0204 29.8684 71.2648 34.7152 71.3451 39.6506C71.4111 42.6846 73.2681 44.5866 75.8891 44.5426C78.5981 44.4977 80.3461 42.4116 80.2891 39.3026M42.5671 75.4736C42.6561 75.4496 42.7461 75.4237 42.8351 75.4007C43.9021 76.6656 44.9661 77.9916 46.0171 79.3626C47.2471 80.9687 48.4561 82.6356 49.6081 84.3676C51.4731 87.1676 53.5381 90.5496 53.0621 94.7616C52.7946 97.0291 51.9279 99.1843 50.5511 101.006C48.7771 103.392 46.2339 105.092 43.3511 105.819C40.4683 106.547 37.4228 106.257 34.7291 104.999C31.9141 103.71 29.6493 101.461 28.3396 98.6558C27.0299 95.8503 26.7607 92.6704 27.5801 89.6846C28.1472 87.3968 29.1431 85.2373 30.5151 83.3206C33.2824 79.6918 37.143 77.0488 41.5271 75.7816C41.8781 75.6666 42.2271 75.5676 42.5671 75.4736Z" fill="white"/>
</g>
</g>
<defs>
<clipPath id="clip0_1341_42">
<rect width="360" height="133.359" fill="white"/>
</clipPath>
</defs>
</svg>
