<svg width="20" height="20" viewBox="0 0 20 20" fill="none" xmlns="http://www.w3.org/2000/svg">
<path d="M12.1583 6.66667H5.83333C5.61232 6.66667 5.40036 6.57887 5.24408 6.42259C5.0878 6.26631 5 6.05435 5 5.83333C5 5.61232 5.0878 5.40036 5.24408 5.24408C5.40036 5.0878 5.61232 5 5.83333 5H14.1667C14.2756 5.00132 14.3831 5.02397 14.4833 5.06667C14.687 5.15123 14.8488 5.31304 14.9333 5.51667C14.976 5.61685 14.9987 5.72444 15 5.83333V14.1667C15 14.3877 14.9122 14.5996 14.7559 14.7559C14.5996 14.9122 14.3877 15 14.1667 15C13.9457 15 13.7337 14.9122 13.5774 14.7559C13.4211 14.5996 13.3333 14.3877 13.3333 14.1667V7.84167L6.425 14.7583C6.34753 14.8364 6.25536 14.8984 6.15381 14.9407C6.05226 14.9831 5.94334 15.0048 5.83333 15.0048C5.72332 15.0048 5.6144 14.9831 5.51285 14.9407C5.4113 14.8984 5.31914 14.8364 5.24167 14.7583C5.16356 14.6809 5.10156 14.5887 5.05926 14.4871C5.01695 14.3856 4.99517 14.2767 4.99517 14.1667C4.99517 14.0567 5.01695 13.9477 5.05926 13.8462C5.10156 13.7446 5.16356 13.6525 5.24167 13.575L12.1583 6.66667Z" fill="white"/>
</svg>
