<svg width="40" height="40" viewBox="0 0 40 40" fill="none" xmlns="http://www.w3.org/2000/svg">
<rect width="40" height="40" fill="white" fill-opacity="0.05"/>
<path d="M27.0585 11.6681H12.9418C12.7831 11.6659 12.6255 11.695 12.4781 11.7537C12.3307 11.8124 12.1962 11.8995 12.0825 12.0102C11.9687 12.1208 11.8779 12.2528 11.8151 12.3986C11.7524 12.5444 11.719 12.7011 11.7168 12.8598V27.1431C11.719 27.3018 11.7524 27.4585 11.8151 27.6042C11.8779 27.75 11.9687 27.882 12.0825 27.9927C12.1962 28.1033 12.3307 28.1905 12.4781 28.2492C12.6255 28.3079 12.7831 28.337 12.9418 28.3348H27.0585C27.2171 28.337 27.3747 28.3079 27.5222 28.2492C27.6696 28.1905 27.804 28.1033 27.9178 27.9927C28.0316 27.882 28.1224 27.75 28.1851 27.6042C28.2479 27.4585 28.2813 27.3018 28.2835 27.1431V12.8598C28.2813 12.7011 28.2479 12.5444 28.1851 12.3986C28.1224 12.2528 28.0316 12.1208 27.9178 12.0102C27.804 11.8995 27.6696 11.8124 27.5222 11.7537C27.3747 11.695 27.2171 11.6659 27.0585 11.6681ZM16.7418 25.6181H14.2418V18.1181H16.7418V25.6181ZM15.4918 17.0681C15.147 17.0681 14.8164 16.9311 14.5726 16.6873C14.3288 16.4435 14.1918 16.1129 14.1918 15.7681C14.1918 15.4233 14.3288 15.0926 14.5726 14.8488C14.8164 14.605 15.147 14.4681 15.4918 14.4681C15.6749 14.4473 15.8603 14.4655 16.0359 14.5213C16.2114 14.5772 16.3732 14.6695 16.5107 14.7922C16.6481 14.9149 16.7581 15.0653 16.8334 15.2335C16.9086 15.4017 16.9476 15.5838 16.9476 15.7681C16.9476 15.9523 16.9086 16.1345 16.8334 16.3027C16.7581 16.4709 16.6481 16.6212 16.5107 16.744C16.3732 16.8667 16.2114 16.959 16.0359 17.0148C15.8603 17.0707 15.6749 17.0888 15.4918 17.0681ZM25.7585 25.6181H23.2585V21.5931C23.2585 20.5848 22.9001 19.9264 21.9918 19.9264C21.7107 19.9285 21.437 20.0167 21.2075 20.1791C20.978 20.3415 20.8039 20.5703 20.7085 20.8348C20.6433 21.0306 20.615 21.2369 20.6251 21.4431V25.6098H18.1251C18.1251 25.6098 18.1251 18.7931 18.1251 18.1098H20.6251V19.1681C20.8522 18.774 21.1826 18.4494 21.5805 18.2291C21.9784 18.0088 22.4289 17.9013 22.8835 17.9181C24.5501 17.9181 25.7585 18.9931 25.7585 21.3014V25.6181Z" fill="white"/>
</svg>
