<svg width="210" height="58" viewBox="0 0 210 58" fill="none" xmlns="http://www.w3.org/2000/svg">
<g clip-path="url(#clip0_7185_3021)">
<path d="M50.7622 0.046875V44.7396L56.4899 44.7615V23.4886H70.3281V17.8582H56.4899V5.67728H74.5036V0.046875H50.7622ZM84.844 9.11686C86.9209 9.11686 88.5823 7.42993 88.5823 5.37056C88.5823 3.31119 86.899 1.62426 84.844 1.62426C82.7672 1.62426 81.1057 3.31119 81.1057 5.37056C81.1057 7.42993 82.7891 9.11686 84.844 9.11686ZM81.9365 14.7473V44.7396H87.6641V14.7473H81.9365Z" fill="white"/>
<path fill-rule="evenodd" clip-rule="evenodd" d="M108.935 13.8711C101.305 13.8711 95.9932 20.334 95.9932 28.0019C95.9932 35.6697 101.305 42.1326 108.935 42.1326C112.433 42.1326 115.297 40.7743 117.395 38.5835V42.5489C117.395 47.522 113.504 51.6627 108.41 51.6627C106.574 51.6627 104.76 50.9616 103.317 49.9539L100.431 54.9489C102.726 56.4387 105.459 57.2931 108.389 57.2931C116.521 57.2931 123.101 50.6987 123.101 42.5489V14.7474H117.395V17.4202C115.297 15.2294 112.433 13.8711 108.935 13.8711ZM101.743 28.0019C101.743 23.2478 105.372 19.5015 109.569 19.5015C113.766 19.5015 117.395 23.2478 117.395 28.0019C117.395 32.7559 113.766 36.5022 109.569 36.5022C105.372 36.5022 101.743 32.7559 101.743 28.0019Z" fill="white"/>
<path d="M143.804 19.5015C140.415 19.5015 137.661 22.3934 137.661 25.7891V44.7397H131.933V14.7474H137.661V17.4859C139.344 15.317 141.814 13.8711 145.05 13.8711C149.072 13.8711 152.155 15.8647 153.947 18.9319C155.937 15.9743 159.172 13.8711 163.086 13.8711C169.622 13.8711 173.688 19.151 173.71 25.6796V44.7397H167.982V25.7672C167.982 22.3715 165.228 19.4796 161.839 19.4796C158.451 19.4796 155.696 22.3715 155.696 25.7672V44.7397H149.969V25.7672C149.947 22.3715 147.192 19.5015 143.804 19.5015Z" fill="white"/>
<path fill-rule="evenodd" clip-rule="evenodd" d="M204.272 18.1432C201.714 15.4923 198.217 13.8711 194.172 13.8711C185.646 13.8711 179.569 21.1227 179.569 29.7545C179.569 38.3863 185.624 45.6379 194.172 45.6379C198.217 45.6379 201.714 43.9948 204.272 41.3659V44.7397H210V14.7474H204.272V18.1432ZM185.318 29.7545C185.318 24.0365 189.691 19.5015 194.806 19.5015C199.9 19.5015 204.294 24.0146 204.294 29.7545C204.294 35.4726 199.922 40.0075 194.806 40.0075C189.691 39.9856 185.318 35.4726 185.318 29.7545Z" fill="white"/>
<path d="M19.2598 29.0092C19.2598 23.6855 23.5664 19.3477 28.9006 19.3477C34.2129 19.3477 38.5415 23.6636 38.5415 29.0092C38.5415 34.3328 34.2348 38.6707 28.9006 38.6707C23.5883 38.6707 19.2598 34.3328 19.2598 29.0092Z" fill="#DDDDDD"/>
<path d="M0 48.3139C0 42.9902 4.30668 38.6523 9.64085 38.6523H19.2817V48.3139C19.2817 53.6375 14.975 57.9754 9.64085 57.9754C4.30668 57.9754 0 53.6594 0 48.3139Z" fill="white"/>
<path d="M19.2598 0.0492519V19.3504H28.9006C34.2129 19.3504 38.5415 15.0344 38.5415 9.68885C38.5415 4.36516 34.2348 0.0273438 28.9006 0.0273438H19.2598V0.0492519Z" fill="#DDDDDD"/>
<path d="M0 9.70838C0 15.0321 4.30668 19.3699 9.64085 19.3699H19.2817V0.046875H9.64085C4.30668 0.046875 0 4.36279 0 9.70838Z" fill="white"/>
<path d="M0 29.0092C0 34.3328 4.30668 38.6707 9.64085 38.6707H19.2817V19.3477H9.64085C4.30668 19.3477 0 23.6855 0 29.0092Z" fill="white"/>
</g>
<defs>
<clipPath id="clip0_7185_3021">
<rect width="210" height="58" fill="white"/>
</clipPath>
</defs>
</svg>
