<svg width="193" height="67" viewBox="0 0 193 67" fill="none" xmlns="http://www.w3.org/2000/svg">
<g clip-path="url(#clip0_7185_3071)">
<path d="M185.099 39.6139C184.191 42.0789 181.926 43.4469 179.126 43.4469C174.971 43.4469 171.603 40.0474 171.603 35.8541C171.603 31.6607 174.971 28.2613 179.126 28.2613C181.926 28.2613 184.122 29.4667 185.1 32.0945H192.772C191.502 25.3564 185.95 21.0312 179.126 21.0312C171.015 21.0312 164.439 27.6676 164.439 35.8541C164.439 44.0404 171.015 50.6767 179.126 50.6767C185.95 50.6767 191.85 45.8379 192.772 39.6139H185.099Z" fill="white"/>
<path d="M153.501 21.7734H161.49V50.1503H153.501V21.7734Z" fill="white"/>
<path d="M162.294 14.9182C162.294 17.6064 160.135 19.7856 157.471 19.7856C154.807 19.7856 152.648 17.6064 152.648 14.9182C152.648 12.23 154.807 10.0508 157.471 10.0508C160.135 10.0508 162.294 12.23 162.294 14.9182Z" fill="white"/>
<path d="M130.618 25.2481C131.958 22.8071 135.002 21.1406 139.386 21.1406C146.474 21.1406 150.225 25.6941 150.225 32.4537V50.1511H142.236V33.2987C142.236 29.9892 140.775 27.7126 137.243 27.7126C133.371 27.7126 131.227 30.1067 131.227 33.8855V50.1277H123.238V21.7744H130.618V25.2481Z" fill="white"/>
<path fill-rule="evenodd" clip-rule="evenodd" d="M105.967 43.4458C110.122 43.4458 113.49 40.0464 113.49 35.8536C113.49 31.6605 110.122 28.2611 105.967 28.2611C101.813 28.2611 98.4444 31.6605 98.4444 35.8536C98.4444 40.0464 101.813 43.4458 105.967 43.4458ZM105.967 50.6757C114.078 50.6757 120.654 44.0396 120.654 35.8536C120.654 27.6674 114.078 21.0312 105.967 21.0312C97.856 21.0312 91.2808 27.6674 91.2808 35.8536C91.2808 44.0396 97.856 50.6757 105.967 50.6757Z" fill="white"/>
<path d="M80.4863 21.7734H88.4751V50.1503H80.4863V21.7734Z" fill="white"/>
<path d="M89.2792 14.9182C89.2792 17.6064 87.1199 19.7856 84.4564 19.7856C81.7925 19.7856 79.6333 17.6064 79.6333 14.9182C79.6333 12.23 81.7925 10.0508 84.4564 10.0508C87.1199 10.0508 89.2792 12.23 89.2792 14.9182Z" fill="white"/>
<path d="M7.96332 33.5C7.96332 19.4388 19.2534 8.04 33.1805 8.04C38.7869 8.04 43.9631 9.88409 48.1513 13.0096C49.2498 10.3992 51.4635 8.38248 54.1888 7.56919C48.4698 2.84147 41.1516 0 33.1805 0C14.8554 0 0 14.9985 0 33.5C0 52.0015 14.8554 67 33.1805 67C51.5056 67 66.361 52.0015 66.361 33.5C66.361 29.628 65.7088 25.903 64.5074 22.4354C62.8729 24.6666 60.3006 26.1551 57.3785 26.3077C58.0416 28.5856 58.3977 30.9984 58.3977 33.5C58.3977 47.5611 47.1075 58.96 33.1805 58.96C19.2534 58.96 7.96332 47.5611 7.96332 33.5Z" fill="white"/>
<path d="M65.6788 26.7108C65.3805 25.2486 64.9878 23.8205 64.5073 22.4336C62.8728 24.6647 60.3005 26.1533 57.3784 26.3059C57.8474 27.9171 58.1629 29.5958 58.3075 31.3258C61.3847 30.9439 64.0449 29.2005 65.6788 26.7108Z" fill="white"/>
<path d="M33.1805 48.1562C41.179 48.1562 47.697 41.588 47.697 33.5C47.697 25.4246 41.1914 18.8438 33.1805 18.8438C25.1697 18.8438 18.6641 25.4246 18.6641 33.5C18.6641 41.5754 25.1822 48.1562 33.1805 48.1562Z" fill="white"/>
<path d="M54.955 20.9375C58.9635 20.9375 62.2133 17.6566 62.2133 13.6094C62.2133 9.56216 58.9635 6.28125 54.955 6.28125C50.9465 6.28125 47.6968 9.56216 47.6968 13.6094C47.6968 17.6566 50.9465 20.9375 54.955 20.9375Z" fill="white"/>
</g>
<defs>
<clipPath id="clip0_7185_3071">
<rect width="193" height="67" fill="white"/>
</clipPath>
</defs>
</svg>
