<svg width="81" height="72" viewBox="0 0 81 72" fill="none" xmlns="http://www.w3.org/2000/svg">
<g clip-path="url(#clip0_7185_3122)">
<path d="M23.4853 0.28125C21.3123 0.285954 19.1851 1.51694 18.0913 3.39463L1.07688 32.8869C-0.000235169 34.7696 -0.000235169 37.2307 1.07688 39.1134L18.0913 68.606C19.1851 70.4837 21.3123 71.715 23.4853 71.7193H57.5142C59.6873 71.7146 61.8145 70.4837 62.9082 68.606L79.9226 39.1134C80.9998 37.2307 80.9994 34.7696 79.9226 32.8869L62.9082 3.39463C61.8145 1.51663 59.6873 0.285641 57.5142 0.28125L23.4853 0.28125ZM23.7943 17.5348C23.8411 17.5301 23.8902 17.5301 23.937 17.5348H29.8063C29.9367 17.5391 30.0639 17.5761 30.1761 17.6426C30.2883 17.709 30.3819 17.8027 30.4481 17.915L40.4048 35.6199C40.4551 35.7077 40.4872 35.8049 40.4991 35.9053C40.5117 35.8049 40.5438 35.7077 40.5941 35.6199L50.5269 17.915C50.5954 17.7996 50.6927 17.7038 50.8093 17.6372C50.9259 17.5706 51.0579 17.5353 51.1923 17.5348H57.0619C57.5814 17.5392 57.9709 18.1925 57.7273 18.6517L48.0081 36.0003L57.7273 53.3251C57.9938 53.7867 57.5953 54.4701 57.0619 54.4657H51.1923C51.0556 54.4629 50.922 54.424 50.8052 54.3531C50.6883 54.2821 50.5924 54.1816 50.5269 54.0618L40.5941 36.3566C40.5438 36.2691 40.5117 36.1715 40.4994 36.0715C40.4872 36.1719 40.4551 36.269 40.4048 36.3569L30.4478 54.0618C30.3845 54.1783 30.2923 54.2766 30.18 54.3473C30.0677 54.418 29.9392 54.4588 29.8066 54.4657H23.9367C23.4033 54.4705 23.0048 53.7867 23.2713 53.3251L32.9905 36.0003L23.2713 18.6517C23.0384 18.2327 23.3229 17.6242 23.7943 17.5348Z" fill="white"/>
</g>
<defs>
<clipPath id="clip0_7185_3122">
<rect width="81" height="72" fill="white"/>
</clipPath>
</defs>
</svg>
