<svg width="20" height="20" viewBox="0 0 20 20" fill="none" xmlns="http://www.w3.org/2000/svg">
<path d="M9.40833 14.407C9.44932 14.3693 9.49399 14.3358 9.54167 14.307C9.58421 14.274 9.63214 14.2487 9.68333 14.232C9.73296 14.2067 9.78647 14.1898 9.84167 14.182C10.0013 14.1483 10.1675 14.1658 10.3167 14.232C10.4201 14.2695 10.514 14.3292 10.5918 14.4069C10.6695 14.4847 10.7292 14.5786 10.7667 14.682C10.8133 14.7809 10.8362 14.8894 10.8333 14.9987C10.8347 15.107 10.8148 15.2146 10.775 15.3154C10.7267 15.4149 10.665 15.5075 10.5917 15.5904C10.5138 15.6676 10.4215 15.7287 10.3199 15.7702C10.2184 15.8116 10.1097 15.8327 10 15.832C9.89069 15.8348 9.78223 15.812 9.68333 15.7654C9.58235 15.7232 9.48933 15.664 9.40833 15.5904C9.3311 15.5125 9.27 15.4202 9.22852 15.3186C9.18705 15.2171 9.16603 15.1084 9.16667 14.9987C9.16798 14.8898 9.19063 14.7822 9.23333 14.682C9.273 14.5797 9.33247 14.4863 9.40833 14.407V14.407ZM12.875 10.9737C12.9175 10.9407 12.9655 10.9153 13.0167 10.8987C13.0652 10.8675 13.1188 10.845 13.175 10.832C13.2819 10.8071 13.3931 10.8071 13.5 10.832L13.65 10.882L13.8 10.957L13.925 11.057C14.0812 11.2209 14.1678 11.439 14.1667 11.6654C14.1673 11.775 14.1463 11.8838 14.1048 11.9853C14.0633 12.0868 14.0022 12.1792 13.925 12.257C13.844 12.3306 13.751 12.3898 13.65 12.432C13.5238 12.4839 13.3867 12.504 13.2509 12.4905C13.1151 12.477 12.9846 12.4303 12.8711 12.3546C12.7575 12.2789 12.6643 12.1764 12.5996 12.0563C12.5349 11.9361 12.5007 11.8018 12.5 11.6654C12.5031 11.4447 12.5894 11.2334 12.7417 11.0737L12.875 10.9737ZM12.7417 14.407C12.8209 14.3312 12.9144 14.2717 13.0167 14.232C13.1675 14.1621 13.3358 14.1389 13.5 14.1654L13.65 14.2154C13.7031 14.2336 13.7535 14.2588 13.8 14.2904C13.8437 14.3211 13.8854 14.3545 13.925 14.3904C14.0009 14.4696 14.0603 14.5631 14.1 14.6654C14.1441 14.7651 14.1669 14.873 14.1669 14.982C14.1669 15.0911 14.1441 15.1989 14.1 15.2987C14.0578 15.3997 13.9986 15.4927 13.925 15.5737C13.8485 15.6539 13.7568 15.7181 13.6552 15.7625C13.5536 15.8068 13.4442 15.8305 13.3333 15.832C13.224 15.8348 13.1156 15.812 13.0167 15.7654C12.9157 15.7232 12.8227 15.664 12.7417 15.5904C12.6681 15.5094 12.6089 15.4163 12.5667 15.3154C12.5226 15.2156 12.4998 15.1078 12.4998 14.9987C12.4998 14.8896 12.5226 14.7818 12.5667 14.682C12.6063 14.5797 12.6658 14.4863 12.7417 14.407V14.407ZM10.3167 10.8987C10.419 10.9384 10.5124 10.9978 10.5917 11.0737C10.7439 11.2334 10.8303 11.4447 10.8333 11.6654C10.8327 11.8018 10.7985 11.9361 10.7338 12.0563C10.6691 12.1764 10.5758 12.2789 10.4623 12.3546C10.3487 12.4303 10.2183 12.477 10.0825 12.4905C9.94664 12.504 9.80958 12.4839 9.68333 12.432C9.58235 12.3898 9.48933 12.3306 9.40833 12.257C9.3311 12.1792 9.27 12.0868 9.22852 11.9853C9.18705 11.8838 9.16603 11.775 9.16667 11.6654C9.16974 11.4447 9.25606 11.2334 9.40833 11.0737C9.52552 10.9581 9.67433 10.8797 9.83599 10.8486C9.99765 10.8174 10.1649 10.8349 10.3167 10.8987V10.8987ZM6.075 14.407C6.156 14.3334 6.24901 14.2742 6.35 14.232C6.50176 14.1682 6.66902 14.1508 6.83068 14.1819C6.99234 14.2131 7.14115 14.2914 7.25833 14.407C7.3342 14.4863 7.39367 14.5797 7.43333 14.682C7.47742 14.7818 7.50019 14.8896 7.50019 14.9987C7.50019 15.1078 7.47742 15.2156 7.43333 15.3154C7.39113 15.4163 7.33194 15.5094 7.25833 15.5904C7.18047 15.6676 7.08812 15.7287 6.98659 15.7702C6.88506 15.8116 6.77634 15.8327 6.66667 15.832C6.55735 15.8348 6.4489 15.812 6.35 15.7654C6.24901 15.7232 6.156 15.664 6.075 15.5904C5.95937 15.4732 5.88104 15.3244 5.84989 15.1627C5.81875 15.001 5.83618 14.8338 5.9 14.682C5.93966 14.5797 5.99913 14.4863 6.075 14.407ZM6.66667 4.16536H13.3333C13.5543 4.16536 13.7663 4.25316 13.9226 4.40944C14.0789 4.56572 14.1667 4.77768 14.1667 4.9987V8.33203C14.1667 8.55304 14.0789 8.76501 13.9226 8.92129C13.7663 9.07757 13.5543 9.16536 13.3333 9.16536H6.66667C6.44565 9.16536 6.23369 9.07757 6.07741 8.92129C5.92113 8.76501 5.83333 8.55304 5.83333 8.33203V4.9987C5.83333 4.77768 5.92113 4.56572 6.07741 4.40944C6.23369 4.25316 6.44565 4.16536 6.66667 4.16536ZM7.5 7.4987H12.5V5.83203H7.5V7.4987ZM5 0.832031H15C15.663 0.832031 16.2989 1.09542 16.7678 1.56426C17.2366 2.03311 17.5 2.66899 17.5 3.33203V16.6654C17.5 17.3284 17.2366 17.9643 16.7678 18.4331C16.2989 18.902 15.663 19.1654 15 19.1654H5C4.33696 19.1654 3.70107 18.902 3.23223 18.4331C2.76339 17.9643 2.5 17.3284 2.5 16.6654V3.33203C2.5 2.66899 2.76339 2.03311 3.23223 1.56426C3.70107 1.09542 4.33696 0.832031 5 0.832031V0.832031ZM4.16667 16.6654C4.16667 16.8864 4.25446 17.0983 4.41074 17.2546C4.56702 17.4109 4.77899 17.4987 5 17.4987H15C15.221 17.4987 15.433 17.4109 15.5893 17.2546C15.7455 17.0983 15.8333 16.8864 15.8333 16.6654V3.33203C15.8333 3.11102 15.7455 2.89906 15.5893 2.74278C15.433 2.5865 15.221 2.4987 15 2.4987H5C4.77899 2.4987 4.56702 2.5865 4.41074 2.74278C4.25446 2.89906 4.16667 3.11102 4.16667 3.33203V16.6654ZM6.20833 10.9737C6.25088 10.9407 6.29881 10.9153 6.35 10.8987C6.39962 10.8733 6.45314 10.8564 6.50833 10.8487C6.61524 10.8238 6.72643 10.8238 6.83333 10.8487L6.98333 10.8987L7.13333 10.9737L7.25833 11.0737C7.41061 11.2334 7.49693 11.4447 7.5 11.6654C7.49932 11.8018 7.46513 11.9361 7.40042 12.0563C7.33572 12.1764 7.24249 12.2789 7.12893 12.3546C7.01536 12.4303 6.88494 12.477 6.74912 12.4905C6.6133 12.504 6.47625 12.4839 6.35 12.432C6.24901 12.3898 6.156 12.3306 6.075 12.257C5.99777 12.1792 5.93666 12.0868 5.89519 11.9853C5.85372 11.8838 5.8327 11.775 5.83333 11.6654C5.8364 11.4447 5.92272 11.2334 6.075 11.0737L6.20833 10.9737Z" fill="white"/>
</svg>
