<svg width="54" height="54" viewBox="0 0 54 54" fill="none" xmlns="http://www.w3.org/2000/svg">
<path d="M33.12 19.7775L23.4675 29.4525L19.755 25.74C19.5533 25.5045 19.3051 25.3132 19.0259 25.1781C18.7468 25.0431 18.4427 24.9672 18.1329 24.9552C17.823 24.9432 17.514 24.9954 17.2253 25.1086C16.9366 25.2217 16.6743 25.3933 16.455 25.6125C16.2358 25.8318 16.0642 26.094 15.9511 26.3828C15.838 26.6715 15.7857 26.9805 15.7977 27.2904C15.8097 27.6002 15.8856 27.9043 16.0206 28.1834C16.1557 28.4626 16.347 28.7108 16.5825 28.9125L21.87 34.2225C22.0803 34.431 22.3296 34.596 22.6037 34.708C22.8779 34.82 23.1714 34.8767 23.4675 34.875C24.0578 34.8725 24.6234 34.6382 25.0425 34.2225L36.2925 22.9725C36.5034 22.7633 36.6708 22.5145 36.785 22.2403C36.8993 21.9661 36.9581 21.672 36.9581 21.375C36.9581 21.078 36.8993 20.7839 36.785 20.5097C36.6708 20.2355 36.5034 19.9867 36.2925 19.7775C35.8709 19.3584 35.3007 19.1232 34.7063 19.1232C34.1118 19.1232 33.5416 19.3584 33.12 19.7775ZM27 4.5C22.5499 4.5 18.1998 5.8196 14.4997 8.29193C10.7996 10.7643 7.91569 14.2783 6.21272 18.3896C4.50975 22.501 4.06417 27.025 4.93234 31.3895C5.80051 35.7541 7.94343 39.7632 11.0901 42.9099C14.2368 46.0566 18.2459 48.1995 22.6105 49.0677C26.9751 49.9358 31.4991 49.4903 35.6104 47.7873C39.7217 46.0843 43.2357 43.2004 45.7081 39.5003C48.1804 35.8002 49.5 31.4501 49.5 27C49.5 24.0453 48.918 21.1194 47.7873 18.3896C46.6566 15.6598 44.9992 13.1794 42.9099 11.0901C40.8206 9.00078 38.3402 7.34344 35.6104 6.21271C32.8806 5.08198 29.9548 4.5 27 4.5ZM27 45C23.4399 45 19.9598 43.9443 16.9997 41.9665C14.0397 39.9886 11.7326 37.1774 10.3702 33.8883C9.0078 30.5992 8.65134 26.98 9.34588 23.4884C10.0404 19.9967 11.7547 16.7894 14.2721 14.2721C16.7894 11.7547 19.9967 10.0404 23.4884 9.34587C26.98 8.65133 30.5992 9.00779 33.8883 10.3702C37.1774 11.7325 39.9886 14.0397 41.9665 16.9997C43.9443 19.9598 45 23.4399 45 27C45 31.7739 43.1036 36.3523 39.7279 39.7279C36.3523 43.1036 31.7739 45 27 45Z" fill="white"/>
</svg>
