<svg width="40" height="40" viewBox="0 0 40 40" fill="none" xmlns="http://www.w3.org/2000/svg">
<rect width="40" height="40" fill="white" fill-opacity="0.05"/>
<path d="M24.4498 14.5513C24.2521 14.5513 24.0587 14.61 23.8943 14.7198C23.7298 14.8297 23.6016 14.9859 23.526 15.1686C23.4503 15.3513 23.4305 15.5524 23.4691 15.7464C23.5076 15.9404 23.6029 16.1186 23.7427 16.2584C23.8826 16.3983 24.0608 16.4935 24.2547 16.5321C24.4487 16.5707 24.6498 16.5509 24.8325 16.4752C25.0152 16.3995 25.1714 16.2713 25.2813 16.1069C25.3912 15.9424 25.4498 15.7491 25.4498 15.5513C25.4498 15.2861 25.3445 15.0317 25.1569 14.8442C24.9694 14.6567 24.7151 14.5513 24.4498 14.5513ZM28.2832 16.568C28.267 15.8766 28.1375 15.1925 27.8998 14.543C27.6879 13.9872 27.3582 13.484 26.9332 13.068C26.5205 12.6408 26.0161 12.3131 25.4582 12.1096C24.8104 11.8648 24.1255 11.7323 23.4332 11.718C22.5498 11.668 22.2665 11.668 19.9998 11.668C17.7332 11.668 17.4498 11.668 16.5665 11.718C15.8741 11.7323 15.1893 11.8648 14.5415 12.1096C13.9846 12.3152 13.4806 12.6426 13.0665 13.068C12.6394 13.4806 12.3117 13.985 12.1082 14.543C11.8633 15.1908 11.7308 15.8756 11.7165 16.568C11.6665 17.4513 11.6665 17.7346 11.6665 20.0013C11.6665 22.268 11.6665 22.5513 11.7165 23.4346C11.7308 24.127 11.8633 24.8118 12.1082 25.4596C12.3117 26.0176 12.6394 26.522 13.0665 26.9346C13.4806 27.36 13.9846 27.6874 14.5415 27.893C15.1893 28.1378 15.8741 28.2703 16.5665 28.2846C17.4498 28.3346 17.7332 28.3346 19.9998 28.3346C22.2665 28.3346 22.5498 28.3346 23.4332 28.2846C24.1255 28.2703 24.8104 28.1378 25.4582 27.893C26.0161 27.6895 26.5205 27.3618 26.9332 26.9346C27.36 26.5201 27.6901 26.0165 27.8998 25.4596C28.1375 24.8101 28.267 24.1261 28.2832 23.4346C28.2832 22.5513 28.3332 22.268 28.3332 20.0013C28.3332 17.7346 28.3332 17.4513 28.2832 16.568ZM26.7832 23.3346C26.7771 23.8636 26.6813 24.3877 26.4998 24.8846C26.3668 25.2473 26.1531 25.575 25.8748 25.843C25.6045 26.1184 25.2775 26.3317 24.9165 26.468C24.4196 26.6494 23.8955 26.7452 23.3665 26.7513C22.5332 26.793 22.2248 26.8013 20.0332 26.8013C17.8415 26.8013 17.5332 26.8013 16.6998 26.7513C16.1506 26.7616 15.6037 26.677 15.0832 26.5013C14.738 26.358 14.426 26.1453 14.1665 25.8763C13.8899 25.6086 13.6789 25.2806 13.5498 24.918C13.3464 24.4139 13.2335 23.8779 13.2165 23.3346C13.2165 22.5013 13.1665 22.193 13.1665 20.0013C13.1665 17.8096 13.1665 17.5013 13.2165 16.668C13.2202 16.1272 13.319 15.5913 13.5082 15.0846C13.6549 14.7329 13.8801 14.4194 14.1665 14.168C14.4197 13.8814 14.7326 13.6539 15.0832 13.5013C15.5911 13.318 16.1265 13.2222 16.6665 13.218C17.4998 13.218 17.8082 13.168 19.9998 13.168C22.1915 13.168 22.4998 13.168 23.3332 13.218C23.8621 13.224 24.3863 13.3198 24.8832 13.5013C25.2619 13.6418 25.6017 13.8703 25.8748 14.168C26.1479 14.424 26.3613 14.7369 26.4998 15.0846C26.685 15.5921 26.7809 16.1278 26.7832 16.668C26.8248 17.5013 26.8332 17.8096 26.8332 20.0013C26.8332 22.193 26.8248 22.5013 26.7832 23.3346ZM19.9998 15.7263C19.1547 15.7279 18.329 15.9801 17.627 16.4508C16.9251 16.9216 16.3785 17.5898 16.0562 18.3711C15.7339 19.1524 15.6504 20.0117 15.8163 20.8404C15.9822 21.6691 16.39 22.4301 16.9882 23.0271C17.5864 23.6242 18.3482 24.0305 19.1772 24.1948C20.0063 24.359 20.8654 24.2739 21.6461 23.9501C22.4267 23.6263 23.0939 23.0783 23.5633 22.3755C24.0327 21.6727 24.2832 20.8465 24.2832 20.0013C24.2843 19.4389 24.1742 18.8818 23.9592 18.3621C23.7442 17.8424 23.4286 17.3703 23.0306 16.973C22.6325 16.5757 22.1598 16.261 21.6397 16.0471C21.1195 15.8331 20.5622 15.7241 19.9998 15.7263ZM19.9998 22.7763C19.451 22.7763 18.9145 22.6136 18.4581 22.3086C18.0018 22.0037 17.6461 21.5703 17.4361 21.0632C17.226 20.5562 17.1711 19.9982 17.2782 19.4599C17.3852 18.9216 17.6495 18.4272 18.0376 18.0391C18.4257 17.651 18.9202 17.3867 19.4585 17.2796C19.9968 17.1725 20.5547 17.2275 21.0618 17.4375C21.5688 17.6476 22.0022 18.0032 22.3072 18.4596C22.6121 18.9159 22.7748 19.4525 22.7748 20.0013C22.7748 20.3657 22.7031 20.7266 22.5636 21.0632C22.4241 21.3999 22.2197 21.7058 21.9621 21.9635C21.7044 22.2212 21.3985 22.4256 21.0618 22.5651C20.7251 22.7045 20.3643 22.7763 19.9998 22.7763Z" fill="white"/>
</svg>
