<svg viewBox="0 0 693 201" fill="none" xmlns="http://www.w3.org/2000/svg">
<g clip-path="url(#clip0_7331_2562)">
<path d="M689.2 59.754C691.725 64.186 693.053 69.2012 693.053 74.3044C693.053 79.4077 691.725 84.4227 689.2 88.8547C686.56 92.9701 682.842 96.2794 678.452 98.4213C673.503 100.769 668.079 101.935 662.604 101.827H637.608C637.444 101.815 637.291 101.741 637.18 101.62C637.069 101.499 637.007 101.341 637.008 101.176V47.5828C637.007 47.4185 637.069 47.26 637.18 47.1393C637.291 47.0185 637.444 46.9443 637.608 46.9317H662.604C668.079 46.8236 673.503 47.9895 678.452 50.3377C682.823 52.4384 686.539 55.694 689.2 59.754ZM678.802 74.2793C678.903 71.2753 678.195 68.2994 676.752 65.6643C675.377 63.2855 673.346 61.355 670.903 60.1047C668.107 58.786 665.044 58.1345 661.954 58.2013H651.956C651.797 58.2013 651.644 58.2647 651.531 58.3774C651.419 58.4901 651.356 58.643 651.356 58.8024V89.8063C651.356 89.8853 651.371 89.9635 651.401 90.0364C651.431 90.1093 651.476 90.1755 651.531 90.2313C651.587 90.2872 651.653 90.3314 651.726 90.3617C651.799 90.3919 651.877 90.4074 651.956 90.4074H661.954C665.044 90.4743 668.107 89.8228 670.903 88.5041C673.36 87.2499 675.394 85.2989 676.752 82.8944C678.189 80.2567 678.896 77.2826 678.802 74.2793Z" fill="#D8E2EF"/>
<path d="M625.01 100.826C625.071 100.921 625.106 101.03 625.112 101.143C625.118 101.256 625.095 101.368 625.044 101.469C624.994 101.57 624.918 101.656 624.824 101.719C624.731 101.782 624.622 101.819 624.51 101.827H610.862C610.76 101.824 610.66 101.795 610.573 101.742C610.485 101.689 610.413 101.615 610.362 101.527L600.363 87.0516C600.285 87.0156 600.2 86.9969 600.113 86.9969C600.027 86.9969 599.942 87.0156 599.863 87.0516H590.665C590.506 87.0516 590.353 87.1149 590.24 87.2276C590.128 87.3403 590.065 87.4932 590.065 87.6526V101.427C590.065 101.599 589.996 101.765 589.874 101.887C589.753 102.009 589.587 102.078 589.415 102.078H576.617C576.533 102.078 576.451 102.061 576.375 102.028C576.299 101.994 576.23 101.946 576.174 101.884C576.117 101.823 576.074 101.751 576.047 101.672C576.02 101.593 576.01 101.51 576.017 101.427V47.5829C576.01 47.4998 576.02 47.4162 576.047 47.3374C576.074 47.2586 576.117 47.1863 576.174 47.1251C576.23 47.0638 576.299 47.015 576.375 46.9818C576.451 46.9485 576.533 46.9314 576.617 46.9317H600.413C604.821 46.8248 609.202 47.6616 613.261 49.386C616.738 50.801 619.692 53.2611 621.715 56.4275C623.739 59.594 624.732 63.311 624.56 67.0668C624.677 70.8332 623.668 74.5487 621.66 77.7354C619.807 80.5125 617.231 82.7294 614.211 84.1465C614.147 84.2029 614.096 84.2723 614.061 84.35C614.026 84.4277 614.008 84.512 614.008 84.5973C614.008 84.6826 614.026 84.7669 614.061 84.8446C614.096 84.9223 614.147 84.9917 614.211 85.0481L625.01 100.826ZM610.412 66.9165C610.48 65.6976 610.272 64.4791 609.805 63.3517C609.337 62.2243 608.622 61.2171 607.712 60.4052C605.402 58.7136 602.568 57.8973 599.713 58.1012H590.765C590.681 58.1009 590.599 58.1179 590.523 58.1512C590.447 58.1845 590.378 58.2333 590.322 58.2946C590.265 58.3558 590.222 58.4281 590.195 58.5069C590.168 58.5857 590.158 58.6692 590.165 58.7523V75.1809C590.165 75.3403 590.228 75.4932 590.34 75.6059C590.453 75.7186 590.606 75.782 590.765 75.782H599.713C602.579 76.0176 605.429 75.1787 607.712 73.4279C608.619 72.6136 609.333 71.6061 609.8 70.4792C610.267 69.3524 610.476 68.135 610.412 66.9165Z" fill="#D8E2EF"/>
<path d="M560.869 91.6596V101.176C560.876 101.259 560.865 101.343 560.838 101.422C560.811 101.5 560.768 101.573 560.712 101.634C560.655 101.695 560.587 101.744 560.511 101.777C560.435 101.811 560.352 101.828 560.269 101.827H547.321C547.148 101.827 546.983 101.759 546.861 101.637C546.739 101.514 546.671 101.349 546.671 101.176V48.1338C546.695 47.979 546.774 47.838 546.893 47.7368C547.013 47.6356 547.164 47.5809 547.321 47.5828H560.119C560.202 47.5825 560.285 47.5996 560.361 47.6329C560.437 47.6662 560.505 47.7149 560.562 47.7762C560.618 47.8374 560.661 47.9098 560.688 47.9886C560.715 48.0674 560.726 48.1509 560.719 48.234V91.7598L560.869 91.6596Z" fill="#D8E2EF"/>
<path d="M532.323 78.6871C533.938 81.0769 534.76 83.9162 534.672 86.8012C534.745 88.9748 534.265 91.1312 533.276 93.0676C532.288 95.0041 530.825 96.6568 529.023 97.8704C523.99 100.817 518.194 102.194 512.376 101.827H484.03C483.947 101.828 483.864 101.811 483.788 101.777C483.712 101.744 483.643 101.695 483.587 101.634C483.53 101.573 483.487 101.5 483.46 101.422C483.433 101.343 483.423 101.259 483.43 101.176V47.5829C483.423 47.4998 483.433 47.4163 483.46 47.3375C483.487 47.2586 483.53 47.1863 483.587 47.1251C483.643 47.0638 483.712 47.0151 483.788 46.9818C483.864 46.9485 483.947 46.9314 484.03 46.9317H510.826C516.407 46.5557 521.967 47.9394 526.724 50.8886C528.42 52.0029 529.818 53.5172 530.794 55.2986C531.77 57.0801 532.295 59.0743 532.323 61.1064C532.384 63.7714 531.635 66.392 530.173 68.6195C529.062 70.1525 527.671 71.4611 526.074 72.4762C525.967 72.523 525.876 72.6 525.812 72.6979C525.748 72.7957 525.713 72.9102 525.713 73.0272C525.713 73.1442 525.748 73.2586 525.812 73.3565C525.876 73.4544 525.967 73.5314 526.074 73.5781C528.583 74.6775 530.744 76.4443 532.323 78.6871ZM520.474 85.2485C520.525 84.3268 520.335 83.4077 519.923 82.5821C519.511 81.7564 518.891 81.0527 518.125 80.5403C516.031 79.3976 513.655 78.8763 511.276 79.0376H497.928C497.769 79.0376 497.616 79.1009 497.504 79.2136C497.391 79.3264 497.328 79.4792 497.328 79.6387V90.9083C497.328 91.0677 497.391 91.2206 497.504 91.3333C497.616 91.446 497.769 91.5094 497.928 91.5094H511.276C513.655 91.6707 516.031 91.1494 518.125 90.0067C518.914 89.4984 519.555 88.7912 519.985 87.9561C520.415 87.1209 520.618 86.1871 520.574 85.2485H520.474ZM517.775 63.0598C517.827 62.1892 517.652 61.3199 517.266 60.5381C516.88 59.7562 516.297 59.0889 515.575 58.602C513.606 57.466 511.343 56.9429 509.076 57.0994H497.928C497.769 57.0994 497.616 57.1628 497.504 57.2755C497.391 57.3882 497.328 57.5411 497.328 57.7005V68.4192C497.328 68.5786 497.391 68.7315 497.504 68.8442C497.616 68.9569 497.769 69.0202 497.928 69.0202H509.076C511.343 69.1767 513.606 68.6536 515.575 67.5176C516.316 67.0428 516.919 66.3807 517.322 65.598C517.726 64.8153 517.917 63.9398 517.875 63.0598H517.775Z" fill="#D8E2EF"/>
<path d="M470.882 91.3591V101.376C470.889 101.46 470.879 101.543 470.852 101.622C470.825 101.701 470.782 101.773 470.725 101.834C470.669 101.895 470.601 101.944 470.524 101.978C470.448 102.011 470.366 102.028 470.283 102.028H428.289C428.116 102.028 427.951 101.959 427.829 101.837C427.707 101.715 427.639 101.549 427.639 101.376V47.5828C427.639 47.4101 427.707 47.2445 427.829 47.1224C427.951 47.0003 428.116 46.9316 428.289 46.9316H469.233C469.405 46.9316 469.57 47.0003 469.692 47.1224C469.814 47.2445 469.883 47.4101 469.883 47.5828V57.6002C469.883 57.6836 469.866 57.766 469.833 57.8424C469.799 57.9188 469.751 57.9875 469.69 58.044C469.629 58.1005 469.556 58.1437 469.478 58.1708C469.399 58.1978 469.316 58.2082 469.233 58.2013H442.337C442.164 58.2013 441.999 58.2699 441.877 58.392C441.755 58.5141 441.687 58.6797 441.687 58.8524V68.3189C441.699 68.4828 441.773 68.6358 441.894 68.7473C442.014 68.8588 442.173 68.9204 442.337 68.9199H466.083C466.166 68.913 466.249 68.9234 466.328 68.9505C466.407 68.9776 466.479 69.0208 466.54 69.0773C466.601 69.1338 466.65 69.2024 466.683 69.2788C466.716 69.3552 466.733 69.4377 466.733 69.521V78.9875C466.733 79.0708 466.716 79.1533 466.683 79.2297C466.65 79.3061 466.601 79.3747 466.54 79.4312C466.479 79.4878 466.407 79.531 466.328 79.558C466.249 79.5851 466.166 79.5955 466.083 79.5885H442.337C442.164 79.5885 441.999 79.6571 441.877 79.7792C441.755 79.9013 441.687 80.067 441.687 80.2397V90.2571C441.687 90.4298 441.755 90.5954 441.877 90.7175C441.999 90.8396 442.164 90.9082 442.337 90.9082H470.432C470.542 90.9335 470.642 90.9892 470.722 91.0689C470.802 91.1486 470.857 91.2492 470.882 91.3591Z" fill="#D8E2EF"/>
<path d="M415.39 47.5828V77.6351C415.542 81.0548 415.001 84.4699 413.799 87.6743C412.598 90.8787 410.761 93.8061 408.399 96.2798C406.037 98.7535 403.2 100.722 400.058 102.067C396.916 103.412 393.535 104.106 390.119 104.106C386.702 104.106 383.321 103.412 380.179 102.067C377.037 100.722 374.2 98.7535 371.838 96.2798C369.477 93.8061 367.64 90.8787 366.438 87.6743C365.237 84.4699 364.695 81.0548 364.847 77.6351V47.5828C364.84 47.4998 364.851 47.4162 364.878 47.3374C364.905 47.2586 364.948 47.1862 365.004 47.125C365.061 47.0638 365.129 47.015 365.205 46.9817C365.282 46.9484 365.364 46.9314 365.447 46.9316H378.245C378.418 46.9316 378.583 47.0003 378.705 47.1224C378.827 47.2445 378.895 47.4101 378.895 47.5828V77.1844C378.545 81.0209 379.612 84.8527 381.895 87.9531C384.181 90.0508 387.168 91.2144 390.269 91.2144C393.369 91.2144 396.356 90.0508 398.642 87.9531C400.925 84.8527 401.992 81.0209 401.642 77.1844V47.5828C401.641 47.4184 401.703 47.26 401.814 47.1392C401.926 47.0185 402.078 46.9443 402.242 46.9316H414.74C414.912 46.9316 415.078 47.0003 415.2 47.1224C415.322 47.2445 415.39 47.4101 415.39 47.5828Z" fill="#D8E2EF"/>
<path d="M358.148 91.1086V101.126C358.155 101.209 358.145 101.293 358.118 101.371C358.091 101.45 358.048 101.523 357.991 101.584C357.935 101.645 357.866 101.694 357.79 101.727C357.714 101.76 357.631 101.777 357.548 101.777H317.854C317.682 101.777 317.516 101.709 317.395 101.586C317.273 101.464 317.204 101.299 317.204 101.126V47.5828C317.204 47.4101 317.273 47.2445 317.395 47.1224C317.516 47.0003 317.682 46.9316 317.854 46.9316H330.652C330.735 46.9314 330.818 46.9484 330.894 46.9817C330.97 47.015 331.039 47.0638 331.095 47.125C331.151 47.1862 331.195 47.2586 331.222 47.3374C331.249 47.4162 331.259 47.4998 331.252 47.5828V90.0067C331.252 90.1794 331.321 90.345 331.442 90.4671C331.564 90.5892 331.73 90.6578 331.902 90.6578H357.348C357.43 90.6271 357.518 90.6146 357.605 90.6214C357.692 90.6281 357.777 90.6539 357.853 90.6968C357.929 90.7398 357.995 90.7989 358.046 90.87C358.097 90.9411 358.132 91.0226 358.148 91.1086Z" fill="#D8E2EF"/>
<path d="M304.306 78.6871C305.922 81.0769 306.744 83.9162 306.656 86.8012C306.728 88.9748 306.248 91.1312 305.26 93.0676C304.271 95.004 302.808 96.6567 301.007 97.8704C295.976 100.825 290.178 102.204 284.359 101.827H256.063C255.891 101.827 255.725 101.759 255.603 101.637C255.482 101.515 255.413 101.349 255.413 101.176V47.5829C255.413 47.4102 255.482 47.2446 255.603 47.1225C255.725 47.0004 255.891 46.9317 256.063 46.9317H282.809C288.391 46.5557 293.95 47.9394 298.707 50.8886C300.366 52.0543 301.715 53.6079 302.639 55.4147C303.562 57.2215 304.032 59.2269 304.006 61.2566C304.053 63.9269 303.286 66.548 301.807 68.7697C300.695 70.3028 299.304 71.6114 297.707 72.6265C297.614 72.6851 297.538 72.7664 297.485 72.8628C297.431 72.9591 297.403 73.0674 297.403 73.1774C297.403 73.2875 297.431 73.3957 297.485 73.4921C297.538 73.5884 297.614 73.6697 297.707 73.7284C300.341 74.7037 302.634 76.4268 304.306 78.6871ZM292.358 85.2485C292.419 84.3307 292.239 83.413 291.835 82.5868C291.432 81.7607 290.819 81.055 290.058 80.5403C287.944 79.4038 285.554 78.8832 283.159 79.0376H269.811C269.732 79.0376 269.654 79.0532 269.582 79.0834C269.509 79.1136 269.443 79.1578 269.387 79.2136C269.331 79.2694 269.287 79.3358 269.257 79.4087C269.227 79.4816 269.211 79.5597 269.211 79.6386V90.9083C269.211 90.9872 269.227 91.0654 269.257 91.1383C269.287 91.2112 269.331 91.2775 269.387 91.3333C269.443 91.3891 269.509 91.4334 269.582 91.4636C269.654 91.4938 269.732 91.5094 269.811 91.5094H283.159C285.554 91.6638 287.944 91.1432 290.058 90.0067C290.823 89.484 291.438 88.7696 291.841 87.9347C292.245 87.0999 292.423 86.1737 292.358 85.2485ZM289.708 63.0598C289.761 62.1892 289.585 61.3199 289.2 60.5381C288.814 59.7562 288.231 59.0889 287.509 58.602C285.518 57.4731 283.242 56.9509 280.959 57.0994H269.811C269.732 57.0994 269.654 57.115 269.582 57.1452C269.509 57.1754 269.443 57.2197 269.387 57.2755C269.331 57.3313 269.287 57.3975 269.257 57.4705C269.227 57.5434 269.211 57.6216 269.211 57.7005V68.4192C269.211 68.4981 269.227 68.5762 269.257 68.6491C269.287 68.7221 269.331 68.7884 269.387 68.8442C269.443 68.9 269.509 68.9442 269.582 68.9744C269.654 69.0046 269.732 69.0202 269.811 69.0202H280.959C283.242 69.1687 285.518 68.6465 287.509 67.5176C288.249 67.0428 288.852 66.3807 289.256 65.598C289.659 64.8153 289.85 63.9398 289.808 63.0598H289.708Z" fill="#D8E2EF"/>
<path d="M274.561 143.35C273.59 144.275 272.444 144.996 271.19 145.469C269.937 145.943 268.601 146.159 267.262 146.104C265.199 146.218 263.162 145.597 261.513 144.351C260.792 143.74 260.222 142.97 259.849 142.101C259.476 141.231 259.31 140.287 259.363 139.343V130.026H255.813V126.921H259.363L260.113 121.912H263.012V126.921H272.011V130.026H263.012V138.792C262.96 139.381 263.03 139.975 263.22 140.536C263.409 141.096 263.713 141.611 264.112 142.047C265.033 142.815 266.217 143.193 267.412 143.099C268.408 143.144 269.401 142.956 270.311 142.548C271.181 142.148 271.989 141.625 272.711 140.995L274.561 143.35Z" fill="#D8E2EF"/>
<path d="M288.208 146.104C286.224 146.159 284.255 145.748 282.459 144.902C280.961 144.144 279.738 142.936 278.959 141.446C278.124 139.786 277.712 137.945 277.759 136.087C277.699 134.206 278.13 132.341 279.009 130.678C279.779 129.187 280.982 127.964 282.459 127.171C284.152 126.336 286.021 125.924 287.908 125.969C289.21 125.9 290.512 126.1 291.733 126.557C292.955 127.013 294.069 127.717 295.007 128.624C295.923 129.626 296.626 130.805 297.073 132.088C297.52 133.371 297.701 134.731 297.607 136.087V137.139H281.409C281.451 138.784 282.133 140.348 283.309 141.496C284.712 142.642 286.504 143.199 288.308 143.049C289.585 143.061 290.849 142.787 292.007 142.248C293.092 141.663 294.072 140.901 294.907 139.994L297.307 142.198C296.196 143.385 294.874 144.353 293.407 145.053C291.781 145.808 290 146.168 288.208 146.104ZM293.957 134.234C293.865 132.742 293.203 131.342 292.108 130.327C290.925 129.409 289.452 128.947 287.958 129.025C286.347 128.934 284.754 129.413 283.459 130.377C282.882 130.85 282.407 131.436 282.063 132.099C281.719 132.762 281.514 133.489 281.459 134.234H293.957Z" fill="#D8E2EF"/>
<path d="M312.355 146.104C310.481 146.128 308.629 145.699 306.956 144.852C305.438 144.063 304.186 142.844 303.356 141.346C302.487 139.733 302.056 137.919 302.106 136.087C302.11 134.34 302.539 132.621 303.356 131.078C304.18 129.551 305.431 128.297 306.956 127.472C308.629 126.625 310.481 126.196 312.355 126.22C313.822 126.204 315.279 126.458 316.654 126.971C317.893 127.405 319.015 128.119 319.934 129.057C320.853 129.995 321.544 131.132 321.954 132.381L318.354 133.282C317.91 132.083 317.106 131.051 316.054 130.327C314.972 129.614 313.7 129.248 312.405 129.275C311.194 129.25 310 129.562 308.955 130.177C307.973 130.761 307.176 131.612 306.656 132.631C306.082 133.781 305.79 135.052 305.806 136.337C305.775 137.587 306.05 138.825 306.606 139.944C307.126 140.963 307.923 141.814 308.905 142.398C309.966 143.016 311.178 143.328 312.405 143.3C313.785 143.332 315.137 142.91 316.254 142.097C317.319 141.268 318.104 140.132 318.504 138.842L322.104 139.643C321.635 141.68 320.422 143.466 318.704 144.652C316.785 145.773 314.57 146.28 312.355 146.104Z" fill="#D8E2EF"/>
<path d="M339.101 125.969C340.616 125.95 342.111 126.311 343.45 127.021C344.754 127.711 345.804 128.799 346.45 130.127C347.244 131.672 347.623 133.398 347.55 135.135V145.153H343.9V135.135C344.002 134.235 343.912 133.322 343.637 132.459C343.361 131.596 342.905 130.801 342.3 130.127C341.199 129.108 339.749 128.553 338.251 128.574C337.028 128.559 335.827 128.908 334.801 129.576C333.762 130.317 332.935 131.319 332.402 132.481C331.772 133.898 331.465 135.438 331.502 136.989V144.802H327.853V119.458H331.502V129.876C332.175 128.471 333.256 127.302 334.602 126.52C336.035 125.976 337.579 125.786 339.101 125.969Z" fill="#D8E2EF"/>
<path d="M365.598 125.969C367.115 125.924 368.617 126.288 369.947 127.021C371.225 127.728 372.255 128.812 372.896 130.127C373.643 131.687 374.003 133.405 373.946 135.135V145.153H370.247V135.135C370.338 134.243 370.253 133.341 369.996 132.481C369.738 131.621 369.314 130.821 368.747 130.127C368.226 129.616 367.608 129.216 366.929 128.949C366.251 128.683 365.526 128.555 364.798 128.574C363.574 128.559 362.374 128.908 361.348 129.576C360.308 130.317 359.481 131.319 358.949 132.481C358.338 133.902 358.047 135.442 358.099 136.989V144.802H354.449V126.721H358.099V130.427C358.772 129.022 359.852 127.853 361.198 127.071C362.548 126.338 364.062 125.959 365.598 125.969Z" fill="#D8E2EF"/>
<path d="M389.844 146.104C387.97 146.128 386.117 145.699 384.444 144.852C382.927 144.063 381.675 142.844 380.845 141.346C379.998 139.813 379.551 138.09 379.545 136.337C379.518 134.485 379.965 132.657 380.845 131.028C381.669 129.501 382.92 128.247 384.444 127.422C386.117 126.599 387.955 126.172 389.819 126.172C391.682 126.172 393.52 126.599 395.193 127.422C396.704 128.243 397.952 129.476 398.792 130.978C399.672 132.607 400.12 134.435 400.092 136.287C400.12 138.124 399.672 139.936 398.792 141.546C397.949 143.034 396.7 144.25 395.193 145.053C393.519 145.826 391.685 146.187 389.844 146.104ZM389.844 143.049C391.038 143.067 392.214 142.755 393.243 142.148C394.224 141.584 395.022 140.749 395.543 139.743C396.099 138.625 396.374 137.386 396.343 136.137C396.38 134.855 396.105 133.583 395.543 132.431C395.026 131.396 394.229 130.528 393.243 129.926C392.199 129.334 391.019 129.022 389.819 129.022C388.618 129.022 387.439 129.334 386.394 129.926C385.408 130.528 384.611 131.396 384.095 132.431C383.538 133.567 383.264 134.821 383.295 136.087C383.264 137.336 383.538 138.575 384.095 139.693C384.6 140.723 385.401 141.577 386.394 142.148C387.439 142.762 388.633 143.074 389.844 143.049Z" fill="#D8E2EF"/>
<path d="M409.541 120.009V145.353H405.892V120.009H409.541Z" fill="#D8E2EF"/>
<path d="M425.589 146.104C423.715 146.128 421.863 145.699 420.19 144.852C418.672 144.063 417.42 142.844 416.59 141.346C415.743 139.813 415.296 138.09 415.29 136.337C415.263 134.485 415.71 132.657 416.59 131.028C417.414 129.501 418.665 128.247 420.19 127.422C421.862 126.599 423.701 126.172 425.564 126.172C427.427 126.172 429.265 126.599 430.938 127.422C432.449 128.243 433.697 129.476 434.538 130.978C435.417 132.607 435.865 134.435 435.837 136.287C435.865 138.124 435.417 139.936 434.538 141.546C433.694 143.034 432.446 144.25 430.938 145.053C429.264 145.826 427.43 146.187 425.589 146.104ZM425.589 143.049C426.783 143.067 427.959 142.755 428.988 142.148C429.969 141.584 430.767 140.749 431.288 139.743C431.861 138.629 432.153 137.391 432.138 136.137C432.159 134.851 431.868 133.579 431.288 132.431C430.771 131.396 429.974 130.528 428.988 129.926C427.944 129.334 426.764 129.022 425.564 129.022C424.363 129.022 423.184 129.334 422.139 129.926C421.153 130.528 420.356 131.396 419.84 132.431C419.283 133.567 419.009 134.821 419.04 136.087C419.009 137.336 419.283 138.575 419.84 139.693C420.345 140.723 421.146 141.577 422.139 142.148C423.184 142.762 424.378 143.074 425.589 143.049Z" fill="#D8E2EF"/>
<path d="M446.385 152.766C444.782 152.838 443.195 152.418 441.836 151.564C441.268 151.212 440.803 150.717 440.487 150.128C440.171 149.539 440.016 148.877 440.036 148.208C440.007 147.298 440.27 146.403 440.786 145.654C441.336 144.915 442.034 144.301 442.836 143.851C442.467 143.546 442.161 143.171 441.936 142.749C441.754 142.34 441.668 141.894 441.686 141.446C441.693 140.797 441.903 140.167 442.286 139.643C442.746 139.047 443.325 138.552 443.986 138.191C443.193 137.576 442.53 136.81 442.036 135.937C441.576 135.038 441.336 134.042 441.336 133.032C441.318 131.713 441.74 130.426 442.536 129.375C443.456 128.262 444.643 127.401 445.986 126.871C447.574 126.233 449.275 125.927 450.985 125.969C452.391 125.954 453.79 126.157 455.134 126.57C456.28 126.903 457.338 127.484 458.234 128.273C458.424 127.502 458.863 126.815 459.483 126.32C460.091 125.832 460.855 125.583 461.633 125.619H463.483V128.624H461.833C461.338 128.529 460.829 128.529 460.333 128.624C460.145 128.697 459.975 128.811 459.837 128.959C459.698 129.106 459.595 129.283 459.534 129.476C460.23 130.454 460.598 131.629 460.583 132.831C460.623 134.192 460.18 135.523 459.333 136.588C458.452 137.709 457.274 138.559 455.934 139.042C454.345 139.676 452.645 139.982 450.935 139.944C449.375 139.951 447.823 139.715 446.335 139.243C446.022 139.372 445.747 139.579 445.536 139.844C445.345 140.067 445.238 140.351 445.235 140.645C445.241 140.858 445.293 141.067 445.388 141.257C445.483 141.448 445.619 141.615 445.785 141.747C446.238 142.065 446.783 142.223 447.335 142.198H455.134C456.896 142.091 458.646 142.547 460.133 143.5C460.727 143.933 461.202 144.509 461.517 145.174C461.831 145.839 461.974 146.572 461.933 147.307C461.973 148.055 461.83 148.803 461.516 149.483C461.203 150.164 460.728 150.758 460.133 151.213C458.658 152.197 456.903 152.672 455.134 152.566L446.385 152.766ZM454.934 149.861C455.809 149.921 456.681 149.711 457.434 149.26C457.722 149.07 457.956 148.809 458.114 148.502C458.272 148.195 458.347 147.852 458.334 147.507C458.34 147.175 458.266 146.847 458.118 146.551C457.97 146.254 457.752 145.998 457.484 145.804C456.744 145.366 455.892 145.156 455.034 145.203H447.835H445.785H445.486H445.186C444.746 145.506 444.358 145.878 444.036 146.305C443.74 146.693 443.582 147.169 443.586 147.657C443.577 148.002 443.655 148.343 443.812 148.649C443.969 148.955 444.201 149.217 444.486 149.41C445.266 149.934 446.199 150.181 447.135 150.111L454.934 149.861ZM450.885 137.189C452.417 137.254 453.934 136.852 455.234 136.037C455.74 135.723 456.158 135.284 456.448 134.762C456.738 134.241 456.89 133.654 456.89 133.057C456.89 132.46 456.738 131.873 456.448 131.351C456.158 130.83 455.74 130.391 455.234 130.077C453.944 129.237 452.42 128.833 450.885 128.925C449.365 128.833 447.857 129.237 446.585 130.077C446.079 130.391 445.661 130.83 445.371 131.351C445.081 131.873 444.929 132.46 444.929 133.057C444.929 133.654 445.081 134.241 445.371 134.762C445.661 135.284 446.079 135.723 446.585 136.037C447.87 136.845 449.369 137.247 450.885 137.189Z" fill="#D8E2EF"/>
<path d="M467.333 120.009H471.732V123.866H467.333V120.009ZM467.683 126.721H471.332V145.353H467.683V126.721Z" fill="#D8E2EF"/>
<path d="M487.329 146.104C485.361 146.167 483.406 145.754 481.63 144.902C480.118 144.147 478.878 142.939 478.081 141.446C477.274 139.766 476.855 137.926 476.855 136.062C476.855 134.198 477.274 132.357 478.081 130.678C478.872 129.185 480.091 127.964 481.58 127.171C483.254 126.331 485.108 125.918 486.979 125.969C488.289 125.899 489.599 126.098 490.828 126.555C492.058 127.012 493.181 127.716 494.128 128.624C495.035 129.63 495.729 130.811 496.167 132.093C496.606 133.376 496.779 134.735 496.678 136.087V137.139H480.48C480.5 137.959 480.682 138.766 481.017 139.515C481.352 140.263 481.832 140.937 482.43 141.496C483.828 142.652 485.624 143.21 487.429 143.049C488.691 143.062 489.938 142.788 491.079 142.248C492.179 141.664 493.176 140.903 494.028 139.994L496.378 142.198C495.287 143.406 493.96 144.378 492.479 145.053C490.869 145.806 489.105 146.166 487.329 146.104ZM493.129 134.234C493.017 132.747 492.358 131.354 491.279 130.327C490.073 129.417 488.588 128.957 487.08 129.025C485.468 128.934 483.876 129.413 482.58 130.377C481.432 131.348 480.713 132.734 480.58 134.234H493.129Z" fill="#D8E2EF"/>
<path d="M511.576 146.104C509.142 146.21 506.724 145.657 504.577 144.502C503.693 143.982 502.948 143.255 502.408 142.382C501.868 141.509 501.548 140.517 501.478 139.493L504.977 138.942C505.076 139.596 505.321 140.219 505.693 140.765C506.065 141.311 506.555 141.767 507.127 142.097C508.517 142.748 510.043 143.057 511.576 142.999C512.973 143.096 514.371 142.82 515.626 142.198C516.078 142.019 516.467 141.709 516.743 141.307C517.019 140.906 517.17 140.431 517.175 139.944C517.18 139.564 517.073 139.191 516.869 138.87C516.664 138.55 516.371 138.296 516.025 138.141C514.892 137.68 513.695 137.393 512.476 137.289H511.226H509.976C508.515 137.142 507.074 136.84 505.677 136.387C504.648 136.033 503.72 135.431 502.977 134.634C502.289 133.848 501.931 132.825 501.977 131.779C501.962 130.946 502.172 130.124 502.586 129.401C502.999 128.677 503.601 128.08 504.327 127.672C506.258 126.578 508.461 126.057 510.676 126.17C512.995 126.04 515.303 126.579 517.325 127.722C518.139 128.195 518.841 128.838 519.385 129.607C519.928 130.377 520.3 131.254 520.475 132.18L516.925 132.781C516.788 132.193 516.531 131.641 516.169 131.158C515.808 130.675 515.35 130.273 514.826 129.976C513.525 129.385 512.103 129.11 510.676 129.175C509.41 129.111 508.146 129.334 506.977 129.826C506.077 130.327 505.577 130.928 505.577 131.679C505.578 132.078 505.703 132.467 505.937 132.791C506.17 133.114 506.499 133.356 506.877 133.482C508.153 133.928 509.48 134.214 510.826 134.334H511.576C513.262 134.488 514.933 134.773 516.575 135.185C517.73 135.441 518.798 135.993 519.675 136.788C520.109 137.206 520.446 137.714 520.662 138.277C520.878 138.839 520.968 139.443 520.925 140.044C520.965 141.242 520.575 142.415 519.825 143.35C519.016 144.369 517.918 145.12 516.675 145.503C515.027 146.015 513.298 146.218 511.576 146.104Z" fill="#D8E2EF"/>
<path d="M199.771 87.3521C202.798 110.398 197.756 133.782 185.504 153.521C173.252 173.259 154.548 188.131 132.578 195.603C110.609 203.075 86.7339 202.684 65.0202 194.497C43.3064 186.31 25.0976 170.833 13.496 150.704C1.89437 130.575 -2.38226 107.038 1.39463 84.1038C5.17153 61.1696 16.7683 40.2568 34.2093 24.9285C51.6502 9.60007 73.8563 0.804372 97.0442 0.0399209C120.232 -0.72453 142.967 6.58955 161.376 20.7361C171.855 28.7439 180.645 38.7551 187.235 50.1899C193.826 61.6247 198.087 74.256 199.771 87.3521ZM177.374 159.578C188.302 145.3 195.054 128.259 196.876 110.359C198.698 92.4589 195.519 74.4036 187.692 58.2091C179.866 42.0145 167.701 28.3181 152.555 18.6489C137.41 8.97972 119.88 3.71834 101.923 3.45223C83.966 3.18613 66.2885 7.92575 50.8642 17.1419C35.4399 26.3581 22.8759 39.6881 14.5749 55.6436C6.2739 71.5992 2.56266 89.5523 3.85552 107.499C5.14838 125.445 11.3944 142.678 21.8964 157.274C13.1719 135.502 12.3516 111.353 19.5782 89.0368C26.8048 66.721 41.62 47.6543 61.4407 35.1612C66.4497 31.9979 71.7178 29.2666 77.1884 26.997C84.3948 24.0243 92.3207 23.2656 99.9585 24.8175C107.596 26.3693 114.601 30.1616 120.082 35.7122C120.832 36.4635 121.532 37.2648 122.282 38.1664L122.732 38.7173L123.432 39.669V39.9195C125.942 43.2732 129.193 45.999 132.93 47.8833C135.767 49.2912 138.462 50.9684 140.979 52.892C141.758 53.4778 142.348 54.2786 142.679 55.1961C142.704 55.2908 142.706 55.3903 142.684 55.4858C142.662 55.5813 142.617 55.67 142.552 55.7441C142.488 55.8182 142.407 55.8754 142.316 55.9108C142.225 55.9463 142.126 55.9588 142.029 55.9474C140.079 55.6468 138.23 55.4465 136.38 55.0458C133.81 54.5252 131.273 53.8562 128.781 53.0423L125.981 52.2409L124.082 51.69C122.342 51.3069 120.55 51.2222 118.782 51.4395C115.741 51.8816 112.902 53.2314 110.637 55.313C108.372 57.3947 106.786 60.1117 106.084 63.1099C105.903 63.818 105.769 64.5375 105.684 65.2636C105.342 69.5804 105.68 73.9242 106.684 78.136C109.634 90.3072 118.382 100.826 132.68 109.441C142.348 115.122 150.631 122.89 156.927 132.18C157.777 129.676 158.577 127.171 159.227 124.517C164.166 105.191 163.013 84.808 155.927 66.1652C165.709 84.2948 168.075 105.523 162.526 125.368C161.608 128.929 160.506 132.44 159.227 135.887C161.063 139.092 162.635 142.442 163.926 145.904C172.611 129.876 176.58 111.71 175.374 93.5128C179.298 113.016 175.727 133.284 165.376 150.262C165.826 151.664 166.176 153.016 166.476 154.319C167.629 159.247 168.266 164.283 168.375 169.345C171.589 166.294 174.595 163.031 177.374 159.578ZM164.776 172.801C164.986 166.753 164.38 160.705 162.976 154.82C160.811 145.956 156.849 137.633 151.336 130.369C145.823 123.105 138.877 117.055 130.931 112.596C115.933 103.43 106.384 92.1103 103.185 78.8873C102.042 74.1529 101.688 69.2622 102.135 64.4121C102.135 63.8612 102.135 63.2601 102.135 62.659C103.347 57.8947 106.316 53.7677 110.444 51.1095C114.572 48.4513 119.553 47.4595 124.382 48.3341C124.394 48.1673 124.394 48 124.382 47.8333C122.05 42.9291 118.639 38.6188 114.405 35.2265C110.17 31.8343 105.223 29.4486 99.9352 28.2491C95.824 27.2932 91.5788 27.0559 87.3869 27.5479C84.2939 27.9441 81.2676 28.7526 78.3883 29.9521L76.7385 30.6032C71.9966 32.6755 67.4177 35.1032 63.0405 37.8659C42.0015 51.1938 26.8931 72.127 20.8516 96.3202C14.81 120.513 18.2993 146.108 30.5951 167.792C33.9265 171.269 37.5199 174.484 41.3436 177.409C47.2935 181.981 53.7524 185.847 60.5909 188.929C51.0884 177.317 44.3002 163.722 40.7238 149.141C37.1475 134.559 36.8737 119.36 39.9226 104.659C42.9714 89.957 49.2655 76.1255 58.3436 64.178C67.4217 52.2305 79.0535 42.47 92.3862 35.612C91.6363 36.8641 90.5865 38.9177 89.5866 40.9212C85.0524 49.2965 82.4875 58.599 82.0877 68.1186C81.978 76.4698 84.0459 84.7051 88.0869 92.0101C94.171 102.263 102.777 110.782 113.083 116.753C123.843 123.239 133.084 131.968 140.179 142.348C145.602 150.429 149.484 159.446 151.628 168.944C152.575 173.03 153.21 177.183 153.527 181.366C157.481 178.79 161.241 175.928 164.776 172.801ZM149.778 183.67C149.529 178.928 148.86 174.218 147.778 169.595C145.717 160.646 142.022 152.155 136.88 144.552C130.108 134.628 121.274 126.29 110.984 120.109C100.029 113.833 90.8967 104.804 84.4874 93.9135C80.0987 86.0197 77.8736 77.1027 78.0383 68.0685C78.1895 60.1192 79.8877 52.2758 83.0376 44.9782C80.6379 46.6311 78.3382 48.3842 76.0885 49.987C72.1307 58.2715 69.967 67.3013 69.7395 76.4831C69.595 84.7444 71.4294 92.92 75.0888 100.325C80.2767 110.311 87.9367 118.796 97.3355 124.968C115.066 137.188 127.335 155.86 131.531 177.008C132.481 181.749 133.083 186.554 133.33 191.383C139.117 189.403 144.707 186.888 150.028 183.87L149.778 183.67ZM129.781 192.786C129.619 187.737 129.034 182.71 128.031 177.759C126.21 168.929 122.933 160.465 118.332 152.716C112.526 143.052 104.697 134.764 95.3858 128.424C85.4568 121.837 77.3695 112.82 71.8892 102.228C67.9883 94.2529 66.035 85.4631 66.1901 76.5833C66.3141 69.7637 67.4946 63.0049 69.6895 56.5484C66.6307 59.6141 63.7751 62.8768 61.1407 66.3154C47.1102 84.6346 40.0573 107.365 41.2484 130.425C42.4396 153.485 51.7967 175.364 67.6397 192.134C82.1205 197.409 97.6528 199.127 112.933 197.143C118.677 196.188 124.33 194.747 129.831 192.836L129.781 192.786Z" fill="#D8E2EF"/>
<path d="M148.028 169.796C149.11 174.419 149.779 179.129 150.028 183.87C144.814 186.975 138.694 189.907 133 192C132.752 187.171 131.95 182.241 131 177.5C126.804 156.352 115.366 137.489 97.6357 125.268C88.237 119.097 79.1881 110.487 74.0001 100.5C70.3407 93.0954 69.3553 83.7613 69.4998 75.5C69.7273 66.3182 71.5419 57.7846 75.4998 49.5C77.7495 47.6468 81.6003 45.4024 84 44C80.8501 51.2976 78.4898 60.4197 78.3385 68.369C78.1738 77.4033 80.3989 86.3203 84.7876 94.214C91.1969 105.105 101.045 113.224 112 119.5C122.29 125.681 130.408 134.929 137.18 144.852C142.293 152.429 145.971 160.885 148.028 169.796Z" fill="#D8E2EF"/>
</g>
<defs>
<clipPath id="clip0_7331_2562">
<rect width="693" height="201" fill="white"/>
</clipPath>
</defs>
</svg>
