<svg width="32" height="32" viewBox="0 0 32 32" fill="none" xmlns="http://www.w3.org/2000/svg">
<path d="M27.25 8.25C27.25 10.3211 22.2132 12 16 12C9.7868 12 4.75 10.3211 4.75 8.25M27.25 8.25C27.25 6.17893 22.2132 4.5 16 4.5C9.7868 4.5 4.75 6.17893 4.75 8.25M27.25 8.25V25.75C27.25 27.825 22.25 29.5 16 29.5C9.75 29.5 4.75 27.825 4.75 25.75V8.25M27.25 17C27.25 19.075 22.25 20.75 16 20.75C9.75 20.75 4.75 19.075 4.75 17" stroke="white" stroke-width="3.75" stroke-linecap="round" stroke-linejoin="round"/>
</svg>
