<svg width="32" height="32" viewBox="0 0 32 32" fill="none" xmlns="http://www.w3.org/2000/svg">
<rect width="32" height="32" rx="16" fill="#0E1635"/>
<path d="M27.5837 14.3169C27.9411 17.0382 27.3457 19.7996 25.8989 22.1305C24.4521 24.4614 22.2434 26.2176 19.6491 27.0999C17.0548 27.9822 14.2355 27.9361 11.6714 26.9693C9.10724 26.0025 6.95702 24.1749 5.58702 21.7979C4.21701 19.4209 3.712 16.6415 4.158 13.9333C4.604 11.2251 5.97343 8.75552 8.03299 6.94544C10.0925 5.13535 12.7148 4.09669 15.453 4.00642C18.1912 3.91615 20.8759 4.77985 23.0498 6.45037C24.2872 7.39599 25.3251 8.57818 26.1034 9.92849C26.8817 11.2788 27.3848 12.7704 27.5837 14.3169ZM24.9389 22.8458C26.2294 21.1597 27.0267 19.1475 27.2419 17.0337C27.457 14.9199 27.0815 12.7878 26.1574 10.8754C25.2332 8.96308 23.7966 7.34571 22.0081 6.2039C20.2197 5.0621 18.1496 4.4408 16.0291 4.40937C13.9086 4.37795 11.8211 4.93764 9.99972 6.02595C8.17831 7.11426 6.69466 8.68836 5.71442 10.5725C4.73418 12.4566 4.29593 14.5767 4.4486 16.6959C4.60127 18.8151 5.33885 20.8501 6.57899 22.5737C5.54875 20.0027 5.45187 17.151 6.30524 14.5158C7.15862 11.8806 8.9081 9.62906 11.2487 8.15379C11.8402 7.78024 12.4623 7.45772 13.1083 7.1897C13.9592 6.83866 14.8952 6.74908 15.7971 6.93233C16.6991 7.11559 17.5262 7.5634 18.1735 8.21885C18.262 8.30757 18.3447 8.4022 18.4332 8.50867L18.4864 8.57373L18.569 8.68611V8.71568C18.8654 9.11172 19.2493 9.4336 19.6907 9.65611C20.0256 9.82236 20.3439 10.0204 20.6411 10.2476C20.7331 10.3168 20.8028 10.4113 20.8419 10.5197C20.8448 10.5308 20.845 10.5426 20.8424 10.5539C20.8398 10.5651 20.8345 10.5756 20.8269 10.5844C20.8194 10.5931 20.8098 10.5999 20.799 10.6041C20.7882 10.6082 20.7766 10.6097 20.7651 10.6084C20.5349 10.5729 20.3164 10.5492 20.098 10.5019C19.7946 10.4404 19.495 10.3614 19.2007 10.2653L18.8701 10.1707L18.6458 10.1056C18.4403 10.0604 18.2287 10.0504 18.02 10.0761C17.6608 10.1283 17.3256 10.2876 17.0581 10.5335C16.7907 10.7793 16.6033 11.1001 16.5205 11.4542C16.4991 11.5378 16.4833 11.6228 16.4733 11.7085C16.4329 12.2183 16.4727 12.7312 16.5913 13.2286C16.9396 14.6658 17.9728 15.9079 19.6612 16.9252C20.8028 17.5961 21.7809 18.5134 22.5244 19.6105C22.6247 19.3147 22.7192 19.019 22.7959 18.7055C23.3792 16.4235 23.2431 14.0164 22.4063 11.815C23.5614 13.9558 23.8408 16.4627 23.1856 18.8061C23.0771 19.2265 22.947 19.6411 22.7959 20.0482C23.0128 20.4267 23.1984 20.8223 23.3508 21.2311C24.3764 19.3384 24.8452 17.1932 24.7028 15.0444C25.1661 17.3474 24.7445 19.7408 23.5221 21.7457C23.5752 21.9113 23.6165 22.071 23.6519 22.2248C23.7881 22.8068 23.8633 23.4015 23.8763 23.9991C24.2557 23.6388 24.6107 23.2535 24.9389 22.8458ZM23.4512 24.4073C23.476 23.6931 23.4045 22.9789 23.2387 22.2839C22.983 21.2372 22.5152 20.2544 21.8642 19.3966C21.2132 18.5388 20.3929 17.8244 19.4545 17.2978C17.6835 16.2155 16.5559 14.8788 16.1781 13.3173C16.0432 12.7582 16.0013 12.1807 16.0541 11.6079C16.0541 11.5429 16.0541 11.4719 16.0541 11.4009C16.1972 10.8383 16.5478 10.351 17.0353 10.0371C17.5228 9.72319 18.1109 9.60607 18.6812 9.70934C18.6826 9.68965 18.6826 9.66989 18.6812 9.6502C18.4059 9.07109 18.0031 8.56209 17.503 8.16151C17.003 7.76093 16.4188 7.47921 15.7944 7.33757C15.3089 7.22468 14.8076 7.19667 14.3126 7.25476C13.9473 7.30154 13.59 7.39702 13.25 7.53866L13.0551 7.61556C12.4952 7.86026 11.9545 8.14695 11.4376 8.47318C8.95315 10.047 7.16904 12.519 6.45562 15.3759C5.74219 18.2328 6.15423 21.2552 7.6062 23.8158C7.99959 24.2264 8.42392 24.606 8.87545 24.9514C9.57806 25.4913 10.3408 25.9478 11.1483 26.3118C10.0262 24.9406 9.22459 23.3352 8.80227 21.6133C8.37995 19.8914 8.34762 18.0966 8.70765 16.3605C9.06768 14.6245 9.81093 12.9911 10.8829 11.5803C11.9549 10.1695 13.3285 9.01686 14.9029 8.20702C14.8144 8.35489 14.6904 8.59739 14.5723 8.83397C14.0369 9.82299 13.734 10.9215 13.6868 12.0456C13.6739 13.0318 13.9181 14.0043 14.3952 14.8669C15.1137 16.0776 16.13 17.0836 17.347 17.7888C18.6176 18.5546 19.7088 19.5854 20.5467 20.8111C21.187 21.7654 21.6454 22.8303 21.8986 23.9518C22.0104 24.4344 22.0854 24.9247 22.1229 25.4187C22.5898 25.1145 23.0337 24.7765 23.4512 24.4073ZM21.6802 25.6907C21.6507 25.1308 21.5717 24.5746 21.444 24.0287C21.2006 22.9719 20.7643 21.9693 20.1571 21.0714C19.3574 19.8996 18.3142 18.915 17.099 18.185C15.8054 17.4439 14.727 16.3777 13.9702 15.0917C13.4519 14.1595 13.1892 13.1065 13.2086 12.0397C13.2265 11.101 13.427 10.1748 13.799 9.31306C13.5156 9.50824 13.244 9.71526 12.9784 9.90452C12.511 10.8828 12.2555 11.9491 12.2286 13.0334C12.2116 14.0089 12.4282 14.9744 12.8603 15.8488C13.473 17.0281 14.3775 18.03 15.4874 18.7588C17.5811 20.2019 19.03 22.4068 19.5254 24.9041C19.6377 25.4639 19.7087 26.0313 19.7379 26.6016C20.4212 26.3678 21.0813 26.0708 21.7097 25.7144L21.6802 25.6907ZM19.3188 26.7672C19.2996 26.171 19.2305 25.5774 19.1121 24.9928C18.8971 23.9501 18.5101 22.9506 17.9669 22.0355C17.2812 20.8943 16.3567 19.9156 15.2571 19.1669C14.0847 18.389 13.1297 17.3243 12.4825 16.0735C12.0219 15.1318 11.7912 14.0938 11.8095 13.0452C11.8242 12.2399 11.9636 11.4418 12.2227 10.6793C11.8615 11.0414 11.5243 11.4267 11.2132 11.8327C9.55642 13.996 8.72356 16.6801 8.86422 19.4032C9.00488 22.1263 10.1098 24.71 11.9807 26.6903C13.6907 27.3132 15.5249 27.516 17.3293 27.2818C18.0075 27.169 18.6751 26.9989 19.3247 26.7731L19.3188 26.7672Z" fill="#D8E2EF"/>
<path d="M21.4735 24.0541C21.6012 24.6 21.6803 25.1562 21.7097 25.7161C21.094 26.0827 20.3712 26.4289 19.6988 26.6761C19.6696 26.1058 19.5749 25.5237 19.4627 24.9638C18.9672 22.4665 17.6166 20.239 15.5228 18.7959C14.4129 18.0672 13.3444 17.0504 12.7317 15.8711C12.2996 14.9968 12.1833 13.8945 12.2003 12.919C12.2272 11.8347 12.4415 10.827 12.9088 9.8487C13.1745 9.62986 13.6292 9.36483 13.9126 9.19922C13.5406 10.061 13.2619 11.1382 13.2441 12.0769C13.2246 13.1437 13.4874 14.1967 14.0056 15.1288C14.7625 16.4149 15.9254 17.3737 17.219 18.1148C18.4342 18.8447 19.3928 19.9368 20.1925 21.1086C20.7963 22.0033 21.2305 23.0018 21.4735 24.0541Z" fill="#D8E2EF"/>
</svg>
