<svg width="128" height="37" viewBox="0 0 128 37" fill="none" xmlns="http://www.w3.org/2000/svg">
<path d="M57.501 22.2414C57.0334 22.7199 56.4897 23.0978 55.8699 23.3751C55.2501 23.6469 54.5786 23.7829 53.8554 23.7829C53.3716 23.7829 52.9012 23.7203 52.4445 23.5952C51.9932 23.4647 51.5692 23.2826 51.1723 23.0488C50.7754 22.8096 50.4138 22.5269 50.0876 22.2006C49.7614 21.8744 49.4786 21.5129 49.2394 21.116C49.0056 20.7136 48.8234 20.2868 48.693 19.8355C48.5679 19.3788 48.5054 18.9058 48.5054 18.4165C48.5054 17.9271 48.5679 17.4568 48.693 17.0056C48.8234 16.5488 49.0056 16.122 49.2394 15.7251C49.4786 15.3282 49.7614 14.9666 50.0876 14.6404C50.4138 14.3142 50.7754 14.0342 51.1723 13.8004C51.5692 13.5666 51.9932 13.3872 52.4445 13.2621C52.8958 13.1317 53.3661 13.0664 53.8554 13.0664C54.5786 13.0664 55.2501 13.2051 55.8699 13.4823C56.4897 13.7542 57.0334 14.1293 57.501 14.6078V13.6128C57.501 13.3736 57.6206 13.254 57.8598 13.254H58.7C58.9553 13.254 59.0833 13.3736 59.0833 13.6128V23.2609C59.0833 23.3696 59.048 23.4566 58.9773 23.5219C58.9067 23.5871 58.8222 23.6197 58.7243 23.6197H57.8762C57.762 23.6197 57.6695 23.5844 57.5989 23.5137C57.5336 23.443 57.501 23.3587 57.501 23.2609V22.2414ZM57.5825 18.4165C57.5825 17.9054 57.4847 17.4187 57.289 16.9566C57.0932 16.489 56.8268 16.0812 56.4897 15.7332C56.1526 15.3853 55.7557 15.108 55.299 14.9014C54.8477 14.6948 54.3665 14.5915 53.8554 14.5915C53.3444 14.5915 52.8632 14.6948 52.4119 14.9014C51.9661 15.108 51.5746 15.3853 51.2375 15.7332C50.9058 16.0812 50.6421 16.489 50.4464 16.9566C50.2561 17.4187 50.161 17.9054 50.161 18.4165C50.161 18.9221 50.2561 19.4087 50.4464 19.8763C50.6421 20.3439 50.9058 20.7571 51.2375 21.116C51.5746 21.4693 51.9661 21.7521 52.4119 21.9642C52.8632 22.1762 53.3444 22.2822 53.8554 22.2822C54.3665 22.2822 54.8477 22.1762 55.299 21.9642C55.7557 21.7521 56.1526 21.4693 56.4897 21.116C56.8268 20.7571 57.0932 20.3439 57.289 19.8763C57.4847 19.4087 57.5825 18.9221 57.5825 18.4165ZM71.5905 22.4127C71.433 22.603 71.2669 22.7742 71.0932 22.9265C70.9247 23.0733 70.7314 23.1984 70.5143 23.3017C70.3018 23.4049 70.0598 23.4838 69.7883 23.5381C69.5162 23.5925 69.2012 23.6197 68.8423 23.6197C68.1736 23.6197 67.5837 23.5056 67.0725 23.2772C66.5613 23.0434 66.1318 22.728 65.7838 22.3311C65.4411 21.9288 65.1806 21.4585 65.0011 20.9202C64.8268 20.3819 64.74 19.8056 64.74 19.1912V13.6536C64.74 13.4688 64.7863 13.3301 64.8784 13.2377C64.9762 13.1453 65.0989 13.099 65.2454 13.099H65.8492C66.0501 13.099 66.1781 13.1398 66.2325 13.2213C66.2921 13.3029 66.3222 13.4388 66.3222 13.6291V19.1912C66.3222 19.5175 66.3656 19.8519 66.4525 20.1944C66.5451 20.5315 66.6916 20.8387 66.893 21.116C67.0997 21.3933 67.3712 21.6189 67.7088 21.7928C68.0457 21.9669 68.4591 22.0538 68.9482 22.0538C69.258 22.0538 69.5683 21.9995 69.878 21.8907C70.1935 21.7766 70.476 21.6107 70.7261 21.3933C70.9814 21.1758 71.1881 20.9093 71.3462 20.594C71.5089 20.2732 71.5905 19.9035 71.5905 19.4848V13.4579C71.5905 13.2187 71.7103 13.099 71.9494 13.099H72.7894C73.0448 13.099 73.1727 13.2187 73.1727 13.4579V23.0978C73.1727 23.2065 73.1374 23.2935 73.0668 23.3587C72.9961 23.424 72.9116 23.4566 72.8138 23.4566H71.9656C71.8516 23.4566 71.759 23.4213 71.6883 23.3506C71.6235 23.2799 71.5905 23.1957 71.5905 23.0978V22.4127ZM80.3781 14.355C80.4435 14.2299 80.5355 14.094 80.6554 13.9472C80.7804 13.8004 80.9298 13.6645 81.104 13.5394C81.2777 13.4143 81.4763 13.3111 81.6992 13.2295C81.9221 13.1425 82.167 13.099 82.4333 13.099C82.7268 13.099 82.9908 13.1126 83.2241 13.1398C83.4638 13.1615 83.689 13.2051 83.9014 13.2703C84.1133 13.3301 84.3171 13.4143 84.5128 13.5231C84.7142 13.6264 84.9232 13.7596 85.1409 13.9228C85.2063 13.9717 85.277 14.0342 85.3528 14.1103C85.4344 14.1864 85.4755 14.2761 85.4755 14.3794C85.4755 14.4393 85.4616 14.4936 85.4344 14.5426L84.9533 15.2847C84.8769 15.3771 84.8011 15.4233 84.7247 15.4233C84.6812 15.4233 84.6407 15.4098 84.6025 15.3826C84.5643 15.3499 84.5186 15.3146 84.4641 15.2766C84.1266 15.0482 83.7978 14.8824 83.4771 14.7791C83.1615 14.6703 82.8246 14.616 82.4657 14.616C82.1942 14.616 81.9331 14.6676 81.683 14.7709C81.4329 14.8742 81.21 15.0237 81.0143 15.2194C80.8238 15.4097 80.6687 15.6463 80.5494 15.929C80.4354 16.2063 80.3781 16.5216 80.3781 16.8751V23.2609C80.3781 23.5001 80.2582 23.6197 80.0191 23.6197H79.171C78.9209 23.6197 78.7958 23.5001 78.7958 23.2609V13.621C78.7958 13.5122 78.8312 13.4252 78.9018 13.36C78.9724 13.2947 79.0569 13.2621 79.1548 13.2621H80.0029C80.117 13.2621 80.2067 13.2975 80.2721 13.3681C80.3427 13.4388 80.3781 13.5231 80.3781 13.621V14.355ZM89.9043 18.4572C89.9043 17.7233 90.0456 17.0327 90.3281 16.3857C90.6164 15.7332 91.0026 15.1624 91.4866 14.6731C91.9758 14.1837 92.5443 13.7977 93.1909 13.515C93.8382 13.2322 94.5259 13.0909 95.2542 13.0909C95.7382 13.0909 96.206 13.1561 96.657 13.2866C97.1138 13.4117 97.5404 13.5938 97.9376 13.833C98.3347 14.0668 98.696 14.3468 99.0225 14.6731C99.3484 14.9993 99.6286 15.3635 99.8625 15.7659C100.102 16.1628 100.283 16.5896 100.408 17.0463C100.539 17.4976 100.605 17.9679 100.605 18.4572C100.605 18.9466 100.539 19.4196 100.408 19.8763C100.283 20.3276 100.102 20.7517 99.8625 21.1486C99.6286 21.5455 99.3484 21.9071 99.0225 22.2333C98.696 22.5595 98.3347 22.8395 97.9376 23.0733C97.5404 23.3071 97.1138 23.4892 96.657 23.6197C96.206 23.7448 95.7382 23.8073 95.2542 23.8073C94.7702 23.8073 94.3002 23.7448 93.8434 23.6197C93.3924 23.4892 92.968 23.3071 92.5709 23.0733C92.1743 22.8395 91.8125 22.5595 91.4866 22.2333C91.16 21.9071 90.8804 21.5455 90.6465 21.1486C90.4126 20.7517 90.2303 20.3276 90.1 19.8763C89.9698 19.4196 89.9043 18.9466 89.9043 18.4572ZM91.5271 18.4572C91.5271 18.9737 91.6249 19.4631 91.8206 19.9252C92.0169 20.3874 92.2832 20.7925 92.6201 21.1404C92.957 21.4884 93.3513 21.7657 93.8029 21.9723C94.2538 22.1789 94.7378 22.2822 95.2542 22.2822C95.7654 22.2822 96.2436 22.1789 96.69 21.9723C97.141 21.7657 97.5323 21.4884 97.8641 21.1404C98.201 20.7925 98.465 20.3874 98.6554 19.9252C98.8511 19.4631 98.949 18.9737 98.949 18.4572C98.949 17.9516 98.8511 17.465 98.6554 16.9974C98.465 16.5298 98.201 16.1193 97.8641 15.7659C97.5323 15.4071 97.141 15.1216 96.69 14.9095C96.2436 14.6975 95.7654 14.5915 95.2542 14.5915C94.7378 14.5915 94.2538 14.6975 93.8029 14.9095C93.3513 15.1216 92.957 15.4071 92.6201 15.7659C92.2832 16.1193 92.0169 16.5298 91.8206 16.9974C91.6249 17.465 91.5271 17.9516 91.5271 18.4572ZM107.6 14.355C107.665 14.2299 107.757 14.094 107.877 13.9472C108.002 13.8004 108.152 13.6645 108.326 13.5394C108.5 13.4143 108.698 13.3111 108.921 13.2295C109.144 13.1425 109.389 13.099 109.655 13.099C109.949 13.099 110.212 13.1126 110.446 13.1398C110.686 13.1615 110.911 13.2051 111.123 13.2703C111.335 13.3301 111.539 13.4143 111.735 13.5231C111.936 13.6264 112.145 13.7596 112.363 13.9228C112.428 13.9717 112.499 14.0342 112.575 14.1103C112.656 14.1864 112.697 14.2761 112.697 14.3794C112.697 14.4393 112.683 14.4936 112.656 14.5426L112.175 15.2847C112.099 15.3771 112.023 15.4233 111.947 15.4233C111.903 15.4233 111.863 15.4098 111.824 15.3826C111.786 15.3499 111.74 15.3146 111.686 15.2766C111.348 15.0482 111.02 14.8824 110.699 14.7791C110.383 14.6703 110.046 14.616 109.688 14.616C109.416 14.616 109.155 14.6676 108.905 14.7709C108.655 14.8742 108.432 15.0237 108.236 15.2194C108.046 15.4097 107.891 15.6463 107.771 15.929C107.657 16.2063 107.6 16.5216 107.6 16.8751V23.2609C107.6 23.5001 107.48 23.6197 107.241 23.6197H106.393C106.143 23.6197 106.018 23.5001 106.018 23.2609V13.621C106.018 13.5122 106.053 13.4252 106.124 13.36C106.194 13.2947 106.279 13.2621 106.377 13.2621H107.225C107.339 13.2621 107.429 13.2975 107.494 13.3681C107.565 13.4388 107.6 13.5231 107.6 13.621V14.355ZM126.328 22.2414C125.861 22.7199 125.317 23.0978 124.697 23.3751C124.077 23.6469 123.406 23.7829 122.682 23.7829C122.199 23.7829 121.728 23.7203 121.271 23.5952C120.82 23.4647 120.396 23.2826 119.999 23.0488C119.602 22.8096 119.241 22.5269 118.915 22.2006C118.589 21.8744 118.305 21.5129 118.066 21.116C117.832 20.7136 117.651 20.2868 117.52 19.8355C117.395 19.3788 117.332 18.9058 117.332 18.4165C117.332 17.9271 117.395 17.4568 117.52 17.0056C117.651 16.5488 117.832 16.122 118.066 15.7251C118.305 15.3282 118.589 14.9666 118.915 14.6404C119.241 14.3142 119.602 14.0342 119.999 13.8004C120.396 13.5666 120.82 13.3872 121.271 13.2621C121.723 13.1317 122.193 13.0664 122.682 13.0664C123.406 13.0664 124.077 13.2051 124.697 13.4823C125.317 13.7542 125.861 14.1293 126.328 14.6078V13.6128C126.328 13.3736 126.448 13.254 126.687 13.254H127.527C127.783 13.254 127.91 13.3736 127.91 13.6128V23.2609C127.91 23.3696 127.875 23.4566 127.804 23.5219C127.733 23.5871 127.649 23.6197 127.552 23.6197H126.703C126.589 23.6197 126.497 23.5844 126.426 23.5137C126.361 23.443 126.328 23.3587 126.328 23.2609V22.2414ZM126.409 18.4165C126.409 17.9054 126.312 17.4187 126.116 16.9566C125.92 16.489 125.654 16.0812 125.317 15.7332C124.979 15.3853 124.583 15.108 124.126 14.9014C123.674 14.6948 123.193 14.5915 122.682 14.5915C122.172 14.5915 121.69 14.6948 121.239 14.9014C120.793 15.108 120.402 15.3853 120.064 15.7332C119.733 16.0812 119.469 16.489 119.273 16.9566C119.083 17.4187 118.988 17.9054 118.988 18.4165C118.988 18.9221 119.083 19.4087 119.273 19.8763C119.469 20.3439 119.733 20.7571 120.064 21.116C120.402 21.4693 120.793 21.7521 121.239 21.9642C121.69 22.1762 122.172 22.2822 122.682 22.2822C123.193 22.2822 123.674 22.1762 124.126 21.9642C124.583 21.7521 124.979 21.4693 125.317 21.116C125.654 20.7571 125.92 20.3439 126.116 19.8763C126.312 19.4087 126.409 18.9221 126.409 18.4165Z" fill="white"/>
<path d="M35.8983 1.73828H1.86107C1.79218 1.73828 1.73633 1.79413 1.73633 1.86302V35.9003C1.73633 35.9691 1.79218 36.025 1.86107 36.025H35.8983C35.9672 36.025 36.023 35.9691 36.023 35.9003V1.86302C36.023 1.79413 35.9672 1.73828 35.8983 1.73828Z" stroke="white" stroke-width="1.66441"/>
<path fill-rule="evenodd" clip-rule="evenodd" d="M23.9177 30.3633C23.9177 30.3633 20.1985 26.9026 18.7837 25.5938C16.6785 23.6464 15.2776 22.3305 14.7767 21.2009C13.4868 18.2918 14.902 14.4232 18.9089 14.4232C22.9159 14.4232 24.2933 18.3141 22.6655 21.2009C22.0501 22.2922 20.7323 23.6505 18.9089 25.4683C17.5169 26.8561 13.9002 30.1123 13.9002 30.1123C13.9002 30.1123 9.85648 26.592 8.76624 24.7152C7.676 22.8386 6.57956 18.77 8.26535 14.6742C9.94262 10.5993 13.2741 7.39453 18.9089 7.39453C27.1734 7.39453 30.0534 14.4232 30.3038 17.6866C30.5543 20.9499 30.0217 22.0074 28.8012 24.3387C27.5807 26.6701 23.9177 30.3633 23.9177 30.3633Z" stroke="white" stroke-width="1.66441" stroke-linejoin="round"/>
</svg>
