<svg width="79" height="37" viewBox="0 0 79 37" fill="none" xmlns="http://www.w3.org/2000/svg">
<path d="M0 22.6837L0.0233156 6L24.7757 30.6569H7.77709L0 22.6837Z" fill="url(#paint0_linear_7358_2701)"/>
<path d="M0.000976562 6H20.7702V12.3397C20.7702 18.0534 16.097 22.6852 10.3324 22.6852H0.000976562V6Z" fill="url(#paint1_linear_7358_2701)"/>
<path d="M15.4462 21.3607C13.935 22.2041 12.1905 22.6852 10.3325 22.6852H0.0011053L0 6L15.4462 21.3607Z" fill="url(#paint2_linear_7358_2701)"/>
<path d="M32.4736 23.3914H34.4982V18.6876C34.4982 16.5946 35.7173 14.2857 37.829 14.2857C38.112 14.2857 38.308 14.3289 38.3951 14.3504V12.4085C38.308 12.3869 38.0468 12.3438 37.7419 12.3438C36.1745 12.3438 35.0207 13.3795 34.3894 14.9115H34.3676C34.3458 14.8468 34.4112 14.5231 34.3894 14.1131L34.3676 12.6027H32.4736V23.3914Z" fill="white"/>
<path d="M44.8366 12.3438C41.8323 12.3438 39.5029 14.7388 39.5029 17.9971C39.5029 21.3416 41.8323 23.6504 45.272 23.6504C47.0353 23.6504 48.4941 23.1972 49.3431 22.7226V20.8885C48.4284 21.4711 46.8829 21.9026 45.4026 21.9026C43.1168 21.9026 41.6799 20.5648 41.6146 18.4502V18.4286H49.7129C49.7129 18.2129 49.7567 17.8029 49.7567 17.3713C49.7567 14.7173 48.0367 12.3438 44.8366 12.3438ZM47.7536 17.0045H41.6364C41.8105 15.4509 42.9426 14.0268 44.8148 14.0268C46.7523 14.0268 47.7755 15.4509 47.7536 17.0045Z" fill="white"/>
<path d="M59.4093 12.6055C58.2991 15.238 57.1017 18.0646 56.1437 20.4813C55.1862 18.0646 53.9888 15.238 52.8785 12.6055H50.7231L55.5997 23.6532H56.6881L61.5647 12.6055H59.4093Z" fill="white"/>
<path d="M63.5054 12.6047V23.3935H65.5299V12.6047H63.5054ZM63.2441 9.47601C63.2441 10.1881 63.7448 10.6844 64.5067 10.6844C65.2467 10.6844 65.7693 10.1881 65.7693 9.47601C65.7693 8.74238 65.2467 8.24609 64.5067 8.24609C63.7448 8.24609 63.2441 8.74238 63.2441 9.47601Z" fill="white"/>
<path d="M73.3833 12.3438C70.1614 12.3438 67.7886 14.7388 67.7886 17.9971C67.7886 21.2553 70.1614 23.6504 73.3833 23.6504C76.6271 23.6504 78.9999 21.2553 78.9999 17.9971C78.9999 14.7388 76.6271 12.3438 73.3833 12.3438ZM73.3833 21.9026C71.2931 21.9026 69.7479 20.2843 69.7479 17.9971C69.7479 15.7098 71.2931 14.0915 73.3833 14.0915C75.4949 14.0915 77.0406 15.7098 77.0406 17.9971C77.0406 20.2843 75.4949 21.9026 73.3833 21.9026Z" fill="white"/>
<defs>
<linearGradient id="paint0_linear_7358_2701" x1="1.52882" y1="12.2479" x2="12.2564" y2="30.7399" gradientUnits="userSpaceOnUse">
<stop stop-color="white"/>
<stop offset="1" stop-color="#DFDFDF"/>
</linearGradient>
<linearGradient id="paint1_linear_7358_2701" x1="10.8957" y1="13.3314" x2="23.5505" y2="2.16881" gradientUnits="userSpaceOnUse">
<stop stop-color="#DDDDDD"/>
<stop offset="1" stop-color="white"/>
</linearGradient>
<linearGradient id="paint2_linear_7358_2701" x1="1.66826" y1="9.43341" x2="12.0995" y2="20.6132" gradientUnits="userSpaceOnUse">
<stop stop-color="#DDDDDD"/>
<stop offset="1" stop-color="white" stop-opacity="0.24"/>
</linearGradient>
</defs>
</svg>
