<svg width="107" height="86" viewBox="0 0 107 86" fill="none" xmlns="http://www.w3.org/2000/svg">
<path d="M88.7986 35.515C88.7986 30.8275 82.9411 26.3851 73.9603 23.6303C76.0328 14.457 75.1118 7.15874 71.0529 4.82214C70.1174 4.27405 69.0238 4.01442 67.8292 4.01442V7.23086C68.4912 7.23086 69.0238 7.36068 69.4699 7.60586C71.4272 8.73088 72.2765 13.0146 71.6142 18.5244C71.4562 19.8802 71.1971 21.3081 70.8804 22.7649C68.0593 22.0725 64.9795 21.5389 61.7413 21.1927C59.7984 18.5244 57.7835 16.1012 55.7541 13.981C60.4459 9.61072 64.8501 7.21641 67.8437 7.21641V4C63.8856 4 58.7045 6.827 53.4659 11.7309C48.2269 6.85583 43.0459 4.0577 39.0881 4.0577V7.27411C42.0672 7.27411 46.4855 9.654 51.1774 13.9954C49.1625 16.1157 47.1475 18.5244 45.2333 21.1927C41.9806 21.5389 38.9008 22.0725 36.08 22.7793C35.7488 21.337 35.5042 19.9379 35.3314 18.5965C34.6553 13.0868 35.4898 8.80299 37.4329 7.66355C37.8645 7.40392 38.4258 7.28856 39.0881 7.28856V4.07212C37.879 4.07212 36.7851 4.33175 35.8354 4.87984C31.791 7.21641 30.8845 14.5002 32.9712 23.6447C24.0193 26.414 18.1904 30.842 18.1904 35.515C18.1904 40.2029 24.048 44.6453 33.0288 47.4C30.9562 56.5734 31.8773 63.8715 35.9361 66.2081C36.8717 66.7561 37.9652 67.0157 39.1743 67.0157C43.1321 67.0157 48.3135 64.1888 53.5521 59.2849C58.7908 64.1601 63.9722 66.9583 67.93 66.9583C69.1387 66.9583 70.2326 66.6987 71.1826 66.1504C75.2267 63.8137 76.1336 56.5299 74.0465 47.3858C82.9698 44.6308 88.7986 40.1884 88.7986 35.515ZM70.0601 25.8947C69.5275 27.7555 68.8655 29.6735 68.1169 31.5919C67.527 30.4382 66.9082 29.2842 66.2317 28.1303C65.5697 26.9765 64.8643 25.8515 64.1591 24.7553C66.2027 25.0582 68.1745 25.4332 70.0601 25.8947ZM63.4682 41.2556C62.3457 43.203 61.1945 45.0491 59.9999 46.7656C57.8553 46.9529 55.6823 47.0539 53.4945 47.0539C51.3213 47.0539 49.148 46.9529 47.0181 46.7798C45.8235 45.0633 44.6576 43.2317 43.535 41.2988C42.4412 39.4095 41.4483 37.4911 40.5414 35.5586C41.4339 33.6257 42.4412 31.6928 43.5209 29.8035C44.6434 27.8564 45.7946 26.0101 46.9892 24.2937C49.1338 24.1062 51.3068 24.0053 53.4945 24.0053C55.6678 24.0053 57.8411 24.1062 59.9709 24.2793C61.1655 25.9957 62.3315 27.8274 63.454 29.7603C64.5479 31.6496 65.5407 33.568 66.4476 35.5008C65.5407 37.4334 64.5479 39.3663 63.4682 41.2556ZM68.1169 39.3808C68.8724 41.2604 69.5353 43.1762 70.1032 45.121C68.2177 45.5826 66.2317 45.9722 64.1736 46.275C64.8787 45.1646 65.5839 44.0251 66.2462 42.8566C66.9082 41.7029 67.527 40.5344 68.1169 39.3808ZM53.5232 54.7705C52.1847 53.3856 50.8462 51.8424 49.5223 50.1549C50.8176 50.2127 52.1416 50.2559 53.4801 50.2559C54.833 50.2559 56.1715 50.2272 57.4813 50.1549C56.2459 51.7638 54.9246 53.3046 53.5232 54.7705ZM42.8154 46.275C40.7719 45.9722 38.8 45.5971 36.9148 45.1355C37.4471 43.2749 38.1094 41.3565 38.8576 39.4382C39.4479 40.5922 40.0667 41.7462 40.7429 42.8998C41.4194 44.0538 42.1103 45.1788 42.8154 46.275ZM53.4514 16.2599C54.7899 17.6445 56.1283 19.1879 57.4523 20.8754C56.157 20.8177 54.833 20.7744 53.4945 20.7744C52.1416 20.7744 50.8031 20.8033 49.4936 20.8754C50.7289 19.2665 52.0501 17.7258 53.4514 16.2599ZM42.801 24.7553C42.0958 25.8659 41.3907 27.0053 40.7287 28.1735C40.0667 29.3275 39.4479 30.4814 38.8576 31.6351C38.1021 29.7555 37.4393 27.8397 36.8717 25.8947C38.7569 25.4476 40.7429 25.0582 42.801 24.7553ZM29.7761 42.8134C24.6813 40.6354 21.3855 37.7798 21.3855 35.515C21.3855 33.2506 24.6813 30.3805 29.7761 28.217C31.0138 27.6832 32.3668 27.2073 33.7629 26.7602C34.5832 29.5871 35.6626 32.5295 37.001 35.5441C35.6771 38.5442 34.6118 41.472 33.806 44.2847C32.3813 43.8374 31.0283 43.3472 29.7761 42.8134ZM37.5192 63.4245C35.5619 62.2995 34.7126 58.0158 35.3749 52.5058C35.5332 51.1502 35.792 49.7221 36.1086 48.2653C38.9297 48.9577 42.0096 49.4915 45.2478 49.8376C47.1906 52.5058 49.2056 54.9289 51.235 57.0492C46.5431 61.4197 42.139 63.8137 39.1454 63.8137C38.4979 63.7995 37.9511 63.6696 37.5192 63.4245ZM71.6576 52.4339C72.3338 57.9435 71.4993 62.2273 69.5561 63.3667C69.1246 63.6263 68.5633 63.7418 67.901 63.7418C64.9219 63.7418 60.5035 61.3619 55.8117 57.0205C57.8266 54.9002 59.8415 52.4916 61.7558 49.8231C65.0084 49.477 68.0883 48.9432 70.9091 48.2366C71.2402 49.6934 71.4993 51.0925 71.6576 52.4339ZM77.1985 42.8134C75.9608 43.3472 74.6078 43.8232 73.2117 44.2702C72.3914 41.4433 71.312 38.5009 69.9735 35.4863C71.2978 32.4862 72.3628 29.5584 73.1686 26.7457C74.5936 27.1929 75.9463 27.6832 77.213 28.217C82.3078 30.3947 85.6036 33.2506 85.6036 35.515C85.5891 37.7798 82.2933 40.6499 77.1985 42.8134Z" fill="white"/>
<path d="M53.4799 42.1049C57.1126 42.1049 60.0573 39.1539 60.0573 35.5132C60.0573 31.8729 57.1126 28.9219 53.4799 28.9219C49.8475 28.9219 46.9028 31.8729 46.9028 35.5132C46.9028 39.1539 49.8475 42.1049 53.4799 42.1049ZM21.3964 78.3632H19.2252V82.1105H18V72.8471H21.06C22.1011 72.8471 22.901 73.0848 23.4597 73.5598C24.0226 74.0346 24.3041 74.7261 24.3041 75.6336C24.3041 76.2106 24.1475 76.7131 23.8343 77.1418C23.5253 77.5701 23.0936 77.8903 22.5392 78.1022L24.7104 82.0341V82.1105H23.4026L21.3964 78.3632ZM19.2252 77.3643H21.0981C21.7033 77.3643 22.1836 77.2072 22.5392 76.8934C22.8989 76.5796 23.0788 76.1597 23.0788 75.6336C23.0788 75.0612 22.9074 74.6222 22.5646 74.3168C22.226 74.0114 21.735 73.8566 21.0917 73.8524H19.2252V77.3643ZM28.6846 82.2379C27.7534 82.2379 26.9958 81.9325 26.4117 81.3216C25.8277 80.7066 25.5356 79.8858 25.5356 78.8595V78.6431C25.5356 77.9603 25.6647 77.3517 25.9229 76.8173C26.1853 76.2784 26.5493 75.8585 27.0148 75.5575C27.4846 75.2521 27.9925 75.0992 28.5385 75.0992C29.4316 75.0992 30.1258 75.394 30.6207 75.9836C31.116 76.5732 31.3635 77.4172 31.3635 78.5157V79.0056H26.7101C26.727 79.6845 26.9239 80.2338 27.3005 80.6537C27.6814 81.0691 28.1639 81.2771 28.748 81.2771C29.1629 81.2771 29.514 81.1923 29.8017 81.0227C30.0897 80.853 30.3414 80.6282 30.5573 80.3483L31.2747 80.9082C30.6989 81.7945 29.8358 82.2379 28.6846 82.2379ZM28.5385 76.0665C28.0645 76.0665 27.6666 76.2403 27.345 76.588C27.0233 76.9318 26.8244 77.4153 26.7482 78.0387H30.1892V77.9497C30.1554 77.3517 29.9944 76.8892 29.7067 76.5625C29.4187 76.2319 29.0293 76.0665 28.5385 76.0665ZM36.9693 82.1105C36.9014 81.9747 36.8464 81.7332 36.8042 81.3852C36.2581 81.9535 35.6064 82.2379 34.8488 82.2379C34.1717 82.2379 33.6153 82.047 33.1792 81.6651C32.7477 81.2791 32.5317 80.7914 32.5317 80.2018C32.5317 79.4852 32.8027 78.9295 33.3443 78.5351C33.8901 78.1361 34.6564 77.9368 35.6425 77.9368H36.7853V77.3962C36.7853 76.9847 36.6623 76.658 36.4171 76.4164C36.1715 76.1703 35.8095 76.0474 35.3313 76.0474C34.9122 76.0474 34.5611 76.1532 34.2776 76.3655C33.9941 76.5774 33.8522 76.8341 33.8522 77.1353H32.6714C32.6714 76.7918 32.7921 76.4609 33.0331 76.1426C33.2787 75.8204 33.6089 75.5659 34.0237 75.3792C34.4427 75.1928 34.9016 75.0992 35.4011 75.0992C36.1928 75.0992 36.8126 75.2985 37.2612 75.6975C37.7099 76.092 37.9425 76.637 37.9596 77.3324V80.5008C37.9596 81.133 38.0401 81.6355 38.201 82.0086V82.1105H36.9693ZM35.0204 81.2136C35.3885 81.2136 35.7377 81.1181 36.0679 80.9272C36.3978 80.7363 36.6369 80.4882 36.7853 80.1828V78.7705H35.8645C34.4256 78.7705 33.706 79.1924 33.706 80.0364C33.706 80.4054 33.829 80.694 34.0742 80.9017C34.3198 81.1094 34.6352 81.2136 35.0204 81.2136ZM42.5559 81.2771C42.9749 81.2771 43.3411 81.1497 43.6543 80.8953C43.9674 80.6408 44.1409 80.3228 44.1747 79.9409H45.2859C45.2647 80.3354 45.1292 80.7108 44.8795 81.0672C44.6297 81.4236 44.2953 81.7077 43.8763 81.9196C43.4615 82.1318 43.0216 82.2379 42.5559 82.2379C41.6207 82.2379 40.8756 81.926 40.3211 81.3026C39.7711 80.6747 39.496 79.818 39.496 78.7321V78.5351C39.496 77.8649 39.6186 77.2688 39.8641 76.7473C40.1097 76.2255 40.4608 75.8204 40.9181 75.5321C41.3793 75.2434 41.9232 75.0992 42.5495 75.0992C43.3199 75.0992 43.959 75.3305 44.4669 75.793C44.9789 76.2552 45.2518 76.8554 45.2859 77.5933H44.1747C44.1409 77.1479 43.9716 76.7831 43.6668 76.499C43.3666 76.2106 42.9939 76.0665 42.5495 76.0665C41.9528 76.0665 41.4894 76.2826 41.1592 76.7154C40.8335 77.1437 40.6703 77.7652 40.6703 78.5796V78.8021C40.6703 79.5952 40.8335 80.206 41.1592 80.6343C41.4852 81.063 41.9509 81.2771 42.5559 81.2771ZM48.1997 73.5598V75.2266H49.4822V76.1365H48.1997V80.4054C48.1997 80.6811 48.257 80.8888 48.3713 81.0288C48.4855 81.1646 48.6802 81.2326 48.9554 81.2326C49.0905 81.2326 49.2769 81.2071 49.5137 81.1562V82.1105C49.2048 82.1954 48.9045 82.2379 48.6123 82.2379C48.0877 82.2379 47.6919 82.0786 47.4251 81.7606C47.1586 81.4426 47.0254 80.9907 47.0254 80.4054V76.1365H45.7744V75.2266H47.0254V73.5598H48.1997ZM61.3729 82.1105H60.1474L55.4942 74.9722V82.1105H54.269V72.8471H55.4942L60.1603 80.0174V72.8471H61.3729V82.1105ZM67.5944 82.1105C67.5265 81.9747 67.4715 81.7332 67.4293 81.3852C66.8832 81.9535 66.2315 82.2379 65.4739 82.2379C64.7968 82.2379 64.2401 82.047 63.8043 81.6651C63.3728 81.2791 63.1568 80.7914 63.1568 80.2018C63.1568 79.4852 63.4275 78.9295 63.9694 78.5351C64.5152 78.1361 65.2815 77.9368 66.2676 77.9368H67.4104V77.3962C67.4104 76.9847 67.2874 76.658 67.0419 76.4164C66.7966 76.1703 66.4346 76.0474 65.9564 76.0474C65.5373 76.0474 65.1862 76.1532 64.9027 76.3655C64.6192 76.5774 64.4773 76.8341 64.4773 77.1353H63.2965C63.2965 76.7918 63.4172 76.4609 63.6582 76.1426C63.9038 75.8204 64.234 75.5659 64.6488 75.3792C65.0678 75.1928 65.5267 75.0992 66.0262 75.0992C66.8176 75.0992 67.4377 75.2985 67.8863 75.6975C68.335 76.092 68.5676 76.637 68.5847 77.3324V80.5008C68.5847 81.133 68.6652 81.6355 68.8261 82.0086V82.1105H67.5944ZM65.6455 81.2136C66.0136 81.2136 66.3628 81.1181 66.693 80.9272C67.0229 80.7363 67.262 80.4882 67.4104 80.1828V78.7705H66.4896C65.0507 78.7705 64.3311 79.1924 64.3311 80.0364C64.3311 80.4054 64.4541 80.694 64.6993 80.9017C64.9449 81.1094 65.2603 81.2136 65.6455 81.2136ZM72.0192 73.5598V75.2266H73.3017V76.1365H72.0192V80.4054C72.0192 80.6811 72.0765 80.8888 72.1907 81.0288C72.305 81.1646 72.4997 81.2326 72.7749 81.2326C72.91 81.2326 73.0963 81.2071 73.3335 81.1562V82.1105C73.0243 82.1954 72.724 82.2379 72.4318 82.2379C71.9072 82.2379 71.5114 82.0786 71.2446 81.7606C70.9781 81.4426 70.8449 80.9907 70.8449 80.4054V76.1365H69.5943V75.2266H70.8449V73.5598H72.0192ZM75.9554 82.1105H74.7808V75.2266H75.9554V82.1105ZM74.6855 73.4005C74.6855 73.2099 74.7428 73.0486 74.8571 72.917C74.9755 72.7855 75.1489 72.72 75.3774 72.72C75.6063 72.72 75.7797 72.7855 75.8981 72.917C76.0166 73.0486 76.0758 73.2099 76.0758 73.4005C76.0758 73.5914 76.0166 73.7504 75.8981 73.8778C75.7797 74.0049 75.6063 74.0688 75.3774 74.0688C75.1489 74.0688 74.9755 74.0049 74.8571 73.8778C74.7428 73.7504 74.6855 73.5914 74.6855 73.4005ZM80.1073 80.5137L81.8085 75.2266H83.0085L80.5453 82.1105H79.65L77.1616 75.2266H78.3614L80.1073 80.5137ZM86.9 82.2379C85.969 82.2379 85.2114 81.9325 84.6273 81.3216C84.0432 80.7066 83.7513 79.8858 83.7513 78.8595V78.6431C83.7513 77.9603 83.8803 77.3517 84.1385 76.8173C84.4007 76.2784 84.7647 75.8585 85.2304 75.5575C85.7003 75.2521 86.2081 75.0992 86.7539 75.0992C87.647 75.0992 88.3412 75.394 88.8364 75.9836C89.3314 76.5732 89.5792 77.4172 89.5792 78.5157V79.0056H84.9256C84.9427 79.6845 85.1393 80.2338 85.5162 80.6537C85.8969 81.0691 86.3796 81.2771 86.9634 81.2771C87.3783 81.2771 87.7297 81.1923 88.0174 81.0227C88.3051 80.853 88.5571 80.6282 88.773 80.3483L89.4904 80.9082C88.9147 81.7945 88.0512 82.2379 86.9 82.2379ZM86.7539 76.0665C86.2802 76.0665 85.8821 76.2403 85.5606 76.588C85.2388 76.9318 85.0399 77.4153 84.9639 78.0387H88.4046V77.9497C88.3708 77.3517 88.2099 76.8892 87.9221 76.5625C87.6344 76.2319 87.245 76.0665 86.7539 76.0665Z" fill="white"/>
</svg>
