<svg width="82" height="82" viewBox="0 0 82 82" fill="none" xmlns="http://www.w3.org/2000/svg">
<g clip-path="url(#clip0_7185_3112)">
<path d="M36.1327 81.9478C28.457 81.3946 20.8707 79.4626 16.218 76.876C13.5679 75.4029 11.5488 73.5923 10.7565 71.9787L10.2852 71.0185V40.9034V10.7882L10.6582 10.0308C12.3251 6.64657 17.6449 3.59564 25.0712 1.76505C27.592 1.1436 31.2312 0.524742 34.2001 0.212673C37.2318 -0.106072 45.2674 -0.0575775 48.2915 0.298185C56.3289 1.24247 63.1683 3.3565 67.3831 6.19944C69.0085 7.29578 70.6764 9.05004 71.2414 10.2575L71.7259 11.2928L71.6844 41.3169L71.643 71.3411L71.2541 72.1312C71.0402 72.5657 70.3942 73.4206 69.8185 74.0308C66.3138 77.746 58.7962 80.4943 48.9357 81.6652C46.9259 81.904 38.1946 82.0965 36.1327 81.9478ZM50.2777 56.1432C50.2482 56.0662 49.1007 55.044 47.7278 53.8715C46.3549 52.699 45.1725 51.6846 45.1002 51.6173C45.0279 51.5499 45.2816 51.3115 45.6639 51.0874C46.0462 50.8633 46.7786 50.2398 47.2915 49.702C48.7916 48.1291 49.4993 46.1861 49.4993 43.6411C49.4993 41.1357 48.736 39.1142 47.2072 37.5711C45.6664 36.0156 43.8972 35.3473 41.3209 35.3473C37.3496 35.3473 34.2997 37.6645 33.3263 41.4213C32.9914 42.7135 32.9932 45.3246 33.3298 46.4704C34.2077 49.4591 36.5986 51.6298 39.5742 52.1395C40.5812 52.312 40.7176 52.3863 41.4041 53.1369C41.8121 53.5829 42.6493 54.4733 43.2646 55.1155L44.3834 56.283H47.3574C48.9931 56.283 50.3072 56.2201 50.2777 56.1432ZM40.0786 47.8161C39.3626 47.4428 39.0919 47.1531 38.6837 46.3231C38.3683 45.682 38.3144 45.3174 38.3109 43.8022C38.3073 42.2626 38.3563 41.9299 38.6856 41.2614C39.2243 40.1674 39.9666 39.6495 41.115 39.5664C42.7134 39.4505 43.6361 40.235 44.1197 42.1203C44.7126 44.4318 44.0606 46.8892 42.6381 47.7048C41.8918 48.1327 40.7786 48.1811 40.0786 47.8161ZM26.8964 52.1067C30.0145 51.5153 31.7845 49.702 31.7845 47.0989C31.7845 44.7896 30.6417 43.444 27.4834 42.034C25.6755 41.2269 25.0206 40.7203 25.0206 40.1284C25.0206 39.6378 25.6421 39.1002 26.3656 38.9651C27.072 38.8332 28.9455 39.1586 30.0519 39.6055L30.9793 39.9802V37.9274V35.8745L29.9727 35.6512C29.3507 35.5132 28.0435 35.4304 26.5505 35.4346C24.4358 35.4346 24.0217 35.4861 23.2259 35.8022C20.9012 36.725 19.7981 38.2971 19.8157 40.6619C19.8323 42.8756 21.0001 44.2565 23.9067 45.4988C25.6216 46.2318 26.309 46.7899 26.309 47.4495C26.309 48.8511 23.9736 49.0236 21.501 47.8046C20.8239 47.4708 20.2155 47.1704 20.1491 47.1372C20.0826 47.1039 20.0283 48.0628 20.0283 49.2682C20.0283 51.4498 20.0306 51.4604 20.4256 51.6107C21.9131 52.1763 25.2007 52.4282 26.8964 52.1067ZM62.5439 50.0828V48.2309H59.7256H56.9073V41.8696V35.5084H54.4111H51.915V43.7216V51.9349H57.2294H62.5439V50.0828ZM45.1511 17.6284C50.1115 17.2843 53.8298 16.6348 57.1018 15.5408C60.3614 14.4509 62.287 13.1321 62.7177 11.6945C62.8837 11.1406 62.8718 10.9304 62.6399 10.323C61.5999 7.60005 55.7906 5.50796 46.9135 4.65973C43.1163 4.29682 36.2105 4.41446 32.5899 4.90354C27.0654 5.64997 22.582 7.03644 20.5885 8.61494C16.5558 11.8083 20.8204 15.3205 30.7378 16.9736C35.0379 17.6904 40.609 17.9435 45.1511 17.6284Z" fill="white"/>
</g>
<defs>
<clipPath id="clip0_7185_3112">
<rect width="82" height="82" fill="white"/>
</clipPath>
</defs>
</svg>
