<svg width="61" height="82" viewBox="0 0 61 82" fill="none" xmlns="http://www.w3.org/2000/svg">
<g clip-path="url(#clip0_7185_3083)">
<path d="M19.668 63.3914C19.668 63.3914 16.5237 65.2103 21.9058 65.8258C28.4263 66.5657 31.7587 66.4598 38.9443 65.1068C38.9443 65.1068 40.8336 66.2851 43.4717 67.3058C27.3638 74.1732 7.01583 66.9079 19.668 63.3914ZM17.6996 54.4297C17.6996 54.4297 14.1729 57.0267 19.5591 57.5808C26.5244 58.2955 32.025 58.3541 41.5433 56.5309C41.5433 56.5309 42.8599 57.8585 44.93 58.5847C25.4543 64.2498 3.7619 59.0314 17.6996 54.4297Z" fill="white"/>
<path d="M34.2933 39.2246C38.2625 43.7701 33.2505 47.8606 33.2505 47.8606C33.2505 47.8606 43.3285 42.6854 38.7001 36.2046C34.3774 30.1612 31.0622 27.158 49.0085 16.8047C49.0085 16.8047 20.839 23.8034 34.2933 39.2246Z" fill="#DDDDDD"/>
<path d="M55.5975 70.0177C55.5975 70.0177 57.9244 71.9248 53.0347 73.4003C43.737 76.2023 14.3363 77.0484 6.16878 73.512C3.2329 72.2417 8.73871 70.4784 10.4705 70.1083C12.2766 69.7186 13.3089 69.7914 13.3089 69.7914C10.0438 67.5032 -7.79542 74.2841 4.24758 76.2258C37.0902 81.524 64.1164 73.8402 55.5975 70.0177ZM21.1798 45.1423C21.1798 45.1423 6.225 48.6759 15.8841 49.9588C19.9624 50.502 28.0925 50.3792 35.6655 49.7479C41.8546 49.2288 48.0692 48.1244 48.0692 48.1244C48.0692 48.1244 45.8869 49.0542 44.3081 50.1266C29.1214 54.0998 -0.216403 52.2515 8.22959 48.1872C15.3724 44.7527 21.1798 45.1423 21.1798 45.1423ZM48.0075 60.0592C63.4457 52.0792 56.3077 44.4105 51.3255 45.4438C50.1043 45.6964 49.5599 45.9154 49.5599 45.9154C49.5599 45.9154 50.0133 45.2092 50.8791 44.9035C60.7352 41.4564 68.3154 55.0698 47.6973 60.4614C47.6973 60.4616 47.9363 60.2493 48.0075 60.0592Z" fill="white"/>
<path d="M38.7001 0.0861745C38.7001 0.0861745 47.25 8.59427 30.591 21.6766C17.2324 32.1712 27.5448 38.1548 30.5855 44.9914C22.7878 37.9929 17.0652 31.832 20.9045 26.0982C26.5392 17.6809 42.1496 13.6003 38.7001 0.0861745Z" fill="#DDDDDD"/>
<path d="M22.6972 81.6821C37.5157 82.6258 60.2711 81.1586 60.81 74.1836C60.81 74.1836 59.7741 76.828 48.5633 78.9277C35.9154 81.2953 20.3162 81.019 11.064 79.5015C11.0642 79.5015 12.9578 81.0609 22.6972 81.6821Z" fill="white"/>
</g>
<defs>
<clipPath id="clip0_7185_3083">
<rect width="61" height="82" fill="white"/>
</clipPath>
</defs>
</svg>
