<svg width="217" height="62" viewBox="0 0 217 62" fill="none" xmlns="http://www.w3.org/2000/svg">
<g clip-path="url(#clip0_7185_3097)">
<path d="M199.642 22.0664C199.115 22.0664 198.602 22.1763 198.148 22.4354L183.785 30.8033C182.856 31.3437 182.291 32.364 182.291 33.4496V50.155C182.291 51.2398 182.856 52.2587 183.785 52.8004L187.536 54.985C189.359 55.891 190.03 55.8769 190.86 55.8769C193.558 55.8769 195.099 54.2252 195.099 51.3548V34.8645C195.099 34.6315 194.898 34.4647 194.672 34.4647H192.873C192.642 34.4647 192.446 34.6315 192.446 34.8645V51.3548C192.446 52.6268 191.132 53.9066 189 52.8312L185.097 50.524C184.959 50.4483 184.853 50.3145 184.853 50.155V33.4492C184.853 33.291 184.957 33.1298 185.097 33.0494L199.429 24.7127C199.493 24.6746 199.567 24.6544 199.642 24.6544C199.717 24.6544 199.791 24.6746 199.856 24.7127L214.188 33.0498C214.324 33.1328 214.432 33.2863 214.432 33.45V50.1554C214.432 50.3149 214.352 50.4782 214.218 50.5552L199.856 58.8923C199.733 58.9662 199.563 58.9662 199.429 58.8923L195.739 56.6774C195.683 56.6466 195.62 56.6306 195.556 56.6306C195.492 56.6306 195.429 56.6466 195.373 56.6774C194.355 57.2597 194.163 57.3273 193.208 57.6617C192.973 57.7446 192.615 57.8733 193.33 58.2774L198.148 61.138C198.602 61.4024 199.118 61.5405 199.642 61.5382C200.167 61.5415 200.682 61.4035 201.136 61.1384L215.499 52.8009C216.429 52.2557 216.993 51.2402 216.993 50.1554V33.4496C216.993 32.3644 216.429 31.3459 215.499 30.8041L201.136 22.4363C200.686 22.1767 200.17 22.0668 199.642 22.0668L199.642 22.0664Z" fill="white"/>
<path d="M203.484 34.0039C199.394 34.0039 196.959 35.76 196.959 38.6804C196.959 41.848 199.376 42.7185 203.301 43.1102C207.997 43.5741 208.363 44.2698 208.363 45.2024C208.363 46.8199 207.085 47.5096 204.064 47.5096C200.268 47.5096 199.434 46.5536 199.154 44.6487C199.121 44.4443 198.965 44.2792 198.758 44.2792H196.898C196.669 44.2792 196.471 44.4785 196.471 44.7102C196.471 47.1488 197.785 50.0324 204.064 50.0324C208.609 50.0324 211.23 48.2327 211.23 45.0792C211.23 41.9536 209.113 41.1142 204.704 40.5263C200.25 39.9315 199.825 39.6403 199.825 38.5881C199.825 37.7192 200.185 36.557 203.484 36.557C206.431 36.557 207.521 37.1984 207.967 39.2034C208.006 39.3915 208.17 39.5416 208.363 39.5416H210.224C210.338 39.5416 210.449 39.4706 210.529 39.3876C210.606 39.2991 210.662 39.1995 210.651 39.0802C210.362 35.6279 208.081 34.0039 203.484 34.0039Z" fill="white"/>
<path d="M115.204 0.164261C115.044 0.164369 114.886 0.206663 114.746 0.286978C114.608 0.368763 114.493 0.48555 114.413 0.625833C114.332 0.766116 114.29 0.925055 114.289 1.08699V24.6222C114.289 24.8531 114.183 25.06 113.984 25.1759C113.887 25.233 113.777 25.2631 113.664 25.2631C113.552 25.2631 113.441 25.233 113.344 25.1759L109.532 22.961C109.254 22.7987 108.939 22.7133 108.617 22.7133C108.296 22.7133 107.981 22.7987 107.703 22.961L92.486 31.821C91.9172 32.1524 91.5714 32.7891 91.5714 33.4518V51.1723C91.5714 51.8342 91.9176 52.4405 92.486 52.7719L107.703 61.6323C107.98 61.7951 108.296 61.8808 108.617 61.8808C108.939 61.8808 109.254 61.7951 109.532 61.6323L124.749 52.7719C125.027 52.6101 125.259 52.377 125.419 52.0962C125.58 51.8153 125.664 51.4966 125.664 51.1723V6.9941C125.663 6.66221 125.576 6.33637 125.41 6.04986C125.243 5.76335 125.005 5.52643 124.719 5.36328L115.661 0.256192C115.519 0.176234 115.362 0.162123 115.204 0.164261ZM17.3179 22.2842C17.028 22.2957 16.7551 22.347 16.4949 22.4992L1.2779 31.3597C0.999156 31.5212 0.76773 31.7543 0.607101 32.0352C0.446472 32.3162 0.362356 32.6349 0.363289 32.9593L0.393804 56.7412C0.393804 57.0717 0.56291 57.3791 0.85111 57.5408C0.98928 57.6245 1.14743 57.6688 1.30863 57.6688C1.46982 57.6688 1.62797 57.6245 1.76614 57.5408L10.7923 52.311C11.3641 51.968 11.7374 51.372 11.7374 50.7109V39.6048C11.7374 38.9421 12.0829 38.334 12.6525 38.0048L16.4944 35.7591C16.7722 35.5962 17.0881 35.5111 17.4095 35.5128C17.7231 35.5128 18.0452 35.5919 18.3241 35.7591L22.1665 38.0048C22.4455 38.1662 22.6771 38.3993 22.8378 38.6803C22.9986 38.9614 23.0826 39.2803 23.0815 39.6048V50.7105C23.0815 51.3716 23.4587 51.9719 24.0266 52.3105L33.0528 57.5408C33.191 57.6245 33.3491 57.6688 33.5103 57.6688C33.6715 57.6688 33.8297 57.6245 33.9678 57.5408C34.1069 57.4596 34.2224 57.3429 34.3027 57.2025C34.3831 57.0621 34.4254 56.9029 34.4256 56.7408L34.4552 32.9593C34.457 32.6348 34.3733 32.3156 34.2126 32.0345C34.0518 31.7535 33.8199 31.5205 33.5406 31.3597L18.3241 22.4992C18.0668 22.347 17.793 22.2961 17.501 22.2842H17.3179ZM154.054 22.4992C153.736 22.4992 153.424 22.5805 153.139 22.7455L137.922 31.606C137.644 31.7677 137.412 32.0007 137.252 32.2816C137.091 32.5625 137.007 32.8812 137.007 33.2056V50.926C137.007 51.5926 137.379 52.1964 137.952 52.526L153.047 61.2018C153.605 61.5225 154.285 61.5468 154.846 61.2317L163.995 56.0942C164.285 55.9318 164.481 55.6282 164.483 55.2947C164.484 55.1323 164.443 54.9724 164.362 54.8317C164.282 54.691 164.165 54.5746 164.025 54.4946L148.717 45.6342C148.431 45.4692 148.229 45.1352 148.229 44.8034V39.2662C148.229 38.9348 148.433 38.6312 148.717 38.4662L153.474 35.6971C153.613 35.6159 153.771 35.5732 153.932 35.5732C154.092 35.5732 154.25 35.6159 154.389 35.6971L159.146 38.4662C159.285 38.5469 159.401 38.6634 159.481 38.8038C159.562 38.9442 159.604 39.1036 159.603 39.2657V43.6344C159.603 43.7965 159.645 43.9559 159.725 44.0963C159.806 44.2367 159.921 44.3532 160.061 44.434C160.346 44.6003 160.691 44.6007 160.975 44.434L170.094 39.0819C170.372 38.9195 170.603 38.6862 170.763 38.4054C170.924 38.1246 171.008 37.8061 171.009 37.4818V33.206C171.009 32.5454 170.661 31.9378 170.094 31.606L154.969 22.7455C154.691 22.5833 154.375 22.498 154.054 22.4992ZM108.556 35.7283C108.636 35.7283 108.729 35.748 108.8 35.7895L114.015 38.8352C114.156 38.9177 114.259 39.0703 114.259 39.235V45.3263C114.259 45.4918 114.157 45.644 114.015 45.7266L108.8 48.7723C108.731 48.8124 108.652 48.8335 108.572 48.8335C108.491 48.8335 108.413 48.8124 108.343 48.7723L103.129 45.7266C102.987 45.6436 102.884 45.4918 102.884 45.3263V39.235C102.884 39.0699 102.987 38.9185 103.129 38.8352L108.343 35.7899C108.407 35.7497 108.481 35.7285 108.557 35.7287L108.556 35.7283Z" fill="white"/>
<path d="M63.0286 22.4063C62.7116 22.4063 62.3979 22.4875 62.114 22.6525L46.8975 31.4822C46.3283 31.8127 45.9824 32.4507 45.9824 33.1126V50.833C45.9824 51.4958 46.3287 52.1013 46.8975 52.4331L62.114 61.2931C62.3918 61.4559 62.7075 61.5417 63.0288 61.5417C63.3502 61.5417 63.6658 61.4559 63.9436 61.2931L79.1602 52.4331C79.4387 52.2712 79.67 52.038 79.8306 51.7571C79.9912 51.4761 80.0754 51.1574 80.0748 50.833V33.1126C80.0748 32.4498 79.7289 31.8127 79.1602 31.4822L63.9436 22.6525C63.6655 22.4905 63.3498 22.4055 63.0286 22.4063ZM154.023 38.2197C153.962 38.2197 153.895 38.2197 153.84 38.2505L150.913 39.9732C150.858 40.0038 150.813 40.0484 150.781 40.1024C150.748 40.1564 150.731 40.2181 150.73 40.2811V43.665C150.73 43.7924 150.803 43.9091 150.913 43.9728L153.84 45.6648C153.95 45.7289 154.067 45.7289 154.176 45.6648L157.103 43.9724C157.157 43.9417 157.203 43.8971 157.235 43.8432C157.267 43.7893 157.285 43.7279 157.286 43.665V40.2806C157.285 40.2178 157.267 40.1563 157.235 40.1024C157.203 40.0485 157.157 40.004 157.103 39.9732L154.176 38.25C154.121 38.218 154.084 38.2197 154.023 38.2197Z" fill="white"/>
</g>
<defs>
<clipPath id="clip0_7185_3097">
<rect width="217" height="62" fill="white"/>
</clipPath>
</defs>
</svg>
