<svg width="86" height="88" viewBox="0 0 86 88" fill="none" xmlns="http://www.w3.org/2000/svg">
<path d="M85.1399 59.6055C74.0287 73.4919 41.4003 71.8287 41.4003 71.8287C2.48526 70.8343 0.859863 59.6055 0.859863 59.6055V70.0599C0.980263 85.5567 41.4003 84.4039 41.4003 84.4039C86.2407 84.6503 85.1399 70.0599 85.1399 70.0599V59.6055Z" fill="white"/>
<path d="M46.0529 42.171C46.0529 42.171 71.6981 42.1182 85.1399 31.3734V17.2758H85.0367C85.0711 17.0646 85.1399 16.8622 85.1399 16.651C85.1399 9.43502 66.2715 3.57422 42.9999 3.57422C19.7283 3.57422 0.859863 9.42622 0.859863 16.651C0.859863 16.8622 0.928663 17.0646 0.963063 17.2758H0.859863V31.3822C0.859863 31.3822 8.18706 42.171 46.0529 42.171Z" fill="white"/>
<path d="M41.4003 63.2398C86.2407 63.4862 85.1399 48.8958 85.1399 48.8958V38.4414C74.0287 52.3278 41.4003 50.6646 41.4003 50.6646C2.48526 49.6614 0.859863 38.4414 0.859863 38.4414V48.8958C0.980263 64.3926 41.4003 63.2398 41.4003 63.2398Z" fill="white"/>
</svg>
