<svg width="159" height="40" viewBox="0 0 159 40" fill="none" xmlns="http://www.w3.org/2000/svg">
<g clip-path="url(#clip0_7185_3118)">
<path d="M51.3411 15.6147C51.3411 12.7668 48.5675 9.74203 43.7678 9.74203C38.378 9.74203 32.457 13.6899 31.5521 21.566C30.6276 29.5207 35.5847 33.0561 40.5811 33.0561C45.5775 33.0561 48.1937 31.1116 50.869 28.519C48.5675 25.6317 45.5972 26.9673 45.0267 27.262C44.3973 27.5762 43.5907 28.0083 41.9384 28.0083C40.0106 28.0083 38.0435 27.1441 38.0435 23.5498C50.3969 22.332 51.3411 18.4627 51.3411 15.6147ZM45.2234 16.0861C45.1447 16.97 44.7907 18.4824 38.5353 19.3269C39.8533 14.6523 42.3711 14.2988 43.5317 14.2988C44.6136 14.2988 45.3021 15.1434 45.2234 16.0861ZM24.2936 16.8521C24.2936 16.8521 21.638 25.18 21.4216 25.8674C21.3429 25.1604 19.3955 10.2134 19.3955 10.2134C14.8712 10.2134 12.4517 13.4346 11.1731 16.8325C11.1731 16.8325 7.94705 25.18 7.67166 25.8871C7.65199 25.2389 7.17988 16.9307 7.17988 16.9307C6.90449 12.7668 3.08833 10.2331 0 10.2331L3.73747 32.8793C8.47816 32.8597 11.0354 29.6582 12.373 26.2603C12.373 26.2603 15.2253 18.8948 15.3433 18.5609C15.363 18.8752 17.3891 32.8793 17.3891 32.8793C22.1494 32.8793 24.7067 29.8742 26.0836 26.5942L32.7521 10.2331C28.0507 10.2331 25.5722 13.4346 24.2936 16.8521ZM68.8089 9.70275C65.8779 9.70275 63.6354 11.2937 61.747 13.631V13.6113L63.4387 0C59.5439 0 56.3768 3.37828 55.767 8.40643L52.8164 32.7026C55.0589 32.7026 57.4391 32.0544 58.7177 30.4046C59.8586 31.8776 61.57 33.0561 64.1075 33.0561C70.6776 33.0561 75.1822 25.4353 75.1822 18.2859C75.1429 11.7651 71.9759 9.70275 68.8089 9.70275ZM68.1991 21.3893C67.5106 25.3764 65.2878 28.0869 63.1436 28.0869C60.9798 28.0869 60.0553 27.1245 60.0553 27.1245C60.4684 23.6283 60.7241 21.4875 61.511 19.6412C62.2978 17.7949 64.1665 14.8487 66.1139 14.8487C68.022 14.8487 68.8875 17.3825 68.1991 21.3893ZM91.5878 10.2331H87.0045L87.0241 9.99736C87.3389 7.0119 88.047 5.44061 90.3878 5.18527C91.9812 5.02814 92.6893 4.20321 92.8664 3.29972C93.0041 2.59264 93.4368 0.137488 93.4368 0.137488C84.2309 0.0785647 81.3392 4.04608 80.5917 10.0956L80.5721 10.2331H80.4737C78.9787 10.2331 77.3264 11.9222 77.051 14.0631L76.9526 14.8487H80.0213L77.4444 36.1005L76.6576 39.9109C76.7559 39.9109 76.8739 39.9305 76.9723 39.9305C81.2802 39.7734 84.0341 36.3755 84.6439 31.4455L86.6504 14.8487H88.0864C89.5027 14.8487 91.155 13.4346 91.4501 11.0776L91.5878 10.2331ZM115.429 9.84023C110.137 9.84023 105.141 13.7292 103.607 19.8376C102.072 25.946 104.394 33.174 112.183 33.174C119.953 33.174 124.438 25.6514 124.438 19.3859C124.438 13.1596 120.209 9.84023 115.429 9.84023ZM117.573 21.1928C117.298 23.9622 116.078 28.1655 112.734 28.1655C109.37 28.1655 109.842 23.2552 110.177 20.9179C110.531 18.4234 111.928 14.8684 114.937 14.8684C117.632 14.8684 117.888 18.0699 117.573 21.1928ZM150.581 16.8521C150.581 16.8521 147.925 25.18 147.709 25.8674C147.63 25.1604 145.683 10.2134 145.683 10.2134C141.158 10.2134 138.739 13.4346 137.46 16.8325C137.46 16.8325 134.234 25.18 133.959 25.8871C133.939 25.2389 133.467 16.9307 133.467 16.9307C133.192 12.7668 129.376 10.2331 126.287 10.2331L130.005 32.8793C134.746 32.8597 137.303 29.6582 138.641 26.2603C138.641 26.2603 141.493 18.8948 141.591 18.5609C141.611 18.8752 143.637 32.8793 143.637 32.8793C148.397 32.8793 150.955 29.8742 152.332 26.5942L159 10.2331C154.318 10.2331 151.84 13.4346 150.581 16.8521ZM95.9154 0.137488L92.0599 31.1902L91.273 35.0202C91.3714 35.0202 91.4894 35.0399 91.5878 35.0399C95.7383 34.981 98.689 31.3473 99.2398 26.7709L101.463 8.95638C102.131 3.51577 98.8857 0.137488 95.9154 0.137488Z" fill="white"/>
</g>
<defs>
<clipPath id="clip0_7185_3118">
<rect width="159" height="40" fill="white"/>
</clipPath>
</defs>
</svg>
