<svg width="72" height="72" viewBox="0 0 72 72" fill="none" xmlns="http://www.w3.org/2000/svg">
<g clip-path="url(#clip0_7185_3120)">
<path d="M5.0969 36C5.0969 48.2248 12.1725 58.789 22.4332 63.7954L7.76008 23.4313C6.00113 27.386 5.09361 31.6689 5.0969 36ZM56.623 34.4414C56.623 30.6248 55.2573 27.9815 54.0863 25.9242C52.5269 23.3802 51.0654 21.2259 51.0654 18.6819C51.0654 15.8428 53.21 13.2 56.2309 13.2C56.3673 13.2 56.4964 13.2169 56.6294 13.2248C51.1568 8.19078 43.8655 5.11736 35.8574 5.11736C25.111 5.11736 15.6566 10.6532 10.1564 19.0379C10.878 19.0597 11.558 19.0746 12.1359 19.0746C15.3531 19.0746 20.3336 18.683 20.3336 18.683C21.992 18.5848 22.1874 21.0299 20.531 21.227C20.531 21.227 18.8645 21.4238 17.0101 21.5212L28.2123 54.9741L34.944 34.704L30.1514 21.5204C28.495 21.423 26.9257 21.2262 26.9257 21.2262C25.2682 21.1285 25.4625 18.5839 27.1201 18.6822C27.1201 18.6822 32.2001 19.0741 35.2224 19.0741C38.4396 19.0741 43.4204 18.6822 43.4204 18.6822C45.0796 18.5839 45.2747 21.0291 43.6178 21.2262C43.6178 21.2262 41.9479 21.423 40.0969 21.5204L51.2133 54.7197L54.2815 44.4257C55.6111 40.154 56.6232 37.0859 56.6232 34.4417L56.623 34.4414ZM36.3971 38.7015L27.1679 65.6276C29.9896 66.462 32.9159 66.8857 35.8574 66.8857C39.4394 66.8857 42.8745 66.264 46.0723 65.1351C45.9869 65.0001 45.9136 64.8577 45.8532 64.7096L36.3971 38.7015ZM62.8484 21.183C62.9806 22.1667 63.0557 23.2227 63.0557 24.3586C63.0557 27.4927 62.4727 31.0156 60.7167 35.4206L51.3208 62.6959C60.4656 57.3416 66.6165 47.3943 66.6165 36.0008C66.6171 30.6313 65.2512 25.582 62.8484 21.183ZM35.8574 0C16.086 0 0 16.1495 0 36C0 55.8531 16.086 72.002 35.8574 72.002C55.628 72.002 71.7162 55.8531 71.7162 36C71.7159 16.1495 55.628 0 35.8574 0ZM35.8574 70.3519C16.9929 70.3519 1.64403 54.9416 1.64403 36C1.64403 17.0598 16.9921 1.65064 35.8574 1.65064C54.7213 1.65064 70.0688 17.0598 70.0688 36C70.0688 54.9416 54.7213 70.3519 35.8574 70.3519Z" fill="white"/>
</g>
<defs>
<clipPath id="clip0_7185_3120">
<rect width="72" height="72" fill="white"/>
</clipPath>
</defs>
</svg>
