<svg width="46" height="46" viewBox="0 0 46 46" fill="none" xmlns="http://www.w3.org/2000/svg">
<rect width="45.7388" height="45.7388" fill="black" fill-opacity="0.2"/>
<path d="M30.1459 14.5508L15.5927 14.5508C14.7656 14.5508 13.9724 14.8793 13.3875 15.4642C12.8027 16.049 12.4741 16.8422 12.4741 17.6693L12.4741 28.0645C12.4741 28.8916 12.8027 29.6848 13.3875 30.2697C13.9724 30.8545 14.7656 31.1831 15.5927 31.1831L30.1459 31.1831C30.973 31.1831 31.7662 30.8545 32.3511 30.2697C32.9359 29.6848 33.2645 28.8916 33.2645 28.0645L33.2645 17.6693C33.2645 16.8422 32.9359 16.049 32.3511 15.4642C31.7663 14.8793 30.973 14.5508 30.1459 14.5508ZM29.7197 16.6298L23.6074 22.7422C23.5107 22.8396 23.3958 22.917 23.2691 22.9697C23.1424 23.0225 23.0065 23.0497 22.8693 23.0497C22.7321 23.0497 22.5962 23.0225 22.4695 22.9697C22.3429 22.917 22.2279 22.8396 22.1313 22.7422L16.0189 16.6298L29.7197 16.6298ZM31.1855 28.0645C31.1855 28.3402 31.0759 28.6046 30.881 28.7996C30.686 28.9945 30.4216 29.104 30.1459 29.104L15.5927 29.104C15.317 29.104 15.0526 28.9945 14.8576 28.7996C14.6627 28.6046 14.5532 28.3402 14.5532 28.0645L14.5532 18.0955L20.6655 24.2079C21.2503 24.7919 22.0429 25.1199 22.8693 25.1199C23.6957 25.1199 24.4884 24.7919 25.0731 24.2079L31.1855 18.0955L31.1855 28.0645Z" fill="white"/>
</svg>
