<svg width="46" height="46" viewBox="0 0 46 46" fill="none" xmlns="http://www.w3.org/2000/svg">
<rect width="45.7388" height="45.7388" fill="black" fill-opacity="0.2"/>
<path d="M32.3806 13.3652C31.9835 12.9604 31.4798 12.6762 30.928 12.5456C30.3761 12.415 29.7985 12.4433 29.2621 12.6271L14.5529 17.5441C13.9596 17.7382 13.4413 18.1118 13.0694 18.6131C12.6976 19.1145 12.4905 19.7189 12.4768 20.343C12.4631 20.967 12.6435 21.5799 12.993 22.0971C13.3425 22.6143 13.844 23.0102 14.4281 23.2302L19.8752 25.3093C19.9992 25.3567 20.1122 25.4292 20.207 25.5222C20.3018 25.6152 20.3764 25.7267 20.4262 25.8498L22.5052 31.3073C22.7168 31.8832 23.1009 32.3798 23.605 32.7295C24.1091 33.0792 24.7088 33.265 25.3223 33.2616H25.3951C26.0198 33.2502 26.6254 33.0436 27.1268 32.6708C27.6283 32.298 28.0005 31.7776 28.1914 31.1825L33.1083 16.4526C33.2871 15.9213 33.3137 15.3506 33.1851 14.805C33.0565 14.2594 32.7779 13.7607 32.3806 13.3652ZM31.1852 15.7977L26.2163 30.538C26.1586 30.7246 26.0427 30.8878 25.8856 31.0038C25.7285 31.1197 25.5384 31.1824 25.3431 31.1825C25.149 31.1857 24.9585 31.1297 24.7969 31.022C24.6354 30.9143 24.5104 30.76 24.4387 30.5796L22.3597 25.1221C22.2089 24.7256 21.9765 24.3652 21.6774 24.0643C21.3783 23.7634 21.0193 23.5288 20.6237 23.3758L15.1662 21.2967C14.9821 21.2293 14.8238 21.1056 14.7138 20.9434C14.6037 20.7811 14.5474 20.5883 14.5529 20.3923C14.553 20.1971 14.6157 20.0069 14.7316 19.8498C14.8476 19.6927 15.0108 19.5768 15.1974 19.5191L29.9378 14.6022C30.107 14.5332 30.2926 14.5148 30.4721 14.549C30.6516 14.5833 30.8174 14.6688 30.9493 14.7952C31.0813 14.9217 31.1737 15.0836 31.2156 15.2615C31.2575 15.4394 31.2469 15.6256 31.1852 15.7977Z" fill="white"/>
</svg>
