<svg width="86" height="86" viewBox="0 0 86 86" fill="none" xmlns="http://www.w3.org/2000/svg">
<g clip-path="url(#clip0_7185_3011)">
<path fill-rule="evenodd" clip-rule="evenodd" d="M9.40625 0H76.5938C81.7887 0 86 4.21132 86 9.40625V76.5938C86 81.7887 81.7887 86 76.5938 86H9.40625C4.21132 86 0 81.7887 0 76.5938V9.40625C0 4.21132 4.21132 0 9.40625 0ZM62.611 53.8926V31.6445H53.0139V50.5898C53.0139 58.9406 52.5773 62.1191 51.206 64.8611C49.8973 67.5419 47.8409 69.2863 43.603 71.2804L52.515 75.5183C56.7525 73.3992 58.8093 71.4678 60.3676 68.4135C62.0502 65.2349 62.611 61.5583 62.611 53.8926ZM47.3432 61.2471V16.8233H37.7457V31.4576C36.312 31.0837 35.128 30.9594 33.5701 30.9594C23.5368 30.9594 17.0551 37.3157 17.0551 47.1001C17.0551 57.2589 23.1625 62.5558 34.8791 62.5558C38.805 62.5558 42.4198 62.1819 47.3432 61.2471ZM26.8395 46.9128C26.8395 41.6782 29.6442 38.6866 34.5052 38.6866C35.6892 38.6866 36.624 38.8113 37.7457 39.1848V54.5789C36.3747 54.7654 35.5019 54.8277 34.4429 54.8277C29.5195 54.8277 26.8395 52.0235 26.8395 46.9128ZM62.611 26.7211V16.8744H53.0139V26.7211H62.611Z" fill="white"/>
</g>
<defs>
<clipPath id="clip0_7185_3011">
<rect width="86" height="86" fill="white"/>
</clipPath>
</defs>
</svg>
