<svg width="86" height="86" viewBox="0 0 86 86" fill="none" xmlns="http://www.w3.org/2000/svg">
<path fill-rule="evenodd" clip-rule="evenodd" d="M86 0H0V86H86V0ZM15.3276 54.9414C15.1372 54.9414 14.9556 54.9219 14.7827 54.8828C14.4043 54.7969 14.0693 54.6133 13.7773 54.3359C13.3516 53.918 13.1387 53.4258 13.1387 52.8555C13.1387 52.5742 13.1885 52.3125 13.2881 52.0703C13.3945 51.8086 13.5576 51.5742 13.7773 51.3594C13.9941 51.1445 14.2349 50.9883 14.499 50.8828C14.7534 50.7852 15.0298 50.7344 15.3276 50.7344C15.9458 50.7344 16.4678 50.9414 16.8936 51.3594C17.0269 51.4844 17.1396 51.6211 17.2324 51.7617C17.4424 52.0859 17.5474 52.4531 17.5474 52.8555C17.5474 53.4258 17.3296 53.918 16.8936 54.3359C16.4678 54.7383 15.9458 54.9414 15.3276 54.9414ZM35.6841 54.6016H39.6367V32.25H36.1553V46.6523C36.1553 47.4531 36.1714 48.1211 36.2041 48.6602C36.229 49.0703 36.2637 49.4023 36.3076 49.6602H36.2466C36.125 49.4102 35.8516 48.9531 35.4258 48.2891L25.3618 32.25H21.1509V54.6016H24.6475V39.9492C24.6475 38.3828 24.6069 37.3555 24.5259 36.8789H24.6172C24.7891 37.3242 25.0073 37.7578 25.271 38.1719L35.6841 54.6016ZM56.6636 54.6016H44.4258V32.25H56.1772V35.3984H48.0439V41.7266H55.5386V44.8594H48.0439V51.4688H56.6636V54.6016ZM67.7925 35.3984H74.0557V32.25H57.9263V35.3984H64.1743V54.6016H67.7925V35.3984Z" fill="white"/>
</svg>
