<svg width="88" height="86" viewBox="0 0 88 86" fill="none" xmlns="http://www.w3.org/2000/svg">
<g clip-path="url(#clip0_7185_3067)">
<path fill-rule="evenodd" clip-rule="evenodd" d="M72.4167 0.0078125H15.5833C6.96667 0.0078125 0 6.98929 0 15.6243V70.3737C0 79.0087 6.96667 85.9902 15.5833 85.9902H72.4167C81.0333 85.9902 88 79.0087 88 70.3737V15.6243C88 6.98929 81.0333 0.0078125 72.4167 0.0078125ZM28.8934 51.4501H42.5334L45.5401 60.1953C45.6134 60.4525 45.8701 60.6363 46.1267 60.5995H53.7901C54.1567 60.5995 54.2667 60.4158 54.1567 60.0116L40.7734 22.1647C40.7367 21.9809 40.5901 21.8707 40.2967 21.8707H30.8001C30.6167 21.9075 30.4701 22.0912 30.5067 22.2749C30.5067 23.0833 30.4334 23.8917 30.2867 24.6633C30.1828 24.9757 30.0973 25.2696 30.0172 25.5451C29.9842 25.6585 29.9521 25.7687 29.9201 25.8759L18.1134 59.9381C18.0034 60.3791 18.1134 60.5995 18.5167 60.5995H25.4101C25.7401 60.6363 26.0334 60.4158 26.1067 60.0851L28.8934 51.4501ZM40.3334 43.991H31.0201C31.5701 42.4477 32.1201 40.7207 32.6334 38.8467C32.9966 37.7093 33.3458 36.5718 33.6896 35.4518C33.9011 34.7628 34.1106 34.0803 34.3201 33.4085C34.8334 31.8285 35.2367 30.2485 35.5667 28.6685H35.6401C35.7832 29.1601 35.9262 29.6745 36.0757 30.2118C36.1943 30.6383 36.3169 31.0792 36.4467 31.5345C36.7401 32.6001 37.0701 33.6657 37.4367 34.8048C37.6201 35.3744 37.7943 35.9348 37.9685 36.4952C38.1426 37.0555 38.3168 37.6158 38.5001 38.1853C38.8301 39.2877 39.1601 40.3532 39.4901 41.3454C39.8201 42.3007 40.1134 43.2193 40.3334 43.991ZM59.0701 27.015C59.9501 27.8601 61.1234 28.3378 62.3334 28.301C63.5801 28.3745 64.8268 27.8968 65.6701 27.015C66.5501 26.0963 66.9901 24.8838 66.9534 23.6345C66.9901 22.4219 66.5501 21.2461 65.7434 20.3642C64.9367 19.5191 63.8367 19.0781 62.4067 19.0781C61.1967 19.0781 60.0234 19.5191 59.1434 20.3642C58.2634 21.2093 57.7867 22.3851 57.8234 23.6345C57.7867 24.8838 58.2267 26.0963 59.0701 27.015ZM58.2267 31.902V60.1953C58.2267 60.5628 58.4101 60.7832 58.7767 60.7832H65.9634C66.2934 60.7832 66.4401 60.5995 66.4401 60.1953V31.902C66.4401 31.5713 66.2934 31.3876 65.9634 31.3876H58.7034C58.3734 31.3876 58.2267 31.5345 58.2267 31.902Z" fill="white"/>
</g>
<defs>
<clipPath id="clip0_7185_3067">
<rect width="88" height="86" fill="white"/>
</clipPath>
</defs>
</svg>
