<svg width="88" height="86" viewBox="0 0 88 86" fill="none" xmlns="http://www.w3.org/2000/svg">
<g clip-path="url(#clip0_7185_3003)">
<path fill-rule="evenodd" clip-rule="evenodd" d="M72.4167 0.0078125H15.5833C6.96667 0.0078125 0 6.98929 0 15.6243V70.3737C0 79.0087 6.96667 85.9902 15.5833 85.9902H72.4167C81.0333 85.9902 88 79.0087 88 70.3737V15.6243C88 6.98929 81.0333 0.0078125 72.4167 0.0078125ZM35.2732 40.7938L46.2732 22.6052C46.3466 22.5317 46.4199 22.3848 46.3832 22.348C46.3466 22.1643 46.1632 22.0541 45.9799 22.0908H38.2432C38.0599 22.0541 37.9132 22.0908 37.7666 22.1643C37.6566 22.2378 37.5832 22.3848 37.5466 22.5317C37.2174 23.1466 36.8882 23.7736 36.5565 24.4054C36.0754 25.3218 35.5891 26.2481 35.0899 27.1616L35.0896 27.162C34.2464 28.7051 33.4031 30.2483 32.5966 31.7914C31.7899 33.3346 30.9832 34.9147 30.2132 36.5314H30.1399C29.3699 34.9514 28.5632 33.4081 27.6832 31.8649C26.933 30.6018 26.2319 29.3387 25.5196 28.0555C25.3616 27.7708 25.203 27.4852 25.0432 27.1983C24.1999 25.6183 23.3932 24.0383 22.6966 22.4582C22.5866 22.3113 22.4766 22.201 22.3299 22.1275C22.1832 22.0908 21.9999 22.0541 21.8166 22.0541H13.4932C13.3466 22.0541 13.1999 22.0908 13.1266 22.201C13.0532 22.2745 13.0899 22.4215 13.1999 22.5685L24.3099 41.4185L12.9066 60.1582C12.8332 60.2684 12.7966 60.4154 12.8332 60.5624C12.8332 60.7014 12.8962 60.6932 12.9903 60.6809C13.0206 60.677 13.0542 60.6726 13.0899 60.6726H21.1566C21.5599 60.6726 21.8532 60.6359 21.9999 60.2684C22.5621 59.2641 23.1243 58.2271 23.6865 57.1901C23.9677 56.6716 24.2488 56.1531 24.5299 55.6386C25.3366 54.0953 26.1799 52.5153 27.0232 50.9353L27.0233 50.9352C27.8666 49.3552 28.7099 47.7752 29.4799 46.1953H29.5532C30.4331 47.8117 31.3129 49.3914 32.1927 50.9712L32.1932 50.9721C33.0732 52.5521 33.9166 54.0953 34.6866 55.6019C35.0716 56.3735 35.4657 57.136 35.8599 57.8985C36.2541 58.6609 36.6482 59.4233 37.0332 60.195C37.2899 60.5624 37.6932 60.5991 38.2799 60.5991H46.6766C46.7615 60.5849 46.8356 60.5927 46.8966 60.5991C46.9935 60.6092 47.0574 60.6159 47.0799 60.5257C47.1166 60.3787 47.0799 60.2317 47.0066 60.0847L35.2732 40.7938ZM55.3299 59.7173C57.7866 60.8564 60.4999 61.4075 63.2132 61.3708C65.1199 61.3708 66.9899 61.1871 68.8599 60.8564C70.9132 60.4889 72.9299 59.901 74.8366 59.0926C75.0932 58.9824 75.2032 58.7619 75.2032 58.5047C75.1976 58.4084 75.1919 58.3095 75.1861 58.2082C75.1544 57.6526 75.1186 57.0262 75.0566 56.3735C75.0532 56.2994 75.0498 56.2259 75.0465 56.153C75.0135 55.431 74.9832 54.7696 74.9832 54.1688V19.1145C74.9466 18.9675 74.7999 18.8205 74.6166 18.8573H67.1732C66.9166 18.8573 66.8066 19.0043 66.8066 19.2615V30.8728C66.603 30.8558 66.4151 30.8466 66.2393 30.8381C66.0351 30.8281 65.8472 30.819 65.6699 30.7993C65.3399 30.7625 65.0832 30.7625 64.8999 30.7625C61.2699 30.7625 58.1899 31.4607 55.6232 32.8937C53.2032 34.2165 51.1866 36.2007 49.7932 38.5891C48.4366 40.9408 47.7399 43.6231 47.7766 46.3422C47.7766 49.686 48.4366 52.4786 49.7932 54.72C51.1132 56.8879 53.0199 58.6517 55.3299 59.7173ZM66.8066 37.8542V54.0219C66.3666 54.1688 65.9632 54.2423 65.4866 54.2056C65.0099 54.2423 64.4966 54.2791 63.9466 54.2791C62.9199 54.2791 61.8932 54.1321 60.9032 53.8014C59.9499 53.5074 59.1066 52.993 58.4099 52.3316C57.6766 51.5967 57.1266 50.7148 56.7599 49.7227C56.3199 48.5102 56.0999 47.2241 56.1366 45.938C56.1366 44.0273 56.5399 42.4473 57.3466 41.2715C58.1532 40.0957 59.2166 39.177 60.4632 38.5524C61.7466 37.891 63.1766 37.597 64.6066 37.597C65.0099 37.597 65.4132 37.6338 65.8166 37.6705C66.1466 37.7073 66.4766 37.7807 66.8066 37.8542Z" fill="white"/>
</g>
<defs>
<clipPath id="clip0_7185_3003">
<rect width="88" height="86" fill="white"/>
</clipPath>
</defs>
</svg>
