<svg width="235" height="47" viewBox="0 0 235 47" fill="none" xmlns="http://www.w3.org/2000/svg">
<g clip-path="url(#clip0_7185_3171)">
<mask id="mask0_7185_3171" style="mask-type:luminance" maskUnits="userSpaceOnUse" x="0" y="0" width="235" height="47">
<path d="M235 0H0V47H235V0Z" fill="white"/>
</mask>
<g mask="url(#mask0_7185_3171)">
<path d="M64.3057 36.5243C62.459 36.5243 60.8059 36.0699 59.3465 35.1612C57.9167 34.2524 56.7848 32.9625 55.9509 31.2915C55.1467 29.5914 54.7446 27.5393 54.7446 25.1355C54.7446 22.7024 55.1765 20.6357 56.0402 18.9356C56.9041 17.2059 58.0657 15.9014 59.5253 15.022C61.0144 14.1133 62.6824 13.6588 64.5291 13.6588C66.1376 13.6588 67.5227 14.0399 68.6842 14.8022C69.8459 15.5643 70.7245 16.5757 71.3202 17.8362V4.46875H77.4412V36.0845H71.9457L71.6776 31.8193C71.0521 33.285 70.0841 34.4429 68.7735 35.293C67.463 36.1138 65.9738 36.5243 64.3057 36.5243ZM66.0929 31.9071C67.6715 31.9071 68.9374 31.3062 69.8905 30.1043C70.8437 28.8731 71.3202 27.1436 71.3202 24.9156C71.3202 22.8051 70.8437 21.1781 69.8905 20.0347C68.9672 18.8623 67.7312 18.2759 66.1822 18.2759C64.5142 18.2759 63.2037 18.8623 62.2506 20.0347C61.3272 21.1781 60.8655 22.8636 60.8655 25.0916C60.8655 27.3195 61.3272 29.0196 62.2506 30.1924C63.1739 31.3355 64.4547 31.9071 66.0929 31.9071Z" fill="white"/>
<path d="M94.0594 13.6602C96.2934 13.6602 98.2743 14.1146 100.001 15.0233C101.729 15.9321 103.069 17.2366 104.022 18.9369C105.006 20.637 105.497 22.689 105.497 25.0929C105.497 27.4967 105.006 29.5487 104.022 31.249C103.069 32.9491 101.729 34.2537 100.001 35.1624C98.2743 36.0711 96.2934 36.5255 94.0594 36.5255C91.7958 36.5255 89.8001 36.0711 88.0723 35.1624C86.3746 34.2537 85.0341 32.9491 84.0512 31.249C83.0981 29.5487 82.6216 27.4967 82.6216 25.0929C82.6216 22.689 83.0981 20.637 84.0512 18.9369C85.0341 17.2366 86.3746 15.9321 88.0723 15.0233C89.8001 14.1146 91.7958 13.6602 94.0594 13.6602ZM94.0594 18.1452C92.391 18.1452 91.0803 18.7317 90.1274 19.9041C89.2041 21.0474 88.7425 22.777 88.7425 25.0929C88.7425 27.4087 89.2041 29.1529 90.1274 30.3255C91.0803 31.4688 92.391 32.0404 94.0594 32.0404C95.6974 32.0404 96.9784 31.4688 97.9016 30.3255C98.8546 29.1529 99.331 27.4087 99.331 25.0929C99.331 22.777 98.8546 21.0474 97.9016 19.9041C96.9784 18.7317 95.6974 18.1452 94.0594 18.1452Z" fill="white"/>
<path d="M120.76 13.6602C123.739 13.6602 126.047 14.2905 127.685 15.551C129.353 16.8115 130.455 18.3357 130.991 20.1241L125.273 22.1467C124.677 19.4791 123.203 18.1452 120.849 18.1452C119.152 18.1452 117.826 18.7317 116.873 19.9041C115.949 21.0767 115.488 22.821 115.488 25.1367C115.488 27.482 115.964 29.2262 116.918 30.3695C117.901 31.4834 119.226 32.0404 120.894 32.0404C123.486 32.0404 125.034 30.7359 125.541 28.1269L131.081 29.8857C130.574 31.8499 129.442 33.4475 127.685 34.6787C125.958 35.9099 123.709 36.5255 120.939 36.5255C118.615 36.5255 116.575 36.0711 114.818 35.1624C113.091 34.2537 111.749 32.9491 110.797 31.249C109.844 29.5487 109.367 27.4967 109.367 25.0929C109.367 22.689 109.844 20.637 110.797 18.9369C111.78 17.2366 113.12 15.9321 114.818 15.0233C116.545 14.1146 118.526 13.6602 120.76 13.6602Z" fill="white"/>
<path d="M150.893 14.0988V18.5838H143.746V28.9173C143.746 29.9726 144.013 30.7494 144.55 31.2478C145.115 31.7168 145.875 31.9513 146.828 31.9513C147.602 31.9513 148.257 31.8488 148.793 31.6436C149.36 31.409 149.867 31.1011 150.313 30.7201L151.295 34.7216C150.551 35.2785 149.643 35.7183 148.57 36.0407C147.529 36.3632 146.411 36.5244 145.219 36.5244C142.986 36.5244 141.154 36.026 139.723 35.0293C138.324 34.0034 137.624 32.2885 137.624 29.8846V18.5838H133.514V14.0988H137.624V9.04203L143.746 7.37109V14.0988H150.893Z" fill="white"/>
<path d="M165.222 13.6602C167.457 13.6602 169.437 14.1146 171.165 15.0233C172.893 15.9321 174.234 17.2366 175.186 18.9369C176.169 20.637 176.659 22.689 176.659 25.0929C176.659 27.4967 176.169 29.5487 175.186 31.249C174.234 32.9491 172.893 34.2537 171.165 35.1624C169.437 36.0711 167.457 36.5255 165.222 36.5255C162.958 36.5255 160.963 36.0711 159.236 35.1624C157.538 34.2537 156.198 32.9491 155.215 31.249C154.262 29.5487 153.785 27.4967 153.785 25.0929C153.785 22.689 154.262 20.637 155.215 18.9369C156.198 17.2366 157.538 15.9321 159.236 15.0233C160.963 14.1146 162.958 13.6602 165.222 13.6602ZM165.222 18.1452C163.554 18.1452 162.244 18.7317 161.292 19.9041C160.368 21.0474 159.906 22.777 159.906 25.0929C159.906 27.4087 160.368 29.1529 161.292 30.3255C162.244 31.4688 163.554 32.0404 165.222 32.0404C166.861 32.0404 168.142 31.4688 169.064 30.3255C170.017 29.1529 170.494 27.4087 170.494 25.0929C170.494 22.777 170.017 21.0474 169.064 19.9041C168.142 18.7317 166.861 18.1452 165.222 18.1452Z" fill="white"/>
<path d="M181.78 36.0858V14.0999H187.097L187.499 18.4091C188.064 16.914 188.914 15.7561 190.046 14.9353C191.208 14.0852 192.668 13.6602 194.425 13.6602C195.466 13.6602 196.272 13.8214 196.838 14.1438L196.122 19.2005C195.824 19.1127 195.451 19.0394 195.005 18.9807C194.588 18.8928 194.038 18.8489 193.352 18.8489C192.429 18.8489 191.551 19.0687 190.716 19.5084C189.912 19.9189 189.243 20.5638 188.706 21.4431C188.169 22.2933 187.902 23.3779 187.902 24.697V36.0858H181.78Z" fill="white"/>
<path d="M206.662 4.46875V29.3129C206.662 30.3389 206.841 31.0572 207.197 31.4675C207.554 31.878 208.15 32.0832 208.985 32.0832C209.49 32.0832 209.908 32.0538 210.234 31.9952C210.563 31.9365 210.98 31.8193 211.486 31.6434L210.95 35.6007C210.443 35.894 209.803 36.1138 209.029 36.2604C208.284 36.4363 207.539 36.5243 206.795 36.5243C204.621 36.5243 203.027 36.0112 202.014 34.9852C201.032 33.93 200.54 32.259 200.54 29.9724V4.46875H206.662Z" fill="white"/>
<path d="M235.024 14.0977L225.999 37.4466C225.284 39.4401 224.48 41.023 223.586 42.1956C222.721 43.3975 221.709 44.2476 220.548 44.7461C219.416 45.2736 218.061 45.5375 216.481 45.5375C215.32 45.5375 214.249 45.4056 213.265 45.1418C212.312 44.8779 211.478 44.5115 210.763 44.0425L212.059 39.6892C213.102 40.51 214.413 40.9204 215.991 40.9204C216.854 40.9204 217.584 40.7445 218.179 40.3928C218.774 40.041 219.281 39.3374 219.698 38.2821L220.458 36.3914L218 30.675L211.165 14.0977H217.956L222.201 27.2892L223.363 31.6863L224.748 27.0253L228.813 14.0977H235.024Z" fill="white"/>
<path d="M25.5782 16.7407H34.2925V23.2844H42.3818C42.4587 22.5503 42.4974 21.8129 42.4974 21.0748C42.4971 16.2332 40.8143 11.5391 37.7319 7.78057C34.6492 4.02202 30.3544 1.42785 25.5684 0.433594L25.5782 16.7407Z" fill="white"/>
<path d="M16.7329 16.7919V8.14398H23.3868V0.111012C22.663 0.0392051 21.9296 0 21.1838 0C16.3184 0.000577901 11.6011 1.66958 7.82347 4.72701C4.04587 7.78445 1.43769 12.0443 0.436523 16.7919H16.7329Z" fill="white"/>
<path d="M25.6891 25.1875V33.8806H19.0234V41.9401C19.79 42.0235 20.5603 42.0654 21.3316 42.066C26.1924 42.066 30.9054 40.3887 34.6797 37.3157C38.4542 34.2422 41.0604 29.9601 42.0609 25.1875H25.6891Z" fill="white"/>
<path d="M16.8418 25.3336H8.21295V18.7812H0.114016C0.0375333 19.5158 -0.000521054 20.2536 5.38759e-06 20.992C0.000362983 25.8202 1.67222 30.5026 4.73691 34.2584C7.8016 38.0141 12.0739 40.6165 16.8418 41.6321V25.3336Z" fill="white"/>
</g>
</g>
<defs>
<clipPath id="clip0_7185_3171">
<rect width="235" height="47" fill="white"/>
</clipPath>
</defs>
</svg>
