<svg width="167" height="36" viewBox="0 0 167 36" fill="none" xmlns="http://www.w3.org/2000/svg">
<g clip-path="url(#clip0_7185_3188)">
<path d="M122.36 16.8137C121.609 21.0251 123.897 22.0882 125.999 22.0882C129.073 22.0882 130.296 19.8167 130.652 17.7587L133.767 0H142.009L138.62 19.2533C137.911 23.3102 134.913 28.6255 125.571 28.6255C118.948 28.6255 112.562 25.9498 114.295 15.9869L117.097 0H125.316L122.36 16.8137Z" fill="white"/>
<path d="M58.1425 0L54.3991 21.3522H64.9243L63.7417 27.9668H44.9746L49.9052 0.00908798L58.1425 0Z" fill="white"/>
<path d="M66.6981 22.955C66.6739 22.108 66.838 21.2661 67.1785 20.4901C67.5191 19.7139 68.0277 19.0228 68.6677 18.4665C70.2459 17.1673 72.9659 16.4176 76.3545 16.195L80.9303 15.8816L81.0485 14.8957C81.2441 13.3601 80.5345 12.5743 78.9972 12.5743C77.6964 12.5743 76.7502 13.124 76.5546 14.9366H68.7768C69.1725 11.5112 71.5786 7.80859 79.302 7.80859C86.5567 7.80859 89.6724 11.0387 88.6854 16.7084L87.5801 23.1277C87.2876 24.7247 87.1566 26.3473 87.1889 27.9705H79.5475C79.5169 27.0061 79.5963 26.0414 79.7841 25.0948C78.8016 27.2981 76.3181 28.4431 73.2798 28.4431C69.3771 28.4294 66.6981 26.4986 66.6981 22.955ZM80.2981 20.9834L80.5755 19.2933L78.6015 19.4115C75.7632 19.5659 74.8991 20.7743 74.8991 21.9692C74.8991 23.2685 75.9997 23.7046 77.105 23.7046C77.8847 23.7451 78.6503 23.4855 79.2443 22.9793C79.8382 22.4731 80.2153 21.7588 80.2981 20.9834Z" fill="white"/>
<path d="M87.5127 35.2388L88.4998 29.7871C89.581 30.1306 90.7137 30.2843 91.8475 30.2414C93.0301 30.2414 94.2945 29.7871 94.804 28.4696L95.0404 27.8381L91.1379 8.23047H99.498L100.126 19.2155C100.209 19.9712 100.197 20.7344 100.089 21.487H100.208C100.366 20.7123 100.59 19.9525 100.876 19.2155L105.252 8.23047H113.412L102.95 28.9829C99.7209 35.3432 96.0138 35.7975 92.0704 35.7975C90.5319 35.8358 88.9962 35.6475 87.5127 35.2388Z" fill="white"/>
<path d="M165.993 16.432C165.993 21.2748 162.996 26.5492 152.747 26.5492H148.199L146.558 35.9987H138.319L143.245 8.02734H154.876C160.512 8.02734 165.993 9.84455 165.993 16.432ZM157.2 16.7863C157.2 14.0604 154.994 13.7515 153.379 13.7515H150.501L149.2 21.0204H152.079C155.822 21.0385 157.2 18.9306 157.2 16.7863Z" fill="white"/>
<path d="M7.98291 18.2658C8.00565 18.1614 16.2793 4.02344 16.2793 4.02344H11.0122C10.4509 4.02457 9.90094 4.18095 9.42322 4.47525C8.94552 4.76955 8.55875 5.19026 8.30585 5.69072C8.10044 6.09986 7.99152 6.55053 7.98746 7.00821L7.98291 18.2658Z" fill="white"/>
<path d="M0.363889 12.8159L5.49912 21.4885L5.43998 8.69532H2.76093C2.39858 8.69472 2.03967 8.76548 1.70472 8.90356C1.36977 9.04165 1.06538 9.24435 0.808943 9.50006C0.552508 9.75577 0.349068 10.0595 0.210264 10.3938C0.0714583 10.7281 9.99727e-06 11.0865 1.04906e-05 11.4484C-0.00132145 11.9282 0.124201 12.4 0.363889 12.8159Z" fill="white"/>
<path d="M8.46927 24.1712C8.46762 24.5779 8.5353 24.982 8.6694 25.3661L8.71034 25.4842V25.5205C8.74204 25.6057 8.77848 25.6891 8.8195 25.7704C8.98438 26.1205 9.20565 26.4413 9.47448 26.7198C9.81283 27.0816 10.221 27.371 10.6744 27.571C11.1278 27.7709 11.617 27.877 12.1126 27.8828H27.1544C27.6745 27.8827 28.1877 27.7636 28.6545 27.5344C29.1214 27.3052 29.5292 26.9722 29.847 26.5608L42.3145 5.49484L42.5737 5.04055C42.8313 4.52208 42.9523 3.94653 42.9252 3.36834C42.898 2.79015 42.7237 2.22843 42.4185 1.73631C42.1135 1.24421 41.6877 0.837944 41.1816 0.55599C40.6755 0.274034 40.1058 0.125698 39.5262 0.125H24.0341C23.4816 0.125319 22.9373 0.25989 22.4484 0.517114C21.9595 0.774339 21.5405 1.14649 21.2278 1.60147L20.9912 2.00126L8.83314 22.563C8.77266 22.6948 8.71952 22.8298 8.67394 22.9673C8.62855 23.0983 8.59059 23.2318 8.56023 23.3671C8.4991 23.6308 8.46858 23.9006 8.46927 24.1712Z" fill="white"/>
</g>
<defs>
<clipPath id="clip0_7185_3188">
<rect width="167" height="36" fill="white"/>
</clipPath>
</defs>
</svg>
