<svg width="131" height="24" viewBox="0 0 131 24" fill="none" xmlns="http://www.w3.org/2000/svg">
<g clip-path="url(#clip0_7185_3204)">
<path d="M121.439 9.55781C121.433 9.34563 121.403 9.13488 121.347 8.92938C121.139 8.14578 120.624 7.46781 119.909 7.03402C119.376 6.71313 118.76 6.53915 118.129 6.53128C117.7 6.53128 117.268 6.53128 116.836 6.53128C116.611 6.53043 116.385 6.54724 116.162 6.58155C115.398 6.71149 114.706 7.09302 114.206 7.65978C113.706 8.22648 113.43 8.94258 113.426 9.68343C113.426 10.265 113.426 10.8465 113.426 11.428C113.426 12.4335 113.426 13.4163 113.426 14.4117C113.429 14.6241 113.46 14.8352 113.518 15.0402C113.726 15.8242 114.24 16.5024 114.956 16.9355C115.488 17.2572 116.103 17.4312 116.733 17.4382C117.165 17.4382 117.597 17.4382 118.027 17.4382C118.252 17.4371 118.477 17.4195 118.701 17.3855C119.465 17.257 120.158 16.8764 120.659 16.3099C121.159 15.7434 121.436 15.0271 121.439 14.286C121.439 13.7046 121.439 13.1231 121.439 12.5415C121.439 11.5361 121.439 10.5532 121.439 9.55781ZM118.993 14.0649C118.908 14.3652 118.726 14.6325 118.473 14.8291C118.221 15.0257 117.909 15.1417 117.584 15.1608C117.248 15.1953 116.91 15.1292 116.615 14.9715C116.32 14.8138 116.085 14.5725 115.941 14.281C115.869 14.1213 115.825 13.9515 115.809 13.7783C115.809 12.7494 115.809 11.7213 115.809 10.694C115.804 10.4406 115.83 10.1876 115.886 9.93986C115.971 9.63986 116.152 9.37286 116.404 9.17636C116.656 8.97978 116.967 8.86353 117.292 8.84388C117.628 8.80961 117.966 8.87613 118.261 9.03423C118.556 9.19241 118.791 9.43428 118.935 9.72618C119.008 9.88563 119.054 10.0554 119.069 10.2289C119.069 11.257 119.069 12.2851 119.069 13.3133C119.073 13.5657 119.048 13.8178 118.993 14.0649Z" fill="white"/>
<path fill-rule="evenodd" clip-rule="evenodd" d="M130.998 12.9387C130.998 13.9642 130.998 15.4046 130.998 16.4302C131.002 16.579 130.992 16.7279 130.969 16.8751C130.946 17.0351 130.87 17.1834 130.749 17.2971C130.63 17.4108 130.474 17.4834 130.306 17.5035C129.984 17.5362 129.659 17.5362 129.336 17.5035C129.131 17.482 128.942 17.3861 128.809 17.2355C128.675 17.085 128.607 16.8912 128.617 16.6941C128.617 14.7963 128.617 12.4837 128.617 10.5858C128.632 10.301 128.582 10.0165 128.473 9.75132C128.332 9.45656 128.097 9.21162 127.802 9.05097C127.508 8.89039 127.167 8.82237 126.83 8.85642C126.502 8.87719 126.19 8.99599 125.938 9.19594C125.685 9.39589 125.505 9.66672 125.424 9.96994C125.366 10.226 125.341 10.4875 125.347 10.7492C125.347 12.3831 125.347 14.4343 125.363 16.0682C125.363 16.2894 125.347 16.5132 125.347 16.7343C125.343 16.9306 125.264 17.1186 125.125 17.2631C124.986 17.4075 124.796 17.4984 124.591 17.5186C124.282 17.545 123.971 17.545 123.662 17.5186C123.484 17.4927 123.321 17.4099 123.2 17.2838C123.078 17.1577 123.005 16.9959 122.993 16.8249C122.969 16.5056 122.969 16.1838 122.964 15.8621C122.964 15.7038 122.964 15.5454 122.964 15.3845C122.964 13.6475 122.964 11.4958 122.964 9.75634C122.962 9.00897 123.235 8.28469 123.735 7.70959C124.235 7.13451 124.93 6.74508 125.7 6.60915C125.923 6.57267 126.148 6.555 126.374 6.55637C126.803 6.55637 127.235 6.5438 127.667 6.55637C128.41 6.55843 129.129 6.79696 129.713 7.23412C130.297 7.67127 130.711 8.28207 130.89 8.96952C130.949 9.17704 130.979 9.39072 130.982 9.60552C130.982 10.7166 130.982 11.8276 130.982 12.9387H130.998Z" fill="white"/>
<path fill-rule="evenodd" clip-rule="evenodd" d="M82.2222 13.3048C82.2222 14.26 82.2222 15.5495 82.2222 16.5047C82.2229 16.6312 82.2107 16.7575 82.1848 16.8817C82.1536 17.0524 82.0637 17.2081 81.9289 17.3242C81.7949 17.4403 81.6235 17.5102 81.4422 17.5228C81.1391 17.5417 80.8352 17.5341 80.5336 17.5001C80.36 17.4813 80.1977 17.4058 80.0751 17.2863C79.9517 17.1668 79.8763 17.0107 79.8596 16.8441C79.8299 16.6021 79.8154 16.3587 79.8177 16.1151C79.8177 15.9416 79.8177 15.7682 79.8177 15.5947C79.8177 13.7497 79.7994 11.5729 79.8177 9.7278C79.8131 9.17437 79.9616 8.62972 80.2495 8.14927C80.5374 7.66882 80.9533 7.26979 81.4552 6.99287C81.9533 6.69883 82.5291 6.54705 83.1148 6.55548C84.207 6.55548 85.2976 6.55548 86.3905 6.55548C86.6053 6.55164 86.8193 6.56172 87.0326 6.58565C87.2169 6.61633 87.3852 6.7046 87.5109 6.83657C87.6373 6.96854 87.7135 7.13671 87.728 7.31463C87.7599 7.61685 87.7516 7.92172 87.7043 8.2221C87.6708 8.39707 87.5779 8.55652 87.4385 8.67525C87.2999 8.79405 87.124 8.86545 86.9382 8.87812C86.0006 8.87812 85.0661 8.87812 84.1285 8.87812C83.8581 8.86612 83.5877 8.89237 83.325 8.95605C83.0043 9.0489 82.7225 9.23677 82.5207 9.49252C82.3189 9.74835 82.2077 10.0587 82.2031 10.3788C82.2031 11.3566 82.2031 12.3345 82.2031 13.3148L82.2222 13.3048Z" fill="white"/>
<path fill-rule="evenodd" clip-rule="evenodd" d="M9.71169 11.1377C9.71169 10.1146 9.71169 8.84272 9.71169 7.81717C9.70803 7.6692 9.71771 7.52115 9.74063 7.37474C9.76226 7.21446 9.83926 7.06563 9.95945 6.95182C10.0796 6.838 10.2361 6.76568 10.4042 6.74632C10.7263 6.71238 11.0512 6.71238 11.3733 6.74632C11.5789 6.76729 11.7681 6.86314 11.9014 7.01391C12.0349 7.16467 12.1023 7.35874 12.0896 7.55572C12.0896 9.44857 12.0896 11.5927 12.0896 13.4881C12.0762 13.7731 12.1264 14.0575 12.237 14.3226C12.3785 14.6169 12.6133 14.8613 12.9081 15.0214C13.2029 15.1815 13.5429 15.2492 13.8802 15.2149C14.2083 15.1945 14.5211 15.0758 14.7745 14.8759C15.0279 14.6761 15.2088 14.405 15.2917 14.1014C15.3489 13.8454 15.3745 13.5838 15.3681 13.3222C15.3681 11.6908 15.3681 9.80295 15.3496 8.17665C15.3496 7.9554 15.3654 7.73167 15.3654 7.5105C15.3701 7.31469 15.4495 7.12724 15.5886 6.98332C15.7277 6.83939 15.9171 6.74887 16.1212 6.72872C16.4312 6.6998 16.7434 6.6998 17.0534 6.72872C17.2314 6.7519 17.3953 6.83362 17.5169 6.95982C17.6386 7.08601 17.7102 7.24875 17.7196 7.41999C17.7459 7.73925 17.7459 8.061 17.7512 8.3802C17.7512 8.54107 17.7512 8.94832 17.7512 9.10665C17.7512 10.8412 17.7512 12.5781 17.7512 14.3125C17.7526 15.0595 17.4795 15.7831 16.9796 16.3577C16.4797 16.9323 15.7846 17.3213 15.0152 17.4572C14.7925 17.4936 14.567 17.5112 14.3411 17.51C13.9092 17.51 13.4773 17.51 13.0481 17.51C12.3052 17.5061 11.5849 17.2653 11.0018 16.8257C10.4188 16.3862 10.0064 15.7732 9.8302 15.0843C9.77445 14.8762 9.74353 14.6629 9.73804 14.4483C9.73804 13.3397 9.73804 12.2287 9.73804 11.1202L9.71169 11.1377Z" fill="white"/>
<path d="M96.9697 13.1555C96.9697 12.0017 96.9697 10.8479 96.9697 9.69405C96.9636 9.48908 96.9354 9.28515 96.8852 9.08573C96.8798 9.06848 96.8753 9.05085 96.8722 9.033C96.7328 8.5062 96.4609 8.01998 96.0794 7.61685C95.6978 7.2137 95.2187 6.9059 94.6841 6.72036C94.2979 6.58733 93.8912 6.51682 93.4807 6.51172C93.0252 6.51172 92.569 6.51172 92.1166 6.51172C91.8782 6.51255 91.6406 6.53104 91.4053 6.56702C90.5979 6.7018 89.866 7.1027 89.3367 7.69988C88.8073 8.29703 88.5141 9.05258 88.5088 9.83483C88.5088 11.5265 88.5088 13.6054 88.5088 14.9126C88.5088 16.2197 89.8386 16.9763 90.7076 17.2779C90.9925 17.3762 91.2887 17.4404 91.5896 17.4689H92.3504C92.5127 17.4753 92.6749 17.4677 92.8356 17.4464C92.9765 17.428 93.1105 17.3748 93.224 17.2919C93.3368 17.209 93.4251 17.0993 93.4807 16.9738C93.5043 16.9139 93.5203 16.8515 93.5279 16.7878C93.5698 16.4633 93.5751 16.1354 93.5439 15.8099C93.5363 15.7236 93.515 15.6389 93.4807 15.5585C93.4114 15.4103 93.2971 15.2852 93.1532 15.1988C93.0092 15.1124 92.8417 15.0688 92.6718 15.0734H92.6536C91.9293 15.0734 91.1235 14.7089 91.0237 14.0126C90.8759 12.9745 91.0237 11.9137 91.0237 10.8655C91.0168 10.5936 91.0435 10.322 91.1029 10.0561C91.192 9.73958 91.3832 9.45788 91.649 9.2505C91.9148 9.04313 92.2423 8.92043 92.585 8.89973C92.9392 8.86328 93.2971 8.93333 93.6071 9.10005C93.9179 9.26678 94.1662 9.52193 94.3177 9.8298C94.3375 9.87068 94.3543 9.91268 94.368 9.9555C94.4236 10.1183 94.4563 10.2873 94.4655 10.4582C94.4655 10.5412 94.4655 10.6217 94.4655 10.7096C94.4655 12.6803 94.4655 14.6503 94.4655 16.6193C94.4594 16.8446 94.5462 17.0632 94.7077 17.2277C94.844 17.3613 95.026 17.4441 95.221 17.4614C95.5607 17.4941 95.9034 17.4941 96.2431 17.4614C96.4198 17.4436 96.5851 17.3693 96.7123 17.2508C96.8387 17.1322 96.9202 16.9761 96.9431 16.8079C96.9659 16.6547 96.9758 16.5 96.972 16.3454C96.972 15.2829 96.972 14.2187 96.972 13.1529L96.9697 13.1555Z" fill="white"/>
<path fill-rule="evenodd" clip-rule="evenodd" d="M19.301 13.0278C19.301 14.071 19.301 15.3656 19.301 16.4087C19.2974 16.5601 19.3071 16.7114 19.33 16.8612C19.3503 17.023 19.4266 17.1737 19.5468 17.2893C19.6671 17.405 19.8243 17.479 19.9936 17.4997C20.3156 17.5336 20.6406 17.5336 20.9626 17.4997C21.1697 17.4757 21.3595 17.3768 21.4927 17.2235C21.6259 17.0702 21.6925 16.874 21.6789 16.6752C21.6789 14.7446 21.6789 12.5603 21.6789 10.6423C21.6653 10.3523 21.7156 10.0629 21.8263 9.79268C21.9645 9.49463 22.1978 9.24593 22.4929 9.08205C22.7881 8.91818 23.1299 8.84753 23.4696 8.88015C23.7987 8.9052 24.1112 9.02805 24.3634 9.23138C24.6157 9.4347 24.7948 9.7083 24.8758 10.0139C24.9328 10.2741 24.9585 10.5398 24.9521 10.8057C24.9521 12.4697 24.9521 14.3852 24.9363 16.0493C24.9363 16.2755 24.9495 16.5017 24.9521 16.7255C24.954 16.9235 25.0315 17.114 25.1702 17.2612C25.3089 17.4084 25.4992 17.5022 25.7052 17.5248C26.0158 17.5475 26.3279 17.5424 26.6374 17.5097C26.8161 17.483 26.9798 17.3984 27.101 17.2703C27.2223 17.1422 27.2938 16.9783 27.3037 16.8059C27.33 16.4816 27.33 16.1549 27.3353 15.8281C27.3353 15.6647 27.3353 15.2499 27.3353 15.089C27.3353 13.3295 27.3353 11.5523 27.3353 9.7851C27.3422 9.03023 27.0725 8.29673 26.573 7.71143C26.0733 7.12623 25.3752 6.72606 24.5992 6.58014C24.3763 6.54613 24.1509 6.52848 23.9251 6.52734C23.4932 6.52735 23.064 6.52734 22.6321 6.52734C21.8835 6.53632 21.1597 6.78463 20.5764 7.23258C19.993 7.68053 19.5838 8.3022 19.4142 8.99835C19.3587 9.2106 19.3278 9.4281 19.322 9.64688C19.322 10.7755 19.322 11.9092 19.322 13.0379L19.301 13.0278Z" fill="white"/>
<path fill-rule="evenodd" clip-rule="evenodd" d="M24.9256 13.0278V16.4087C24.9233 16.56 24.933 16.7113 24.9546 16.8612C24.9749 17.023 25.0512 17.1736 25.1714 17.2893C25.2917 17.405 25.4489 17.479 25.6182 17.4997C25.9411 17.5336 26.2669 17.5336 26.5899 17.4997C26.7968 17.4751 26.9861 17.3761 27.1192 17.2229C27.2522 17.0697 27.3191 16.8738 27.3062 16.6751V10.6423C27.2926 10.3523 27.3429 10.0629 27.4536 9.79268C27.5909 9.49463 27.8238 9.24578 28.1184 9.08183C28.4132 8.91788 28.7548 8.8473 29.0942 8.88015C29.4237 8.90468 29.7369 9.0273 29.9896 9.2307C30.2423 9.43403 30.4219 9.70793 30.503 10.0139C30.5579 10.2744 30.5826 10.54 30.5767 10.8057C30.5767 12.4697 30.5767 14.3852 30.5609 16.0493C30.5609 16.2755 30.5767 16.5017 30.5767 16.7255C30.5787 16.9238 30.6566 17.1146 30.7958 17.2619C30.9351 17.4092 31.126 17.5027 31.3325 17.5248C31.6421 17.5475 31.9534 17.5424 32.2621 17.5097C32.4412 17.4835 32.6054 17.3992 32.7272 17.271C32.849 17.1429 32.921 16.9787 32.9309 16.8059C32.9572 16.4816 32.9546 16.1549 32.9625 15.8281C32.9625 15.6647 32.9625 15.2499 32.9625 15.089C32.9625 13.3295 32.9625 11.5523 32.9625 9.7851C32.9688 9.02993 32.6986 8.29643 32.1986 7.71128C31.6985 7.12607 31.0001 6.72599 30.2239 6.58014C30.0017 6.54623 29.7773 6.52858 29.5524 6.52734C29.1205 6.52734 28.6886 6.52734 28.2568 6.52734C27.5082 6.5341 26.7837 6.78021 26.1989 7.22631C25.6141 7.67243 25.2029 8.29283 25.031 8.98823C24.9741 9.20033 24.9432 9.41798 24.9388 9.63683C24.9388 10.7654 24.9388 11.8991 24.9388 13.0278H24.9256Z" fill="white"/>
<path d="M68.4438 13.1555C68.4438 12.0017 68.4438 10.8479 68.4438 9.69405C68.4394 9.48893 68.4112 9.28493 68.3595 9.08573C68.3595 9.06818 68.3595 9.05055 68.3464 9.033C68.2073 8.50658 67.9354 8.02065 67.5544 7.61753C67.1734 7.21445 66.695 6.90644 66.1607 6.72036C65.7736 6.58756 65.366 6.51705 64.9547 6.51172C64.5017 6.51172 64.0462 6.51172 63.5906 6.51172C63.3533 6.51245 63.1165 6.53093 62.8823 6.56702C62.6348 6.60881 62.3929 6.67624 62.1607 6.76812C61.5225 7.01812 60.9762 7.44313 60.5908 7.98945C60.2056 8.53575 59.9986 9.1788 59.9961 9.83738C59.9961 11.5291 59.9961 13.6079 59.9961 14.915C59.9961 16.2221 61.3128 16.9788 62.1976 17.2805C62.4813 17.3788 62.7767 17.4429 63.0771 17.4715H63.8381C64.0009 17.4778 64.1639 17.4702 64.3253 17.4488C64.4663 17.4306 64.5999 17.3773 64.7126 17.2944C64.8254 17.2115 64.9134 17.1018 64.9678 16.9762C64.9931 16.9169 65.0091 16.8542 65.0152 16.7903C65.0569 16.4658 65.0631 16.1381 65.0337 15.8124C65.025 15.7259 65.0029 15.6412 64.9678 15.5611C64.8987 15.4132 64.7853 15.2883 64.6419 15.202C64.4985 15.1157 64.3315 15.0718 64.162 15.0759H64.1409C63.4168 15.0759 62.611 14.7114 62.5136 14.0151C62.3661 12.977 62.5136 11.9162 62.5136 10.868C62.5067 10.5962 62.5332 10.3245 62.5926 10.0586C62.6823 9.74175 62.8738 9.45975 63.1402 9.2523C63.4067 9.04485 63.7346 8.92245 64.0777 8.90228C64.4317 8.86598 64.7886 8.9361 65.0988 9.10283C65.409 9.26955 65.6569 9.52463 65.8078 9.83235C65.8281 9.87315 65.8457 9.91508 65.8606 9.95798C65.9163 10.1206 65.9482 10.2898 65.9553 10.4608C65.9553 10.5437 65.9553 10.6241 65.9553 10.7121V16.6218C65.9502 16.8474 66.0381 17.066 66.2002 17.2301C66.3358 17.3638 66.517 17.4467 66.7111 17.4639C67.0517 17.4966 67.3948 17.4966 67.7354 17.4639C67.9118 17.4455 68.0764 17.3711 68.203 17.2526C68.3296 17.134 68.4107 16.9783 68.4333 16.8104C68.4583 16.6574 68.4689 16.5026 68.4649 16.3478C68.4649 15.2846 68.4649 14.2187 68.4649 13.1555H68.4438Z" fill="white"/>
<path d="M108.045 7.16844C108.017 6.98647 107.926 6.81868 107.787 6.69133C107.648 6.56398 107.468 6.48424 107.277 6.4646C107.129 6.44489 106.981 6.43648 106.831 6.43946H104.112C104.093 6.43685 104.073 6.43685 104.054 6.43946H102.576C102.361 6.44373 102.148 6.46986 101.939 6.51739C101.279 6.647 100.685 6.98574 100.252 7.47858C99.8199 7.97145 99.5739 8.58945 99.5556 9.2322C99.5556 9.5514 99.5556 9.8832 99.5556 10.2377C99.5571 10.4247 99.5754 10.6114 99.6089 10.7957C99.6241 10.8737 99.6455 10.9541 99.6691 11.032C99.8336 11.5423 100.141 11.9997 100.559 12.3544C100.977 12.709 101.489 12.9472 102.039 13.043C102.256 13.0859 102.478 13.1078 102.7 13.1084H104.159C104.372 13.1601 104.563 13.2743 104.704 13.4348C104.846 13.5953 104.932 13.794 104.949 14.0032C104.972 14.2268 104.918 14.4514 104.796 14.6435C104.674 14.8356 104.49 14.9849 104.272 15.069C104.06 15.1436 103.834 15.177 103.608 15.167H99.1816C98.9501 15.1533 98.7216 15.2232 98.5411 15.3629C98.3606 15.5025 98.2418 15.7018 98.2075 15.9212C98.1763 16.1876 98.1763 16.4566 98.2075 16.7231C98.2372 16.9046 98.3286 17.072 98.4672 17.1992C98.6066 17.3264 98.7856 17.4064 98.9767 17.4269C99.1237 17.4466 99.273 17.455 99.4215 17.452H101.473C101.492 17.4545 101.511 17.4545 101.531 17.452H103.051H104.511C104.726 17.449 104.939 17.4228 105.147 17.3741C105.806 17.2468 106.401 16.9103 106.835 16.4192C107.269 15.9282 107.517 15.3116 107.537 14.6693C107.537 14.3501 107.537 14.0183 107.537 13.6639C107.536 13.4768 107.518 13.2901 107.485 13.1058C107.469 13.0304 107.451 12.95 107.427 12.872C107.262 12.3601 106.952 11.9015 106.531 11.5468C106.111 11.192 105.596 10.9547 105.044 10.8611C104.827 10.819 104.607 10.798 104.385 10.7982H102.924C102.712 10.7444 102.523 10.6297 102.381 10.4696C102.24 10.3095 102.153 10.1119 102.134 9.90338C102.11 9.67958 102.163 9.45443 102.284 9.26175C102.406 9.06915 102.59 8.91938 102.808 8.835C103.02 8.76135 103.246 8.72888 103.472 8.73953H107.074C107.306 8.75438 107.536 8.68493 107.716 8.54505C107.897 8.40518 108.016 8.2053 108.049 7.9854C108.079 7.71975 108.079 7.4517 108.049 7.18603" fill="white"/>
<path fill-rule="evenodd" clip-rule="evenodd" d="M112.158 8.01693V7.87361C112.159 7.70561 112.15 7.53776 112.129 7.37089C112.06 6.89077 111.771 6.51874 111.379 6.46847C111.015 6.42197 110.647 6.42197 110.283 6.46847C109.788 6.53634 109.472 7.02148 109.472 7.63481V11.4783C109.472 12.9513 109.472 14.4219 109.472 15.8949V16.0381C109.473 16.2061 109.484 16.374 109.504 16.5409C109.572 17.021 109.862 17.3931 110.254 17.4433C110.618 17.4898 110.986 17.4898 111.35 17.4433C111.845 17.3754 112.16 16.8903 112.16 16.2795V9.93236C112.16 8.45936 112.16 9.48993 112.16 8.01693" fill="white"/>
<path d="M34.5961 12.7684C34.5961 11.6674 34.5961 10.5689 34.5961 9.47047C34.601 9.27465 34.6284 9.07994 34.6777 8.88982C34.6777 8.87467 34.6777 8.85712 34.6777 8.8395C34.8123 8.33692 35.0741 7.87357 35.44 7.49012C35.8059 7.10663 36.2648 6.81473 36.7765 6.64002C37.1452 6.51419 37.5331 6.44709 37.9246 6.44145C38.3565 6.44145 38.791 6.44145 39.2229 6.44145C39.4495 6.44049 39.6758 6.4573 39.8996 6.49172C40.1349 6.53284 40.3653 6.59685 40.5869 6.68276C41.1951 6.92129 41.7156 7.32655 42.0826 7.84732C42.4495 8.36812 42.6466 8.98109 42.6488 9.6087C42.6488 10.9636 42.7067 12.5296 42.6278 13.9096C42.5408 15.448 42.0852 16.7476 40.558 17.2654C40.287 17.3598 40.0049 17.4214 39.718 17.449H38.9885C38.8345 17.4528 38.6805 17.4452 38.5277 17.4263C38.3936 17.4079 38.2667 17.3567 38.1592 17.278C38.0517 17.1991 37.9673 17.0953 37.9141 16.9764C37.89 16.9192 37.8741 16.8592 37.8667 16.7979C37.8287 16.5481 37.8235 16.2948 37.8509 16.0438C37.86 15.9634 37.8814 15.8846 37.9141 15.81C37.9792 15.6685 38.0873 15.5487 38.2243 15.4663C38.3613 15.3838 38.5211 15.3424 38.6831 15.3475H38.7015C39.3914 15.3475 40.1603 14.9981 40.2525 14.342C40.3947 13.3516 40.2525 11.602 40.2525 10.6016C40.2588 10.3432 40.2332 10.0851 40.1761 9.83242C40.0908 9.5307 39.9084 9.26219 39.6547 9.06472C39.401 8.86717 39.0888 8.75062 38.762 8.73142C38.4248 8.69542 38.0843 8.7615 37.7884 8.92027C37.4926 9.07905 37.2566 9.3225 37.1136 9.61627C37.0931 9.65407 37.0763 9.6936 37.0635 9.7344C37.0106 9.88725 36.9796 10.0462 36.9714 10.207C36.9714 10.2849 36.9714 10.3628 36.9714 10.4432C36.9714 12.3184 36.9714 20.5986 36.9714 22.4764C36.9744 22.6907 36.8905 22.8979 36.737 23.0545C36.6072 23.1814 36.4347 23.2606 36.2498 23.2782C35.926 23.3109 35.5994 23.3109 35.2755 23.2782C35.108 23.2601 34.9515 23.1893 34.8308 23.0769C34.7102 22.9644 34.6322 22.8168 34.6093 22.6573C34.5864 22.5118 34.5767 22.3646 34.5803 22.2175C34.5803 21.2119 34.5803 13.7865 34.5803 12.7735L34.5961 12.7684Z" fill="white"/>
<path d="M0.0161166 12.7684C0.0161166 11.6674 0.0161166 10.5689 0.0161166 9.47047C0.0211604 9.27892 0.047644 9.0885 0.0951159 8.90235C0.0941235 8.88562 0.0941235 8.86882 0.0951159 8.8521C0.227539 8.3475 0.488019 7.88175 0.853579 7.49599C1.21913 7.11022 1.67853 6.81625 2.19124 6.64002C2.55911 6.51441 2.94609 6.44733 3.33674 6.44145C3.77124 6.44145 4.2031 6.44145 4.63761 6.44145C4.86425 6.44049 5.0906 6.4573 5.31436 6.49172C5.54969 6.53284 5.77999 6.59685 6.00167 6.68276C6.60985 6.92129 7.13031 7.32655 7.49731 7.84732C7.86434 8.36812 8.06137 8.98109 8.06358 9.6087C8.06358 10.9636 8.12147 12.5296 8.04249 13.9096C7.95558 15.448 7.50002 16.7476 5.97007 17.2654C5.70006 17.3598 5.41874 17.4214 5.13266 17.449H4.40586C4.25188 17.4528 4.09781 17.4452 3.94503 17.4263C3.81032 17.4095 3.68264 17.359 3.5749 17.2801C3.46716 17.201 3.38319 17.0963 3.33147 16.9764C3.30738 16.9192 3.29144 16.8592 3.28407 16.7979C3.24483 16.5482 3.23952 16.2947 3.26827 16.0438C3.27605 15.9631 3.29739 15.8842 3.33147 15.81C3.3966 15.6685 3.50465 15.5487 3.64169 15.4663C3.77874 15.3838 3.93851 15.3424 4.10041 15.3475H4.11884C4.80877 15.3475 5.57506 14.9981 5.66986 14.342C5.81207 13.3516 5.66986 11.602 5.66986 10.6016C5.67706 10.3433 5.65231 10.0852 5.59613 9.83242C5.51077 9.5307 5.3284 9.26219 5.0747 9.06472C4.82101 8.86717 4.5088 8.75062 4.18204 8.73142C3.84442 8.69527 3.50344 8.76127 3.20721 8.92005C2.91097 9.07875 2.67443 9.32227 2.53094 9.61627C2.51243 9.6546 2.49659 9.69405 2.48354 9.7344C2.43061 9.88725 2.3996 10.0462 2.39137 10.207C2.39137 10.2849 2.39137 10.3628 2.39137 10.4432C2.39137 12.3184 2.39137 20.5986 2.39137 22.4764C2.39657 22.6906 2.31335 22.8982 2.15964 23.0545C2.02987 23.1814 1.85737 23.2606 1.67248 23.2782C1.34861 23.3109 1.02202 23.3109 0.698148 23.2782C0.530285 23.2603 0.373453 23.1895 0.252355 23.0771C0.131259 22.9647 0.0527799 22.817 0.029283 22.6573C0.00775855 22.5116 -0.00192604 22.3645 0.000316236 22.2175V12.7684H0.0161166Z" fill="white"/>
<path d="M70.0789 11.2246C70.0789 12.3231 70.0789 13.4241 70.0789 14.5226C70.0837 14.7176 70.111 14.9115 70.1605 15.1007C70.1605 15.1183 70.1605 15.1359 70.1605 15.1535C70.2934 15.6552 70.553 16.1181 70.9166 16.502C71.2801 16.8858 71.7366 17.1789 72.2461 17.3555C72.6133 17.4837 73.0007 17.5508 73.3916 17.5541C73.8261 17.5541 74.2606 17.5541 74.6924 17.5541C74.9191 17.553 75.1454 17.5353 75.3692 17.5013C76.1368 17.3713 76.8323 16.9884 77.335 16.4193C77.8369 15.8502 78.1141 15.131 78.1187 14.3868C78.1187 13.032 78.1766 11.4634 78.0974 10.0859C78.0106 8.54749 77.5551 7.24791 76.0249 6.72757C75.7548 6.63394 75.4735 6.57313 75.1875 6.54658H74.4608C74.3068 6.54067 74.1526 6.5474 73.9999 6.56669C73.8655 6.58541 73.7384 6.63688 73.631 6.71614C73.5235 6.79539 73.4393 6.89976 73.3863 7.01916C73.3623 7.07636 73.3463 7.13638 73.339 7.19764C73.2994 7.44729 73.2942 7.70081 73.3231 7.95176C73.3313 8.03314 73.3527 8.11286 73.3863 8.18801C73.4527 8.33186 73.5633 8.45306 73.7034 8.53564C73.8435 8.61829 74.0066 8.65834 74.171 8.65054H74.1895C74.8794 8.65054 75.6484 8.99741 75.7405 9.65606C75.8827 10.6464 75.7405 12.396 75.7405 13.3939C75.7469 13.6531 75.7213 13.9122 75.6641 14.1656C75.5788 14.4673 75.3964 14.7358 75.1427 14.9334C74.889 15.1309 74.5768 15.2475 74.2501 15.2666C73.9126 15.3016 73.5721 15.2352 73.2761 15.0765C72.9802 14.9179 72.7434 14.6751 72.599 14.3818C72.5808 14.3424 72.5651 14.3022 72.5516 14.2611C72.4987 14.1083 72.4677 13.9494 72.4594 13.7886C72.4594 13.7098 72.4594 13.6319 72.4594 13.5548C72.4594 11.6771 72.4594 3.39943 72.4594 1.52169C72.4645 1.30669 72.3813 1.09833 72.2277 0.941024C72.0983 0.813921 71.9255 0.735417 71.7405 0.719821C71.4166 0.687143 71.09 0.687143 70.7662 0.719821C70.5984 0.739143 70.442 0.810674 70.3211 0.923354C70.2002 1.03603 70.1215 1.1836 70.0973 1.34322C70.0752 1.48885 70.0665 1.63603 70.071 1.78312C70.071 2.7886 70.071 10.2116 70.071 11.2271L70.0789 11.2246Z" fill="white"/>
<path d="M47.9805 8.96812C47.9773 8.53102 48.1112 8.10292 48.3649 7.73895C48.6434 7.34963 49.0326 7.04438 49.4867 6.85915C50.0359 6.63023 50.6309 6.5187 51.23 6.53237C51.8214 6.51883 52.408 6.63583 52.9442 6.87424C53.3861 7.06704 53.7613 7.37563 54.0266 7.76407C54.2573 8.10262 54.3832 8.49645 54.39 8.90025C54.3974 9.42652 54.1885 9.93465 53.808 10.3155C53.3007 10.8017 52.7213 11.2142 52.0885 11.5396C52.3518 11.8262 52.5966 12.0927 52.8231 12.344C53.0496 12.5954 53.2656 12.8317 53.4762 13.0479C53.6869 13.264 53.8791 13.4526 54.0529 13.6059C54.1319 13.4702 54.253 13.2188 54.4189 12.8518C54.5353 12.5653 54.6912 12.2947 54.8823 12.0475C54.9576 11.9641 55.0517 11.8982 55.1575 11.8546C55.2634 11.8111 55.3782 11.791 55.4933 11.7961C55.7377 11.7961 55.9725 11.8861 56.149 12.0475C56.2396 12.1194 56.3121 12.2098 56.3613 12.3121C56.4105 12.4142 56.4352 12.5257 56.4334 12.6382C56.4078 12.9503 56.3249 13.2558 56.1885 13.5406C55.9916 13.9911 55.7537 14.4243 55.4775 14.8351C55.6724 14.9884 55.9831 15.2248 56.4045 15.5389C56.6861 15.7312 56.9504 15.9456 57.1944 16.18C57.2972 16.3097 57.3485 16.47 57.3393 16.6324C57.3416 16.7521 57.3164 16.8709 57.2654 16.9804C57.2144 17.0899 57.139 17.1873 57.0444 17.2659C56.8672 17.4278 56.6313 17.5179 56.386 17.5172C56.1289 17.5144 55.8786 17.4382 55.6671 17.2986C55.4354 17.1553 54.9456 16.7958 54.195 16.2328C53.876 16.5146 53.5223 16.7585 53.1418 16.9592C52.772 17.1493 52.3769 17.2906 51.9673 17.379C51.5073 17.4758 51.0373 17.5222 50.5664 17.5172C49.9659 17.5296 49.3675 17.4446 48.7968 17.2659C48.3176 17.1115 47.8747 16.869 47.4933 16.552C47.1636 16.2729 46.8996 15.9302 46.7191 15.5465C46.5511 15.1969 46.4614 14.8176 46.4558 14.4329C46.4473 13.7626 46.7051 13.1142 47.1773 12.6181C47.4275 12.3541 47.7104 12.1202 48.0199 11.9218C48.391 11.6804 48.78 11.4653 49.1838 11.2783C48.8451 10.9021 48.5452 10.4955 48.2885 10.0641C48.09 9.72975 47.984 9.3525 47.9805 8.96812ZM50.2135 12.4421C49.7662 12.6623 49.3596 12.9511 49.01 13.2967C48.75 13.5724 48.6081 13.9313 48.6125 14.3022C48.6113 14.5226 48.6607 14.7406 48.7573 14.9407C48.8612 15.153 49.0059 15.3448 49.1838 15.5063C49.3704 15.6798 49.5916 15.8157 49.8343 15.906C50.0864 15.9979 50.3544 16.0438 50.6243 16.0417C50.8924 16.0434 51.159 16.0044 51.4143 15.9261C51.6677 15.8482 51.9088 15.7375 52.1306 15.5968C52.3795 15.4374 52.6146 15.2592 52.8336 15.0639C52.3916 14.6925 51.9706 14.299 51.5723 13.885C51.1861 13.5046 50.7331 13.0236 50.2135 12.4421ZM51.0167 10.4563C51.4302 10.2244 51.8198 9.95595 52.1806 9.65437C52.2944 9.5559 52.3852 9.4356 52.4469 9.30127C52.5087 9.16702 52.54 9.02182 52.5387 8.87512C52.5408 8.73202 52.5098 8.59027 52.4479 8.45992C52.386 8.32957 52.2947 8.21385 52.1806 8.121C51.9243 7.92202 51.6038 7.81335 51.2734 7.81335C50.943 7.81335 50.6226 7.92202 50.3663 8.121C50.2522 8.20942 50.1602 8.32087 50.0969 8.4474C50.0336 8.57392 50.0005 8.7123 50.0002 8.85255C50.0052 9.01672 50.0522 9.17722 50.1372 9.3201C50.236 9.49665 50.3506 9.6648 50.4794 9.82282C50.6164 9.99622 50.7955 10.2049 51.0167 10.4563Z" fill="white"/>
<path fill-rule="evenodd" clip-rule="evenodd" d="M112.135 4.17788V4.14771C112.135 4.1276 112.135 4.11 112.135 4.08989C112.135 3.98777 112.124 3.88589 112.103 3.78573C112.066 3.61696 111.975 3.4632 111.844 3.34537C111.711 3.22754 111.544 3.15134 111.366 3.12714C111.007 3.09824 110.646 3.09824 110.286 3.12714C110.072 3.14747 109.873 3.24218 109.728 3.39328C109.582 3.54437 109.499 3.7413 109.496 3.94661V4.08487C109.496 4.99734 109.496 3.63491 109.496 4.54739V4.63034C109.495 4.7324 109.505 4.8343 109.525 4.9345C109.563 5.10347 109.654 5.2573 109.786 5.37512C109.919 5.49293 110.086 5.56902 110.265 5.59309C110.623 5.62199 110.984 5.62199 111.342 5.59309C111.556 5.57219 111.755 5.47695 111.901 5.32544C112.046 5.17394 112.128 4.97669 112.132 4.7711C112.132 3.79579 112.132 5.0828 112.132 4.17033" fill="white"/>
</g>
<defs>
<clipPath id="clip0_7185_3204">
<rect width="131" height="24" fill="white"/>
</clipPath>
</defs>
</svg>
