<svg width="166" height="53" viewBox="0 0 166 53" fill="none" xmlns="http://www.w3.org/2000/svg">
<path d="M0.006073 35.371L0.0550652 0.00146484L52.0665 52.274H16.3478L0.006073 35.371Z" fill="#ffffffaa"/>
<path d="M0.00262451 0.00195312H43.6442V13.4421C43.6442 25.5551 33.8247 35.3746 21.7117 35.3746H0.00262451V0.00195312Z" fill="#ffffff66"/>
<path d="M32.4566 32.5647C29.2811 34.3527 25.6154 35.3727 21.7114 35.3727H0.00232252L0 0L32.4566 32.5647Z" fill="#ffffffff"/>
<path d="M68.2355 36.8718H72.4897V26.8996C72.4897 22.4624 75.0514 17.5677 79.4886 17.5677C80.0833 17.5677 80.495 17.6592 80.678 17.7049V13.5879C80.495 13.5422 79.9461 13.4507 79.3056 13.4507C76.012 13.4507 73.5876 15.6464 72.261 18.8943H72.2153C72.1695 18.7571 72.3068 18.0709 72.261 17.2017L72.2153 13.9996H68.2355V36.8718Z" fill="white"/>
<path d="M94.2136 13.4507C87.9009 13.4507 83.0062 18.5283 83.0062 25.4357C83.0062 32.5261 87.9009 37.4208 95.1285 37.4208C98.8338 37.4208 101.899 36.4601 103.683 35.4538V31.5655C101.761 32.8006 98.5135 33.7155 95.4029 33.7155C90.5998 33.7155 87.5806 30.8793 87.4434 26.3964V26.3506H104.46C104.46 25.8932 104.552 25.024 104.552 24.1091C104.552 18.4826 100.938 13.4507 94.2136 13.4507ZM100.343 23.3315H87.4892C87.8551 20.0379 90.2338 17.0188 94.1678 17.0188C98.2391 17.0188 100.389 20.0379 100.343 23.3315Z" fill="white"/>
<path d="M124.835 13.9996C122.502 19.5805 119.986 25.573 117.973 30.6963C115.961 25.573 113.445 19.5805 111.112 13.9996H106.583L116.83 37.4208H119.117L129.364 13.9996H124.835Z" fill="white"/>
<path d="M133.442 13.9996V36.8718H137.696V13.9996H133.442ZM132.893 7.36671C132.893 8.87627 133.945 9.92839 135.546 9.92839C137.101 9.92839 138.199 8.87627 138.199 7.36671C138.199 5.8114 137.101 4.75928 135.546 4.75928C133.945 4.75928 132.893 5.8114 132.893 7.36671Z" fill="white"/>
<path d="M154.198 13.4507C147.428 13.4507 142.442 18.5283 142.442 25.4357C142.442 32.3431 147.428 37.4208 154.198 37.4208C161.014 37.4208 166 32.3431 166 25.4357C166 18.5283 161.014 13.4507 154.198 13.4507ZM154.198 33.7155C149.806 33.7155 146.559 30.2846 146.559 25.4357C146.559 20.5868 149.806 17.156 154.198 17.156C158.635 17.156 161.883 20.5868 161.883 25.4357C161.883 30.2846 158.635 33.7155 154.198 33.7155Z" fill="white"/>
</svg>
