<svg width="163" height="38" viewBox="0 0 163 38" fill="none" xmlns="http://www.w3.org/2000/svg">
<path d="M0 37.2961L24.2978 27.0593L16.6111 19.2577L0 37.2961ZM8.92446 11.466L16.6111 19.2577L30.3412 2.47656L8.92446 11.466Z" fill="white"/>
<path d="M42.4932 15.2589H38.7119V13.2705H48.4778V15.2622H44.709V26.5019H42.494L42.4932 15.2589ZM53.0112 13.2705H55.2403V18.9911H60.8774V13.2705H63.1247V26.5019H60.8774V20.9795H55.2403V26.5019H53.0121L53.0112 13.2705ZM70.6641 25.9864C69.9012 25.6403 69.3253 24.9852 68.9381 24.0204C68.55 23.0571 68.3564 21.6379 68.3564 19.7635C68.3564 17.8957 68.5533 16.4674 68.9464 15.4786C69.3394 14.4906 69.9186 13.8157 70.6823 13.4564C71.4451 13.1011 72.4695 12.9227 73.7528 12.9219C75.0369 12.9219 76.0695 13.0995 76.8506 13.4564C77.6201 13.8116 78.1976 14.4807 78.5865 15.4629C78.9754 16.4451 79.169 17.8767 79.1682 19.7577C79.1682 21.6264 78.9713 23.0456 78.5766 24.0154C78.1827 24.9852 77.6077 25.642 76.8506 25.9856C76.0935 26.3293 75.0617 26.5011 73.7528 26.5019C72.4455 26.5019 71.4153 26.3317 70.6641 25.9864ZM75.6699 24.1319C76.1117 23.8907 76.4303 23.4363 76.6239 22.7672C76.8175 22.0989 76.9151 21.0944 76.9151 19.7544C76.9151 18.3683 76.815 17.3315 76.614 16.6442C76.4137 15.9569 76.096 15.4984 75.6608 15.2688C75.2247 15.0416 74.5893 14.9276 73.7528 14.9268C72.9419 14.9268 72.318 15.0441 71.8812 15.2787C71.4451 15.5133 71.1241 15.971 70.9189 16.6525C70.712 17.3332 70.6094 18.3674 70.6094 19.7544C70.6094 21.1043 70.7029 22.1088 70.8908 22.7672C71.0778 23.4264 71.3922 23.8816 71.8332 24.1319C72.2692 24.3731 72.9113 24.4937 73.7594 24.4937C74.5909 24.4937 75.2281 24.3731 75.6699 24.1319ZM84.7482 13.2705H90.1703C91.303 13.2705 92.2007 13.5662 92.8635 14.1585C93.5254 14.7508 93.8572 15.8231 93.8572 17.3745C93.8572 18.5467 93.6495 19.4009 93.2333 19.9378C92.8172 20.477 92.2472 20.8776 91.5984 21.0869L94.1642 26.5019H91.9054L89.5919 21.4099C88.8572 21.4099 87.9834 21.3975 86.9715 21.3727V26.5019H84.7482V13.2705ZM89.7905 19.6371C90.3697 19.6371 90.8173 19.4719 91.1367 19.144C91.4552 18.816 91.6166 18.227 91.6182 17.3786C91.6182 16.5649 91.4577 16.0073 91.1367 15.7041C90.8157 15.4018 90.3672 15.2523 89.7905 15.2564H86.9715V19.6305L89.7905 19.6371ZM100.735 25.9691C100.074 25.613 99.5688 24.9406 99.2205 23.9526C98.8713 22.9638 98.6976 21.5355 98.6984 19.6677C98.6984 17.8941 98.8755 16.517 99.2296 15.5356C99.5846 14.5542 100.104 13.8735 100.789 13.4919C101.473 13.1119 102.358 12.9219 103.446 12.9219C104.161 12.9227 104.875 12.9797 105.581 13.0945C106.201 13.1879 106.814 13.3234 107.415 13.501V15.2217C107.061 15.1507 106.555 15.0846 105.899 15.0243C105.232 14.9633 104.562 14.933 103.892 14.9334C103.113 14.9334 102.513 15.0573 102.093 15.3043C101.673 15.5505 101.369 16.0123 101.181 16.688C100.992 17.3629 100.898 18.3674 100.898 19.7016C100.898 21.0357 100.986 22.0427 101.163 22.7217C101.34 23.3983 101.636 23.8617 102.049 24.1137C102.462 24.3657 103.071 24.492 103.874 24.4937C105.058 24.5037 106.242 24.4372 107.418 24.2946V26.0129C106.342 26.3342 105.002 26.497 103.396 26.5019C102.284 26.5019 101.397 26.3251 100.735 25.9691ZM112.649 13.2705H114.878V18.9911H120.516V13.2705H122.763V26.5019H120.516V20.9795H114.878V26.5019H112.649V13.2705ZM131.98 13.2705H134.807L139.155 26.5019H136.817L135.785 23.3603H130.954L129.94 26.4986H127.645L131.981 13.2705H131.98ZM135.242 21.3744L133.358 15.1721L131.474 21.3744H135.242ZM144.037 13.2705H146.13V26.5019H144.036L144.037 13.2705ZM152.058 13.2705H153.849L159.928 22.7184V13.2705H162.172V26.5019H160.381L154.302 17.0597V26.5019H152.058V13.2705Z" fill="white"/>
</svg>
