<svg width="74" height="28" viewBox="0 0 74 28" fill="none" xmlns="http://www.w3.org/2000/svg">
<g clip-path="url(#clip0_1781_10315)">
<path d="M45.9658 17.0001C45.9658 15.7531 46.2204 14.647 46.7297 13.6821C47.2544 12.7171 47.9565 11.9748 48.8361 11.4552C49.7311 10.9356 50.7265 10.6758 51.8221 10.6758C52.7789 10.6758 53.6122 10.8614 54.322 11.2325C55.0473 11.6036 55.626 12.0713 56.0581 12.6354V10.7525H59.3219V23.3986H56.0581V21.4093C55.6414 21.9883 55.0627 22.4708 54.322 22.8568C53.5967 23.2279 52.7557 23.4135 51.799 23.4135C50.7188 23.4135 49.7311 23.1463 48.8361 22.6118C47.9565 22.0774 47.2544 21.3277 46.7297 20.3627C46.2204 19.3829 45.9658 18.262 45.9658 17.0001ZM56.0581 17.0446C56.0581 16.2875 55.9038 15.6417 55.5951 15.1073C55.2865 14.558 54.8699 14.1423 54.3452 13.8602C53.8205 13.5633 53.2573 13.4148 52.6554 13.4148C52.0536 13.4148 51.498 13.5559 50.9888 13.8379C50.4796 14.12 50.0629 14.5357 49.7388 15.085C49.4302 15.6194 49.2759 16.2578 49.2759 17.0001C49.2759 17.7424 49.4302 18.3956 49.7388 18.9597C50.0629 19.509 50.4796 19.9322 50.9888 20.2291C51.5135 20.526 52.069 20.6744 52.6554 20.6744C53.2573 20.6744 53.8205 20.5334 54.3452 20.2513C54.8699 19.9544 55.2865 19.5387 55.5951 19.0043C55.9038 18.455 56.0581 17.8018 56.0581 17.0446Z" fill="white"/>
<path d="M68.8386 23.413L64.1659 17.7318V23.413H60.6863V4.83203H64.1659V15.1739L67.9148 10.6873H72.3945L67.2479 16.552L73.3622 23.413H68.8386Z" fill="white"/>
<path d="M34.66 12.8437L34.6601 12.8438L34.6624 12.8416C37.1809 10.4962 40.6738 10.2351 43.3776 11.1288C44.4341 11.5397 45.2692 12.4479 45.2705 13.6204C45.2717 14.6283 44.6832 15.435 44.1902 15.945C43.1471 17.0237 41.4256 17.9219 39.7483 18.2638C38.1257 18.5945 36.542 18.4513 35.0805 18.0411L35.0457 18.0313L35.0324 18.0651C34.9993 18.1497 34.966 18.236 34.9324 18.3237C34.8255 18.6034 34.7923 18.917 34.8375 19.167C34.8778 19.3898 34.9674 19.5223 35.1054 19.6162C35.4773 19.8694 36.2971 20.1097 37.4794 20.1429C38.6086 20.1746 39.828 20.0096 40.8169 19.6915C41.5707 19.449 42.1509 19.1597 42.869 18.7108C43.6201 18.2414 44.6096 18.4697 45.0791 19.2208C45.5485 19.972 45.3202 20.9614 44.569 21.4309C43.6827 21.9849 42.8614 22.4032 41.7993 22.7449C40.5206 23.1563 38.9766 23.4675 37.4612 23.4772C35.9454 23.487 34.4619 23.1953 33.3005 22.4048C32.3149 21.734 31.842 20.7738 31.6813 19.8073C31.5204 18.8399 31.6728 17.8676 31.9364 17.1781C31.9808 17.0619 32.0272 16.9408 32.0761 16.8156L32.0869 16.7879L32.0635 16.7696C31.706 16.4897 31.4446 16.2802 31.2221 16.1018C30.7775 15.7455 30.4879 15.5133 29.8961 15.0931C29.7479 14.9878 29.616 14.9125 29.4591 14.8616C29.293 14.8077 29.1274 14.9114 29.0723 15.0692C28.7492 15.9937 28.6202 16.9566 28.51 17.9203C28.4983 18.0226 28.4869 18.1249 28.4754 18.2271C28.3785 19.0894 28.282 19.9491 28.0612 20.7849C27.9293 21.2843 27.7164 21.8984 27.3175 22.417C26.8593 23.0126 26.1591 23.4652 25.2746 23.4652C23.5127 23.4652 22.7433 21.9374 22.4025 21.0106C22.0419 20.0298 21.8527 18.9945 21.6643 17.9633C21.6367 17.8122 21.6091 17.6612 21.581 17.5105C21.3539 16.2928 21.1452 15.2843 20.8418 14.5727C20.7518 14.3616 20.6689 14.2157 20.6003 14.1171C20.5563 14.054 20.465 14.0531 20.4198 14.1154C20.3449 14.2187 20.2539 14.374 20.1549 14.6009C19.8397 15.323 19.6169 16.3447 19.3804 17.5607C19.3465 17.735 19.3134 17.9095 19.2804 18.0841C19.0914 19.0822 18.9023 20.0804 18.5548 21.0326C18.3675 21.5458 18.0966 22.1253 17.6678 22.584C17.1976 23.087 16.5131 23.4609 15.6407 23.3996C13.9633 23.2818 13.2361 21.8413 12.939 20.974C12.6518 20.1354 12.5007 19.102 12.3777 18.2606C12.3667 18.1854 12.3559 18.1119 12.3453 18.0401C12.3283 17.9253 12.3122 17.8084 12.2959 17.6903C12.2135 17.0927 12.1266 16.4627 11.902 15.9022C11.8655 15.8111 11.7634 15.7594 11.6683 15.7982C11.3348 15.9342 10.9531 16.2667 10.6688 16.855C10.2901 17.6387 9.34324 17.9301 8.55196 17.5024C7.75956 17.0742 7.42705 16.0891 7.80651 15.304C8.46953 13.9322 9.85739 12.4857 11.843 12.4857C12.5811 12.4857 13.2532 12.7508 13.7939 13.2345C14.293 13.681 14.5983 14.2391 14.7965 14.7239C15.1789 15.6593 15.3517 16.8203 15.4846 17.7193C15.494 17.7824 15.5033 17.8456 15.5125 17.9088C15.5528 18.1832 15.5932 18.458 15.6381 18.732C15.6589 18.8591 15.8349 18.8669 15.8646 18.74C15.977 18.2581 16.0839 17.7059 16.2031 17.0906L16.2032 17.0899L16.1639 17.0823L16.2032 17.0899L16.2039 17.0864C16.2212 16.9969 16.2385 16.9073 16.2557 16.8176C16.4951 15.5742 16.737 14.317 17.2428 13.1581C17.702 12.1059 18.5924 10.7696 20.3104 10.7099C20.3528 10.7084 20.4271 10.7072 20.5077 10.7071C20.5778 10.707 20.6522 10.7077 20.7142 10.7098C22.4336 10.7696 23.3143 12.0989 23.7641 13.1538C24.2445 14.2802 24.4705 15.5003 24.6939 16.7062C24.709 16.7879 24.7242 16.8697 24.7394 16.9513L24.7394 16.9514C24.8447 17.5171 24.9405 18.032 25.0405 18.4905C25.0693 18.6223 25.252 18.6105 25.2679 18.4792C25.2966 18.2425 25.3235 18.0051 25.3504 17.768C25.3699 17.5957 25.3895 17.4235 25.4096 17.2518C25.5364 16.1732 25.7123 14.8344 26.1496 13.7673C26.3754 13.2165 26.7255 12.5953 27.2998 12.12C27.9204 11.6062 28.6712 11.3721 29.4668 11.4232C30.0782 11.4624 30.6007 11.6568 31.0827 11.9314C31.5391 12.1914 31.9645 12.5073 32.3832 12.8362C32.5057 12.9325 32.6278 13.0299 32.7498 13.1274C33.0444 13.3625 33.3392 13.598 33.6415 13.8171L33.6723 13.8395L33.6961 13.8098C33.9769 13.4611 34.2956 13.1332 34.66 12.8437ZM36.9444 15.1023L36.8897 15.1587L36.9675 15.1698C37.663 15.2687 38.5286 15.3224 39.3369 15.2111C40.1443 15.0999 40.9013 14.8231 41.3709 14.2548C41.4854 14.1161 41.4149 13.9153 41.2449 13.8677C39.944 13.5036 38.1228 13.8865 36.9444 15.1023Z" fill="white" stroke="white" stroke-width="0.0800498" stroke-linecap="round"/>
<path d="M6.27117 18.5741C6.27117 19.2261 6.42459 19.6768 6.73144 19.9261C7.03828 20.1754 7.52732 20.3001 8.19855 20.3001C8.60128 20.3001 9.04237 20.2713 9.52182 20.2138V23.4932C8.62046 23.5891 7.87252 23.6371 7.27801 23.6371C5.74378 23.6371 4.5931 23.2919 3.82599 22.6014C3.07805 21.8919 2.70408 20.6261 2.70408 18.8042V12.3029H0V9.10981H2.70408V5.57149L6.27117 4.36328V9.10981H9.46429V12.3029H6.27117V18.5741Z" fill="white"/>
</g>
<defs>
<clipPath id="clip0_1781_10315">
<rect width="73.3623" height="27.2738" fill="white" transform="translate(0 0.363281)"/>
</clipPath>
</defs>
</svg>
